<svg xmlns="http://www.w3.org/2000/svg" viewBox="0 0 26 26">
<style type="text/css">
	.st0{fill:#08205C;}
</style>
<path class="st0" d="M6.7,24.7c-0.4-0.7-0.7-1.4-0.9-2.2c-0.1,0-0.3,0-0.4,0c-0.7,0-1.4-0.2-1.9-0.7c-1.3-1.4-0.4-4,0.3-5.4c1.2-2.7,3.3-5.2,5.3-7.3c1.7-1.7,3.7-3.4,5.7-4.7c1.4-0.8,3.3-1.8,4.9-1.8c0.7,0,1.4,0.2,1.9,0.7c0.8,0.8,0.8,2.1,0.5,3.1c0,0,0.1,0.1,0.1,0.1c0.6,0.4,1.3,0.7,2,0.8c0.2-1.7,0.1-3.6-1.1-4.9c-0.8-0.8-1.8-1.1-2.8-1.2c-1.4-0.1-2.8,0.2-4.1,0.6C16,2,15.7,1.9,15.6,1.6c-0.1-0.3,0.1-0.6,0.3-0.7c1.4-0.5,3-0.8,4.6-0.7c1.4,0.1,2.6,0.6,3.6,1.6c1.6,1.6,1.8,4,1.4,6.1c-0.5,2.8-1.9,5.5-3.5,7.8c-0.1,0.2-0.3,0.2-0.5,0.2c-0.1,0-0.2,0-0.3-0.1c-0.3-0.2-0.3-0.5-0.1-0.8c0.1-0.1,0.1-0.2,0.2-0.3c-0.9-0.4-1.8-0.9-2.6-1.6c-0.6,0.7-1.2,1.4-1.8,2.1c0.1,0.1,0.2,0.2,0.3,0.4c0.6,0.7,1.3,1.2,2.1,1.6c0.3-0.3,0.5-0.6,0.7-0.9c0.2-0.2,0.6-0.3,0.8-0.1s0.3,0.6,0.1,0.8c-0.6,0.7-1.2,1.4-1.9,2.1c-3.1,3.2-8.1,6.7-12.7,6.7c0,0-0.1,0-0.1,0c-1.5,0-3.1-0.4-4.2-1.5c-0.2-0.2-0.2-0.6,0-0.8c0.2-0.2,0.6-0.2,0.8,0c0.9,0.9,2.2,1.2,3.4,1.2C6.4,24.7,6.6,24.7,6.7,24.7L6.7,24.7z M2.4,15.7c-0.7,1.9-1.3,4.6-0.5,6.6c0.1,0.3,0,0.6-0.3,0.8c-0.1,0-0.1,0-0.2,0c-0.2,0-0.4-0.1-0.5-0.3c-1-2.3-0.4-5.2,0.4-7.5C2.6,12.2,4.7,9.2,7,6.9c2.1-2.1,4.6-4.1,7.3-5.3c0.3-0.1,0.6,0,0.8,0.3c0.1,0.3,0,0.6-0.3,0.8c-2.6,1.2-5,3.1-7,5.1C5.6,9.9,3.6,12.8,2.4,15.7L2.4,15.7z M24.1,8.5c-0.8-0.2-1.6-0.5-2.2-0.9c-0.1,0.1-0.1,0.3-0.2,0.4c0.7,0.4,1.5,0.8,2.3,0.9C24,8.8,24.1,8.6,24.1,8.5L24.1,8.5z M23.7,10c-0.9-0.2-1.7-0.5-2.4-1c-0.3,0.6-0.6,1.2-1,1.8c0.7,0.7,1.5,1.2,2.4,1.4C23,11.5,23.4,10.8,23.7,10z M4.3,21.1c0.3,0.3,0.7,0.4,1.1,0.4c1.4,0,3.1-0.9,4.3-1.6c2-1.2,3.9-2.8,5.5-4.5c2-2,3.9-4.5,5.1-7c0.4-0.9,1.4-3.3,0.5-4.2c-0.3-0.3-0.7-0.4-1.1-0.4c-1.4,0-3.1,0.9-4.3,1.6c-2,1.2-3.9,2.8-5.5,4.5c-2,2-3.9,4.5-5.1,7C4.4,17.8,3.5,20.2,4.3,21.1z M17.3,19.3c-0.9-0.5-1.6-1.2-2.3-1.9c0,0-0.1-0.1-0.1-0.1c-0.7,0.6-1.4,1.3-2.1,1.8c0.4,1,1,1.8,1.9,2.4C15.6,20.8,16.4,20,17.3,19.3z M11.9,19.8c-0.1,0.1-0.2,0.2-0.4,0.3c0.4,0.9,1,1.7,1.8,2.3c0.1-0.1,0.3-0.2,0.4-0.3C12.9,21.5,12.3,20.7,11.9,19.8z M9.6,24.1c0.9-0.3,1.8-0.7,2.6-1.2c-0.7-0.7-1.3-1.4-1.7-2.3c-0.1,0-0.1,0.1-0.2,0.1c-0.6,0.4-1.2,0.7-1.8,1C8.7,22.7,9.1,23.4,9.6,24.1L9.6,24.1z M7,22.3c0.2,0.8,0.5,1.5,1,2.2c0.2,0,0.3-0.1,0.5-0.1C8,23.8,7.6,23,7.4,22.2C7.3,22.3,7.1,22.3,7,22.3L7,22.3z M16.1,16.1C16.1,16.1,16.1,16.1,16.1,16.1c-0.1,0.1-0.2,0.2-0.3,0.3c0,0.1,0.1,0.1,0.1,0.2c0.6,0.8,1.4,1.4,2.2,1.8c0,0,0.1-0.1,0.1-0.1c0.1-0.1,0.2-0.2,0.2-0.2c-0.8-0.4-1.6-1-2.2-1.7C16.2,16.3,16.1,16.2,16.1,16.1L16.1,16.1z M19.4,12.2c0.7,0.7,1.6,1.2,2.5,1.5c0.1-0.1,0.2-0.3,0.2-0.4c-0.9-0.3-1.8-0.8-2.5-1.5C19.5,12,19.4,12.1,19.4,12.2L19.4,12.2z"/>
</svg>
