<svg xmlns="http://www.w3.org/2000/svg" viewBox="0 0 26 26">
<style type="text/css">
	.st0{fill:#08205C;}
</style>
<path class="st0" d="M3.5,16.7H3c-0.3,0-0.6,0.3-0.6,0.6v8c0,0.3,0.3,0.6,0.6,0.6H23c0.3,0,0.6-0.3,0.6-0.6v-8c0-0.3-0.3-0.6-0.6-0.6h-0.5l0,0C21.9,13,19.2,10,15.6,9l0,0l0,0c0-0.1,0-0.2,0-0.3l0,0l0,0c1.2-1.7,2.3-3.3,3.5-5c0.1-0.2,0.1-0.5,0-0.7l-1.5-2.4c0,0,0,0,0,0c-0.1-0.2-0.3-0.3-0.6-0.3H9c-0.2,0-0.5,0.1-0.6,0.3c0,0,0,0,0,0C8,1.3,7.5,2.1,7,2.9C7,3,6.9,3.1,6.9,3.3c0,0.1,0,0.2,0.1,0.3l3.4,5l0,0c0,0.1,0,0.2-0.1,0.3l0,0l0,0C6.8,10,4.1,13,3.5,16.7L3.5,16.7L3.5,16.7z M14.8,7.4c-0.1-0.1-0.3-0.3-0.4-0.4l0,0l1.1-3.2h1.9L14.8,7.4L14.8,7.4z M11.7,8.6C12,8.1,12.5,7.8,13,7.8c0.5,0,1,0.3,1.2,0.8l0,0.1l-0.1,0c-0.4,0-0.8-0.1-1.2-0.1C12.6,8.6,12.2,8.6,11.7,8.6L11.7,8.6L11.7,8.6z M11.9,3.9h2.3l-0.9,2.8h0c-0.1,0-0.1,0-0.2,0c-0.1,0-0.1,0-0.2,0h0L11.9,3.9L11.9,3.9z M16.9,1.8l0.5,0.8h-1.1L16.9,1.8z M15.7,1.4l-1,1.3h-3.4l-1-1.3H15.7z M9.1,1.8l0.6,0.8H8.6L9.1,1.8z M8.7,3.9h1.9l1,3.1l0,0c-0.2,0.1-0.3,0.2-0.4,0.3l0,0L8.7,3.9L8.7,3.9z M4.8,16.6C5.5,12.7,9,9.8,13,9.8c4,0,7.5,2.9,8.2,6.8l0,0h-0.8l0,0c-0.7-3.5-3.8-6-7.4-6c-3.6,0-6.7,2.5-7.4,6l0,0L4.8,16.6L4.8,16.6L4.8,16.6z M19.2,16.7H6.8l0,0c0.7-2.8,3.3-4.8,6.2-4.8C15.9,11.8,18.4,13.8,19.2,16.7L19.2,16.7z M22.3,24.6H3.6v-6.7h18.7V24.6z M21,20.6c-0.3,0-0.6,0.3-0.6,0.6c0,0.3,0.3,0.6,0.6,0.6c0.3,0,0.6-0.3,0.6-0.6C21.6,20.9,21.3,20.6,21,20.6z M11,21.9h8c0.3,0,0.6-0.3,0.6-0.6c0-0.3-0.3-0.6-0.6-0.6h-8c-0.3,0-0.6,0.3-0.6,0.6C10.4,21.6,10.7,21.9,11,21.9z M11,23.9h5c0.3,0,0.6-0.3,0.6-0.6c0-0.3-0.3-0.6-0.6-0.6h-5c-0.3,0-0.6,0.3-0.6,0.6C10.4,23.6,10.7,23.9,11,23.9z M21,22.6h-3c-0.3,0-0.6,0.3-0.6,0.6c0,0.3,0.3,0.6,0.6,0.6h3c0.3,0,0.6-0.3,0.6-0.6C21.6,22.9,21.3,22.6,21,22.6z M11,19.9h3c0.3,0,0.6-0.3,0.6-0.6c0-0.3-0.3-0.6-0.6-0.6h-3c-0.3,0-0.6,0.3-0.6,0.6C10.4,19.6,10.7,19.9,11,19.9z M16,19.9h5c0.3,0,0.6-0.3,0.6-0.6c0-0.3-0.3-0.6-0.6-0.6h-5c-0.3,0-0.6,0.3-0.6,0.6C15.4,19.6,15.7,19.9,16,19.9z M5.4,23.2c0.1,0.1,0.2,0.1,0.4,0.1c0.2,0,0.4-0.1,0.5-0.3l2.1-3c0.2-0.3,0.1-0.7-0.1-0.9c-0.3-0.2-0.7-0.1-0.9,0.1l-2.1,3C5.1,22.7,5.1,23,5.4,23.2z M7.7,22.8c0,0.3,0.3,0.6,0.6,0.6c0.3,0,0.6-0.3,0.6-0.6c0-0.3-0.3-0.6-0.6-0.6C7.9,22.1,7.7,22.4,7.7,22.8z M5.4,20.4c0.3,0,0.6-0.3,0.6-0.6c0-0.3-0.3-0.6-0.6-0.6c-0.3,0-0.6,0.3-0.6,0.6C4.8,20.1,5,20.4,5.4,20.4z"/>
</svg>
