<svg xmlns="http://www.w3.org/2000/svg" viewBox="0 0 26 26">
<style type="text/css">
	.st0{fill:#08205C;}
</style>
<path class="st0" d="M22.7,9.2l-2.7-1l0.1-0.1c0.9-0.7,1.3-1.9,1-3c-0.5-2.2-3.2-3-4.8-1.5l-1.9,1.7l-0.4-2.5c-0.3-2.2-2.9-3.3-4.7-1.9C8.5,1.5,8,2.6,8.2,3.7l0,0.2L5.7,3C4.6,2.6,3.3,3.2,2.9,4.3l-1,2.8C1.8,7.4,2,7.8,2.3,7.9c3.9,1.4,7.9,2.9,11.8,4.3l0.5,0.2H14c-3.8,0-7.6,0-11.4,0c-0.4,0-0.7,0.3-0.7,0.7v10.5c0,1.2,1,2.2,2.2,2.2h15.1c1.2,0,2.2-1,2.2-2.2v-8.7l0.7,0.3c0.3,0.1,0.7-0.1,0.8-0.4l1-2.8C24.4,10.8,23.8,9.6,22.7,9.2L22.7,9.2z M9.5,24.5H4.2c-0.5,0-0.9-0.4-0.9-0.9v-9.9h6.2L9.5,24.5L9.5,24.5z M12.6,24.5h-1.7V13.7h1.7V24.5z M17.2,4.6c0.9-0.8,2.4-0.4,2.7,0.8c0.3,1.3-0.9,2.4-2.2,1.9c-0.8-0.3-1.6-0.6-2.5-0.9l-0.2-0.1L17.2,4.6L17.2,4.6z M10.2,1.9c1-0.7,2.4-0.1,2.6,1.1l0.4,2.7L13,5.7c-0.8-0.3-1.6-0.6-2.5-0.9C9.3,4.3,9.1,2.6,10.2,1.9L10.2,1.9z M10.6,9.6L3.4,6.9l0.8-2.2c0.2-0.4,0.7-0.7,1.1-0.5C7.4,5,9.5,5.8,11.6,6.5l0.1,0L10.6,9.6L10.6,9.6z M13.5,10.6L11.9,10L13,7l1.6,0.6L13.5,10.6z M20.1,23.6c0,0.5-0.4,0.9-0.9,0.9h-5.4V13.7h4.3l1.9,0.7L20.1,23.6L20.1,23.6z M22.8,11.5L22,13.7l-7.3-2.6l1.1-3l6.5,2.3C22.7,10.6,22.9,11,22.8,11.5L22.8,11.5z"/>
</svg>
