<svg xmlns="http://www.w3.org/2000/svg" viewBox="0 0 26 26">
<style type="text/css">
	.st0{fill:#08205C;}
</style>
<path class="st0" d="M23.6,3.3h-2.1c-2.9,0-5.8-1-8-2.9c-0.3-0.2-0.7-0.2-0.9,0c-2.2,1.9-5.1,2.9-8,2.9H2.4c-0.3,0-0.6,0.2-0.6,0.5V13c0,3.1,1.1,5.6,3.3,7.7c1.8,1.8,4,3,6.2,4.2c0.5,0.2,0.9,0.5,1.3,0.7c0.1,0.1,0.2,0.1,0.4,0.1c0.1,0,0.3,0,0.4-0.1c0.4-0.3,0.9-0.5,1.3-0.7c2.2-1.2,4.4-2.5,6.2-4.2c2.2-2.1,3.3-4.7,3.3-7.7V3.9C24.2,3.5,23.9,3.3,23.6,3.3L23.6,3.3z M13.1,1.8c2.4,1.8,5.4,2.8,8.4,2.8h1.4V13c0,2.8-1.1,5-3.1,6.9c-1.7,1.7-3.7,2.9-5.8,4c-0.3,0.2-0.6,0.3-0.9,0.5L13,24.5l-0.1-0.1c-0.3-0.2-0.6-0.3-0.9-0.5c-2.1-1.1-4.2-2.3-5.9-4c-2-2-3-4.1-3-6.9V4.6h1.4c3,0,6-1,8.4-2.8L13,1.7L13.1,1.8L13.1,1.8z M9.6,9.8l0.8,0.1c0.1,0,0.3,0,0.5,0c0.1-0.1,0.2-0.2,0.2-0.3c0.1-0.2,0.1-0.4,0.3-0.6c0.1-0.2,0.3-0.3,0.4-0.5c0.2-0.1,0.4-0.2,0.6-0.3c0.2-0.1,0.5-0.1,0.7-0.1c0.5,0,1,0.1,1.3,0.5C14.9,8.9,15,9.4,15,10c0,0.3,0,0.5-0.1,0.8c-0.1,0.3-0.3,0.5-0.5,0.6c-0.2,0.2-0.5,0.3-0.8,0.4c-0.3,0.1-0.7,0.1-1,0.1v0.9c0.4,0,0.8,0,1.2,0.1c0.3,0.1,0.6,0.2,0.9,0.4c0.2,0.2,0.4,0.4,0.4,0.7c0.1,0.3,0.1,0.5,0.1,0.8c0,0.2-0.1,0.5-0.1,0.7c-0.1,0.2-0.2,0.5-0.4,0.6c-0.2,0.2-0.4,0.4-0.7,0.5c-0.3,0.1-0.6,0.2-1,0.2c-0.3,0-0.6,0-0.9-0.1c-0.2-0.1-0.4-0.2-0.6-0.4c-0.2-0.2-0.3-0.3-0.4-0.5c-0.1-0.2-0.2-0.4-0.3-0.6c-0.1-0.1-0.2-0.2-0.3-0.2c-0.2,0-0.3,0-0.5,0.1l-0.7,0.3c0.1,0.4,0.3,0.7,0.5,1c0.2,0.3,0.4,0.6,0.7,0.9c0.3,0.2,0.7,0.4,1,0.5c0.5,0.1,0.9,0.2,1.4,0.2c0.5,0,1-0.1,1.4-0.2c0.4-0.1,0.8-0.3,1.2-0.6c0.3-0.3,0.6-0.6,0.8-1c0.2-0.4,0.3-0.9,0.3-1.4c0-0.5-0.1-1.1-0.5-1.5c-0.3-0.5-0.9-0.7-1.4-0.9l-0.7-0.2l0.7-0.2c0.2-0.1,0.5-0.2,0.7-0.3c0.2-0.1,0.4-0.3,0.5-0.5c0.1-0.2,0.2-0.4,0.3-0.6c0.1-0.3,0.1-0.6,0.1-0.9c0-0.4-0.1-0.7-0.2-1.1c-0.1-0.3-0.4-0.6-0.6-0.8c-0.3-0.3-0.6-0.4-1-0.6c-0.4-0.2-0.9-0.2-1.3-0.2c-0.5,0-0.9,0.1-1.3,0.2c-0.4,0.1-0.8,0.3-1.1,0.6c-0.3,0.3-0.6,0.6-0.8,1C9.8,9,9.7,9.4,9.6,9.8L9.6,9.8z"/>
</svg>
