<svg xmlns="http://www.w3.org/2000/svg" viewBox="0 0 26 26" >
<style type="text/css">
	.st0{fill:#08205C;}
</style>
<path class="st0" d="M22.4,10.4c-1-2.1-2.7-3.8-4.8-4.8l0,0c0,0,0.8-0.8,1.1-1.1c0.1-0.1,0.1-0.2,0.1-0.4c0-0.1-0.1-0.2-0.1-0.3L16,0.7c-0.1-0.1-0.2-0.2-0.4-0.2h-5.3c-0.1,0-0.3,0.1-0.4,0.2L7.3,3.9C7.2,4,7.2,4.1,7.2,4.2c0,0.1,0.1,0.3,0.1,0.4l1.1,1.1c-5.2,2.5-7.3,8.8-4.8,14s8.8,7.3,14,4.8C22.8,21.9,24.9,15.6,22.4,10.4z M15.9,2l1.4,1.7h-1.9L15.9,2z M17.1,4.7l-3.1,3.1l1-3.1H17.1z M12.6,10c0.1,0.1,0.2,0.1,0.4,0.1c0.1,0,0.3-0.1,0.4-0.1l1.8-1.8c3.8,1.2,5.9,5.2,4.7,9c-1.2,3.8-5.2,5.9-9,4.7c-3.8-1.2-5.9-5.2-4.7-9c0.7-2.3,2.5-4,4.7-4.7L12.6,10z M12,4.7h2l-1,3.3L12,4.7z M15,1.5l-0.4,1.4l-0.7-1.4L15,1.5z M13.8,3.7h-1.7L13,2.1L13.8,3.7z M12.2,1.5l-0.7,1.4L11,1.5H12.2z M11.9,7.8L9.6,5.4L8.8,4.7H11L11.9,7.8z M10.1,2l0.5,1.7H8.7L10.1,2z M13,24.5c-5.2,0-9.5-4.2-9.5-9.5c0-3.7,2.2-7.1,5.6-8.6l1,1C5.9,9,3.8,13.7,5.4,17.9c1.6,4.2,6.3,6.3,10.5,4.7c4.2-1.6,6.3-6.3,4.7-10.5c-0.8-2.2-2.6-3.9-4.7-4.7l1-1c4.8,2.1,6.9,7.7,4.8,12.5C20.1,22.3,16.7,24.5,13,24.5z"/>
</svg>
