<svg xmlns="http://www.w3.org/2000/svg" viewBox="0 0 26 26">
<style type="text/css">
	.st0{fill:#08205C;}
</style>
<path class="st0" d="M23.6,3.3h-2.1c-2.9,0-5.8-1-8-2.9c-0.3-0.2-0.7-0.2-0.9,0c-2.2,1.9-5.1,2.9-8,2.9H2.4c-0.3,0-0.6,0.2-0.6,0.5V13c0,3.1,1.1,5.6,3.3,7.7c1.8,1.8,4,3,6.2,4.2c0.5,0.2,0.9,0.5,1.3,0.7c0.1,0.1,0.2,0.1,0.4,0.1c0.1,0,0.3,0,0.4-0.1c0.4-0.2,0.9-0.5,1.3-0.7c2.2-1.2,4.4-2.5,6.2-4.2c2.2-2.1,3.3-4.7,3.3-7.7V3.9C24.2,3.5,23.9,3.3,23.6,3.3L23.6,3.3z M13.1,1.9c2.4,1.8,5.4,2.8,8.4,2.8h1.4v8.3c0,2.8-1.1,5-3.1,6.9c-1.7,1.7-3.7,2.9-5.8,4c-0.3,0.2-0.6,0.3-0.9,0.5L13,24.4l-0.1-0.1c-0.3-0.2-0.6-0.3-0.9-0.5c-2.1-1.1-4.2-2.3-5.9-4c-2-2-3-4.1-3-6.9V4.6h1.4c3,0,6-1,8.4-2.8L13,1.7L13.1,1.9L13.1,1.9z M21.1,11.4l-2.6-3.6c-0.1-0.1-0.3-0.2-0.4-0.2H7.8c-0.2,0-0.3,0.1-0.4,0.2l-2.6,3.6c-0.1,0.2-0.1,0.4,0,0.5c0,0,0,0.1,0.1,0.1l7.7,8.5c0.1,0.1,0.2,0.2,0.4,0.2c0.1,0,0.3-0.1,0.4-0.2l7.7-8.6c0,0,0.1-0.1,0.1-0.1C21.3,11.8,21.2,11.6,21.1,11.4z M19.7,11.2h-3.1L18.1,9L19.7,11.2L19.7,11.2z M14.9,12.2L13,18.5l-1.9-6.2H14.9L14.9,12.2z M11.4,11.2L13,9l1.6,2.2H11.4L11.4,11.2z M14,8.7h3.1l-1.6,2.2L14,8.7L14,8.7z M10.4,10.8L8.9,8.7H12L10.4,10.8L10.4,10.8z M10,12.2l1.8,6l-5.4-6H10z M16,12.2h3.6l-5.4,6L16,12.2L16,12.2z M7.9,9l1.6,2.2H6.3L7.9,9L7.9,9z"/>
</svg>
