<svg width="60" height="60" viewBox="0 0 60 60" fill="none" xmlns="http://www.w3.org/2000/svg">
<path d="M52.9557 32.1866V24.7351H54.713C55.6835 24.7351 56.4703 23.9483 56.4703 22.9778V16.0654C56.4703 13.1584 54.1053 10.7933 51.1982 10.7933H44.8019C47.6958 5.85841 43.9853 -0.256089 38.3406 0.00828639C35.8259 0.124419 33.6069 1.51426 32.4027 3.72993L29.8133 8.52231L27.2222 3.72606C26.0202 1.51426 23.8011 0.124419 21.2863 0.00828639C15.6421 -0.254917 11.93 5.85677 14.8249 10.7933H8.78684C5.87977 10.7933 3.51469 13.1584 3.51469 16.0654V22.9779C3.51469 23.9484 4.30149 24.7352 5.27203 24.7352H7.02938V35.3967H1.75734C0.786797 35.3967 0 36.1835 0 37.1541V58.2427C0 59.2132 0.786797 60 1.75734 60H8.78684C9.64993 60 10.3663 59.3773 10.5145 58.557C13.9587 59.5007 17.6919 60 21.3301 60H37.0221C40.8608 60 44.5282 58.1726 46.8405 55.1098C46.8762 55.0661 58.8984 40.3605 58.9322 40.3154C59.621 39.3973 59.9852 38.304 59.9852 37.1541C59.9852 33.5522 56.4116 30.9622 52.9557 32.1866ZM7.0295 44.1835V56.4852H3.51469V38.9114H7.0295V44.1835ZM51.1983 14.3081C52.1673 14.3081 52.9557 15.0964 52.9557 16.0654V21.2204H35.2647V14.308C35.8196 14.3081 50.6609 14.3081 51.1983 14.3081ZM49.441 24.7352V35.0307L42.0767 42.6873C41.43 40.507 39.4095 38.9114 37.0221 38.9114H35.2648V24.7352H49.441ZM35.493 5.4043C36.1026 4.2827 37.2277 3.57805 38.5028 3.51911C41.2779 3.39067 43.2048 6.33606 41.8515 8.8713C41.2091 10.0747 40.0197 10.7932 38.6697 10.7932C37.9333 10.7932 33.2673 10.7932 32.5814 10.7932L35.493 5.4043ZM28.2352 14.3081C29.5435 14.3081 30.4754 14.3081 31.75 14.3081V38.9114H28.9036C28.6787 38.9114 28.4554 38.8945 28.2352 38.8628V14.3081ZM20.9521 3.51524C21.0093 3.51524 21.0667 3.51653 21.1242 3.51923C22.3993 3.57817 23.5246 4.28282 24.1321 5.40067L27.0457 10.7934C24.3156 10.7934 22.6678 10.7934 20.9575 10.7934C19.6074 10.7933 18.4179 10.0749 17.7756 8.87142C16.4507 6.38962 18.2674 3.51524 20.9521 3.51524ZM7.0295 21.2204V16.0654C7.0295 15.0964 7.81782 14.3081 8.78684 14.3081C8.9168 14.3081 24.5117 14.3081 24.7205 14.3081V21.2205H7.0295V21.2204ZM24.7204 24.7352V36.8913C22.6604 35.4593 20.1914 34.6803 17.6323 34.6803C15.0731 34.6803 12.604 35.4593 10.5442 36.8913V24.7352H24.7204ZM56.1387 38.1818L44.097 52.9127C44.0815 52.9317 44.0664 52.9509 44.0516 52.9706C42.4009 55.1714 39.7731 56.4854 37.0221 56.4854H21.3302C17.3509 56.4854 14.0679 55.9072 10.5443 54.9168V44.1838V41.4635L11.7689 40.3857C15.1116 37.4441 20.153 37.4441 23.4958 40.3857C24.9982 41.7078 26.9347 42.4263 28.9036 42.4263H37.0221C37.9912 42.4263 38.7795 43.2146 38.7795 44.1837C38.7795 45.1527 37.9912 45.941 37.0221 45.941H24.5323C23.5617 45.941 22.7749 46.7278 22.7749 47.6984C22.7749 48.6689 23.5617 49.4557 24.5323 49.4557H38.2C39.6525 49.4557 41.0537 48.8482 42.0469 47.7886C42.4889 47.329 53.0319 36.3673 53.4073 35.977C53.4105 35.9737 53.413 35.9701 53.4162 35.9668C53.4196 35.9633 53.4234 35.9603 53.4266 35.9567C54.505 34.7989 56.4705 35.5557 56.4705 37.1541C56.4705 37.5272 56.3559 37.8819 56.1387 38.1818Z" fill="#6F7D9D"/>
</svg>
