<?xml version="1.0" encoding="utf-8"?>
<!-- Generator: Adobe Illustrator 19.2.1, SVG Export Plug-In . SVG Version: 6.00 Build 0)  -->
<svg version="1.1" id="Слой_1" xmlns="http://www.w3.org/2000/svg" xmlns:xlink="http://www.w3.org/1999/xlink" x="0px" y="0px"
	 viewBox="0 0 20 20" style="enable-background:new 0 0 20 20;" xml:space="preserve">
<style type="text/css">
	.st0{fill:none;}
</style>
<path d="M18,17.3L16.9,4.4c0-0.3-0.3-0.5-0.5-0.5H14c0-2.2-1.8-3.9-4-3.9C7.8,0,6.1,1.7,6,3.9H3.7c-0.3,0-0.5,0.2-0.5,0.5L2,17.3c0,0,0,0,0,0C2,18.8,3.3,20,5,20h10C16.7,20,18,18.8,18,17.3C18,17.3,18,17.3,18,17.3z M10,1.1c1.6,0,2.8,1.2,2.8,2.8H7.2C7.2,2.3,8.4,1.1,10,1.1z M15,18.9H5c-1,0-1.9-0.7-1.9-1.5L4.2,5H6v1.7C6,7,6.3,7.2,6.6,7.2c0.3,0,0.6-0.2,0.6-0.6V5h5.7v1.7c0,0.3,0.2,0.6,0.6,0.6C13.7,7.2,14,7,14,6.7V5h1.8l1.1,12.4C16.9,18.2,16,18.9,15,18.9z"/>
</svg>
