<?xml version="1.0" encoding="utf-8"?>
<!-- Generator: Adobe Illustrator 19.2.1, SVG Export Plug-In . SVG Version: 6.00 Build 0)  -->
<svg version="1.1" id="Слой_1" xmlns="http://www.w3.org/2000/svg" xmlns:xlink="http://www.w3.org/1999/xlink" x="0px" y="0px"
	 viewBox="0 0 24 24" style="enable-background:new 0 0 24 24;" xml:space="preserve">
<style type="text/css">
	.st0{fill:#333A57;}
</style>
<path d="M13.6,24H9.8c-0.6,0-1.2-0.5-1.2-1.2v-8.6H6.4c-0.6,0-1.2-0.5-1.2-1.2V9.3c0-0.6,0.5-1.2,1.2-1.2h2.2V6.3c0-1.8,0.6-3.4,1.7-4.5c1.1-1.1,2.6-1.7,4.4-1.7l2.9,0c0.6,0,1.2,0.5,1.2,1.2v3.4c0,0.6-0.5,1.2-1.2,1.2l-2,0c-0.6,0-0.8,0.1-0.8,0.2c-0.1,0.1-0.1,0.2-0.1,0.7v1.5h2.7c0.2,0,0.4,0.1,0.6,0.1c0.4,0.2,0.6,0.6,0.6,1l0,3.7c0,0.6-0.5,1.2-1.2,1.2h-2.7v8.6C14.8,23.4,14.2,24,13.6,24z M10,22.5h3.3v-9c0-0.4,0.3-0.8,0.8-0.8h3.1l0-3.2h-3.1c-0.4,0-0.8-0.3-0.8-0.8V6.7c0-0.5,0.1-1.2,0.5-1.6c0.5-0.6,1.3-0.6,1.8-0.6l1.7,0v-3l-2.7,0c-2.9,0-4.7,1.9-4.7,4.8v2.5c0,0.4-0.3,0.8-0.8,0.8H6.6v3.2h2.6c0.4,0,0.8,0.3,0.8,0.8V22.5z M17.6,1.5L17.6,1.5L17.6,1.5z"/>
</svg>
