<?xml version="1.0" encoding="utf-8"?>
<!-- Generator: Adobe Illustrator 19.2.1, SVG Export Plug-In . SVG Version: 6.00 Build 0)  -->
<svg version="1.1" id="Слой_1" xmlns="http://www.w3.org/2000/svg" xmlns:xlink="http://www.w3.org/1999/xlink" x="0px" y="0px"
	 viewBox="0 0 20 20" style="enable-background:new 0 0 20 20;" xml:space="preserve">
<style type="text/css">
	.st0{fill:#FFFFFF;}
</style>
<path d="M11.1,18H8.5c-0.4,0-0.8-0.3-0.8-0.8v-5.8H6.3c-0.4,0-0.8-0.3-0.8-0.8V8.2c0-0.4,0.3-0.8,0.8-0.8h1.5V6.2c0-1.2,0.4-2.3,1.1-3C9.6,2.4,10.6,2,11.8,2l1.9,0c0.4,0,0.8,0.3,0.8,0.8v2.3c0,0.4-0.3,0.8-0.8,0.8l-1.3,0c-0.4,0-0.5,0.1-0.5,0.1c0,0-0.1,0.2-0.1,0.5v1h1.8c0.1,0,0.3,0,0.4,0.1c0.2,0.1,0.4,0.4,0.4,0.7l0,2.5c0,0.4-0.3,0.8-0.8,0.8h-1.8v5.8C11.8,17.7,11.5,18,11.1,18z M8.7,17.1h2.2v-6c0-0.3,0.2-0.5,0.5-0.5h2.1l0-2.2h-2.1c-0.3,0-0.5-0.2-0.5-0.5V6.4c0-0.4,0-0.8,0.3-1.1c0.3-0.4,0.9-0.4,1.2-0.4l1.1,0v-2l-1.8,0c-1.9,0-3.1,1.2-3.1,3.2v1.7c0,0.3-0.2,0.5-0.5,0.5H6.4v2.2h1.7c0.3,0,0.5,0.2,0.5,0.5V17.1z M13.7,2.9L13.7,2.9L13.7,2.9z"/>
</svg>
