<svg xmlns="http://www.w3.org/2000/svg" viewBox="0 0 24 24">
<g>
	<path d="M21.8,22.6V8.9C23,8.5,24,7.5,24,6.2C24,5,23,3.9,21.8,3.6V1.4c0-0.5-0.5-0.9-1-0.9c-0.6,0-1,0.4-1,0.9v2.1c-1.3,0.4-2.2,1.4-2.2,2.7c0,1.2,0.9,2.3,2.2,2.7v13.7c0,0.5,0.5,0.9,1,0.9C21.3,23.5,21.8,23.1,21.8,22.6z M19.6,6.2c0-0.6,0.5-1,1.2-1s1.2,0.5,1.2,1s-0.5,1-1.2,1S19.6,6.8,19.6,6.2z"/>
	<path d="M13,22.6v-2.1c1.3-0.4,2.2-1.4,2.2-2.7c0-1.2-0.9-2.3-2.2-2.7V1.4c0-0.5-0.5-0.9-1-0.9s-1,0.4-1,0.9v13.7c-1.3,0.4-2.2,1.4-2.2,2.7c0,1.2,0.9,2.3,2.2,2.7v2.1c0,0.5,0.5,0.9,1,0.9S13,23.1,13,22.6z M10.8,17.8c0-0.6,0.5-1,1.2-1s1.2,0.5,1.2,1c0,0.6-0.5,1-1.2,1S10.8,18.3,10.8,17.8z"/>
	<path d="M4.3,22.6v-9.8c1.3-0.4,2.2-1.4,2.2-2.7c0-1.2-0.9-2.3-2.2-2.7v-6c0-0.5-0.5-0.9-1-0.9s-1,0.4-1,0.9v6C1,7.8,0.1,8.8,0.1,10.1c0,1.2,0.9,2.3,2.2,2.7v9.8c0,0.5,0.5,0.9,1,0.9S4.3,23.1,4.3,22.6z M2.1,10.1c0-0.6,0.5-1,1.2-1c0.6,0,1.2,0.5,1.2,1s-0.5,1-1.2,1S2.1,10.6,2.1,10.1z"/>
</g>
</svg>
