<svg width="100" height="88" viewBox="0 0 100 88" fill="none" xmlns="http://www.w3.org/2000/svg">
<path d="M50 87.5C48.5764 87.5 47.2038 86.9928 46.1342 86.0713C42.0944 82.5972 38.1996 79.3324 34.7633 76.4526L34.7458 76.4376C24.6712 67.9939 15.9714 60.7019 9.91821 53.5188C3.1517 45.4886 0 37.8747 0 29.5571C0 21.4758 2.81754 14.0203 7.93304 8.56301C13.1096 3.04117 20.2126 0 27.9358 0C33.7082 0 38.9946 1.79484 43.6478 5.33425C45.9961 7.12084 48.1247 9.30736 50 11.8578C51.8761 9.30736 54.0039 7.12084 56.353 5.33425C61.0062 1.79484 66.2926 0 72.065 0C79.7874 0 86.8912 3.04117 92.0677 8.56301C97.1832 14.0203 100 21.4758 100 29.5571C100 37.8747 96.8491 45.4886 90.0826 53.5181C84.0294 60.7019 75.3304 67.9931 65.2573 76.4361C61.8149 79.3204 57.914 82.5904 53.8651 86.0728C52.7962 86.9928 51.4229 87.5 50 87.5ZM27.9358 5.7612C21.8681 5.7612 16.2941 8.14282 12.2391 12.4678C8.12378 16.8581 5.85709 22.927 5.85709 29.5571C5.85709 36.5526 8.50067 42.8091 14.4279 49.8429C20.1569 56.6418 28.6781 63.7836 38.5445 72.0533L38.5628 72.0683C42.012 74.9594 45.9221 78.2369 49.9916 81.7365C54.0855 78.2302 58.0017 74.9474 61.4578 72.0518C71.3234 63.7821 79.8439 56.6418 85.5728 49.8429C91.4993 42.8091 94.1429 36.5526 94.1429 29.5571C94.1429 22.927 91.8762 16.8581 87.7609 12.4678C83.7067 8.14282 78.1319 5.7612 72.065 5.7612C67.6201 5.7612 63.5391 7.15085 59.9358 9.89113C56.7245 12.3343 54.4876 15.4227 53.1761 17.5837C52.5017 18.695 51.3145 19.3583 50 19.3583C48.6855 19.3583 47.4983 18.695 46.8239 17.5837C45.5132 15.4227 43.2762 12.3343 40.0642 9.89113C36.4609 7.15085 32.3799 5.7612 27.9358 5.7612Z" fill="#08205C"/>
</svg>
