<svg xmlns="http://www.w3.org/2000/svg" viewBox="0 0 24 24">
<g>
	<path d="M23.9,11.5c-1-1.7-2.4-3.2-4-4.3c-0.4-0.3-0.9-0.2-1.1,0.2c-0.3,0.4-0.2,0.9,0.2,1.1c1.3,0.9,2.4,2.1,3.3,3.4c-2.2,3.5-6.1,5.7-10.3,5.7c-0.4,0-0.8,0.4-0.8,0.8s0.4,0.8,0.8,0.8c4.9,0,9.4-2.6,11.9-6.9C24,12,24,11.7,23.9,11.5z"/>
	<path d="M12,16.7c2.6,0,4.8-2.1,4.8-4.8c0-0.3,0-0.7-0.1-1c-0.1-0.4-0.5-0.7-1-0.6c-0.4,0.1-0.7,0.5-0.6,1c0,0.2,0.1,0.5,0.1,0.7c0,1.7-1.4,3.2-3.2,3.2c-0.6,0-1.1-0.2-1.6-0.4L22.1,3c0.3-0.3,0.3-0.8,0-1.1c-0.3-0.3-0.8-0.3-1.1,0L9.3,13.5c-0.3-0.5-0.4-1-0.4-1.6c0-1.7,1.4-3.2,3.2-3.2c0.3,0,0.5,0,0.7,0.1c0.4,0.1,0.9-0.2,1-0.6c0.1-0.4-0.2-0.9-0.6-1c-0.4-0.1-0.7-0.1-1.1-0.1c-2.6,0-4.8,2.1-4.8,4.8c0,1,0.3,2,0.9,2.8l-1.6,1.6c-2-1-3.6-2.5-4.8-4.3C4,8.4,7.8,6.2,12,6.2c0.9,0,1.7,0.1,2.6,0.3c0.4,0.1,0.9-0.2,1-0.6c0.1-0.4-0.2-0.9-0.6-1C13.9,4.7,13,4.6,12,4.6c-4.9,0-9.4,2.6-11.9,6.9C0,11.7,0,12,0.1,12.3c1.3,2.2,3,3.9,5.2,5.1l-4.7,4.7c-0.3,0.3-0.3,0.8,0,1.1c0.2,0.2,0.4,0.2,0.6,0.2c0.2,0,0.4-0.1,0.6-0.2l7.5-7.5C10,16.3,11,16.7,12,16.7z"/>
</g>
</svg>
