<?xml version="1.0" encoding="utf-8"?>
<!-- Generator: Adobe Illustrator 19.2.1, SVG Export Plug-In . SVG Version: 6.00 Build 0)  -->
<svg version="1.1" id="Слой_1" xmlns="http://www.w3.org/2000/svg" xmlns:xlink="http://www.w3.org/1999/xlink" x="0px" y="0px"
	 viewBox="0 0 20 20" style="enable-background:new 0 0 20 20;" xml:space="preserve">
<style type="text/css">
	.st0{fill:#FFFFFF;}
</style>
<g>
	<path d="M13.7,2H6.3C3.9,2,2,3.9,2,6.3v7.3C2,16.1,3.9,18,6.3,18h7.3c2.4,0,4.3-1.9,4.3-4.3V6.3C18,3.9,16.1,2,13.7,2L13.7,2z"/>
	<path d="M17.1,13.7c0,1.9-1.5,3.4-3.4,3.4H6.3c-1.9,0-3.4-1.5-3.4-3.4V6.3c0-1.9,1.5-3.4,3.4-3.4h7.3c1.9,0,3.4,1.5,3.4,3.4V13.7z"/>
	<circle cx="10" cy="10" r="4.4"/>
	<circle cx="10" cy="10" r="3.4"/>
	<circle cx="14.5" cy="5.4" r="1.3"/>
	<circle cx="14.5" cy="5.4" r="0.4"/>
</g>
</svg>
