<?xml version="1.0" encoding="utf-8"?>
<!-- Generator: Adobe Illustrator 19.2.1, SVG Export Plug-In . SVG Version: 6.00 Build 0)  -->
<svg version="1.1" id="Слой_1" xmlns="http://www.w3.org/2000/svg" xmlns:xlink="http://www.w3.org/1999/xlink" x="0px" y="0px"
	 viewBox="0 0 24 24" style="enable-background:new 0 0 24 24;" xml:space="preserve">
<style type="text/css">
	.st0{fill:#333A57;}
</style>
<g>
	<path d="M11.9,11.6c1.6,0,2.9-0.6,4-1.7c1.1-1.1,1.7-2.5,1.7-4.1c0-1.6-0.6-3-1.7-4.1c-1.1-1.1-2.5-1.7-4-1.7c-1.6,0-2.9,0.6-4,1.7C6.7,2.9,6.2,4.2,6.2,5.8c0,1.6,0.6,3,1.7,4.1C8.9,11,10.3,11.6,11.9,11.6z M8.8,2.7c0.8-0.9,1.8-1.3,3-1.3c1.2,0,2.2,0.4,3,1.3c0.8,0.9,1.3,1.9,1.3,3.1c0,1.2-0.4,2.2-1.3,3.1c-0.8,0.9-1.8,1.3-3,1.3c-1.2,0-2.2-0.4-3-1.3C8,8,7.5,7,7.5,5.8C7.5,4.6,8,3.6,8.8,2.7z"/>
	<path d="M21.8,18.4c0-0.5-0.1-1-0.2-1.5c-0.1-0.5-0.2-1.1-0.4-1.5c-0.2-0.5-0.4-1-0.6-1.4c-0.3-0.5-0.6-0.9-0.9-1.2c-0.4-0.4-0.8-0.6-1.3-0.8c-0.5-0.2-1.1-0.3-1.7-0.3c-0.2,0-0.5,0.1-0.9,0.4c-0.3,0.2-0.6,0.4-1,0.6c-0.3,0.2-0.7,0.4-1.2,0.6c-0.5,0.2-1,0.2-1.5,0.2c-0.5,0-1-0.1-1.5-0.2C10,13,9.5,12.8,9.2,12.6c-0.4-0.2-0.7-0.4-1-0.6c-0.5-0.3-0.7-0.4-0.9-0.4c-0.6,0-1.2,0.1-1.7,0.3c-0.5,0.2-1,0.5-1.3,0.8c-0.4,0.3-0.7,0.8-0.9,1.2c-0.3,0.5-0.5,0.9-0.6,1.4c-0.1,0.5-0.3,1-0.4,1.5c-0.1,0.5-0.2,1-0.2,1.5c0,0.5,0,0.9,0,1.4c0,1.2,0.4,2.3,1.2,3c0.8,0.7,1.8,1.1,3,1.1h11.4c1.2,0,2.2-0.4,3-1.1c0.8-0.7,1.2-1.8,1.2-3C21.9,19.4,21.8,18.9,21.8,18.4z M19.7,21.8c-0.5,0.5-1.2,0.7-2,0.7H6.3c-0.9,0-1.5-0.2-2-0.7c-0.5-0.5-0.7-1.1-0.7-2c0-0.4,0-0.9,0-1.3c0-0.4,0.1-0.9,0.2-1.4c0.1-0.5,0.2-0.9,0.3-1.3c0.1-0.4,0.3-0.8,0.5-1.2C4.8,14.3,5,14,5.3,13.8c0.2-0.2,0.5-0.4,0.9-0.6C6.5,13.1,6.8,13,7.2,13c0,0,0.1,0.1,0.3,0.2c0.3,0.2,0.6,0.4,1,0.6c0.4,0.3,0.9,0.5,1.6,0.7c0.6,0.2,1.3,0.3,2,0.3c0.7,0,1.3-0.1,2-0.3c0.6-0.2,1.2-0.4,1.6-0.7c0.4-0.2,0.7-0.4,1-0.6c0.1-0.1,0.2-0.1,0.3-0.2c0.4,0,0.8,0.1,1.1,0.2c0.4,0.1,0.7,0.3,0.9,0.6c0.3,0.2,0.5,0.6,0.7,0.9c0.2,0.4,0.4,0.8,0.5,1.2c0.1,0.4,0.2,0.9,0.3,1.3c0.1,0.5,0.1,0.9,0.2,1.4v0c0,0.4,0,0.9,0,1.3C20.5,20.7,20.2,21.4,19.7,21.8z"/>
</g>
</svg>
