<?xml version="1.0" encoding="utf-8"?>
<!-- Generator: Adobe Illustrator 19.2.1, SVG Export Plug-In . SVG Version: 6.00 Build 0)  -->
<svg version="1.1" id="Слой_1" xmlns="http://www.w3.org/2000/svg" xmlns:xlink="http://www.w3.org/1999/xlink" x="0px" y="0px"
	 viewBox="0 0 20 20" style="enable-background:new 0 0 20 20;" xml:space="preserve">
<style type="text/css">
	.st0{fill:#6E7C9A;}
</style>
<path d="M10,9.7c1.3,0,2.5-0.5,3.4-1.4c0.9-0.9,1.4-2.1,1.4-3.4c0-1.3-0.5-2.5-1.4-3.4c-0.9-0.9-2.1-1.4-3.4-1.4c-1.3,0-2.5,0.5-3.4,1.4S5.2,3.6,5.2,4.9c0,1.3,0.5,2.5,1.4,3.4C7.5,9.2,8.7,9.7,10,9.7z M7.4,2.3C8.1,1.6,9,1.3,10,1.3c1,0,1.9,0.3,2.6,1.1c0.7,0.7,1.1,1.6,1.1,2.6c0,1-0.3,1.9-1.1,2.6C11.9,8.2,11,8.5,10,8.5c-1,0-1.9-0.3-2.6-1.1C6.7,6.8,6.4,5.9,6.4,4.9C6.4,3.9,6.7,3,7.4,2.3z"/>
<path d="M18.3,15.4c0-0.4-0.1-0.8-0.2-1.3c-0.1-0.5-0.2-0.9-0.3-1.3c-0.1-0.4-0.3-0.8-0.5-1.2c-0.2-0.4-0.5-0.7-0.8-1c-0.3-0.3-0.7-0.5-1.1-0.7c-0.4-0.2-0.9-0.3-1.4-0.3c-0.2,0-0.4,0.1-0.8,0.3c-0.2,0.2-0.5,0.3-0.8,0.5c-0.3,0.2-0.6,0.3-1.1,0.5c-0.4,0.1-0.9,0.2-1.3,0.2c-0.4,0-0.9-0.1-1.3-0.2c-0.4-0.1-0.8-0.3-1.1-0.5c-0.3-0.2-0.6-0.4-0.8-0.5C6.5,9.7,6.3,9.7,6.1,9.7c-0.5,0-1,0.1-1.4,0.3c-0.4,0.2-0.8,0.4-1.1,0.7c-0.3,0.3-0.6,0.6-0.8,1c-0.2,0.4-0.4,0.8-0.5,1.2c-0.1,0.4-0.2,0.8-0.3,1.3c-0.1,0.4-0.1,0.9-0.2,1.3c0,0.4,0,0.8,0,1.2c0,1,0.3,1.9,1,2.5C3.3,19.7,4.1,20,5.2,20h9.6c1,0,1.9-0.3,2.5-0.9c0.7-0.6,1-1.5,1-2.5C18.3,16.2,18.3,15.8,18.3,15.4z M16.5,18.2c-0.4,0.4-1,0.6-1.7,0.6H5.2c-0.7,0-1.3-0.2-1.7-0.6c-0.4-0.4-0.6-0.9-0.6-1.7c0-0.4,0-0.7,0-1.1c0-0.3,0.1-0.7,0.1-1.1c0.1-0.4,0.2-0.8,0.3-1.1c0.1-0.3,0.2-0.7,0.4-1c0.2-0.3,0.4-0.6,0.6-0.8C4.5,11.3,4.7,11.1,5,11c0.3-0.1,0.6-0.2,0.9-0.2c0,0,0.1,0.1,0.2,0.1c0.2,0.2,0.5,0.3,0.8,0.5c0.3,0.2,0.8,0.4,1.3,0.6c0.5,0.2,1.1,0.3,1.7,0.3s1.1-0.1,1.7-0.3c0.5-0.2,1-0.4,1.3-0.6c0.3-0.2,0.6-0.4,0.8-0.5c0.1-0.1,0.2-0.1,0.2-0.1c0.3,0,0.6,0.1,0.9,0.2c0.3,0.1,0.6,0.3,0.8,0.5c0.2,0.2,0.4,0.5,0.6,0.8c0.2,0.3,0.3,0.6,0.4,1c0.1,0.3,0.2,0.7,0.3,1.1c0.1,0.4,0.1,0.8,0.1,1.1v0c0,0.4,0,0.7,0,1.1C17.2,17.3,17,17.8,16.5,18.2z"/>
</svg>
