<?xml version="1.0" encoding="utf-8"?>
<!-- Generator: Adobe Illustrator 19.2.1, SVG Export Plug-In . SVG Version: 6.00 Build 0)  -->
<svg version="1.1" id="Слой_1" xmlns="http://www.w3.org/2000/svg" xmlns:xlink="http://www.w3.org/1999/xlink" x="0px" y="0px"
	 viewBox="0 0 20 20" style="enable-background:new 0 0 20 20;" xml:space="preserve">
<style type="text/css">
	.st0{fill:#CBBB9D;}
</style>
<g>
	<path d="M19.4,18.8h-0.4l-0.5-2c-0.1-0.3-0.3-0.5-0.6-0.5h-2.2v-0.9h1.9c0.3,0,0.6-0.3,0.6-0.6c0-0.3-0.3-0.6-0.6-0.6v-0.3c0-3.9-3-7.2-6.9-7.5v-1h0.9c0.3,0,0.6-0.3,0.6-0.6s-0.3-0.6-0.6-0.6H8.4c-0.3,0-0.6,0.3-0.6,0.6s0.3,0.6,0.6,0.6h0.9v1c-3.8,0.3-6.9,3.5-6.9,7.5v0.3c-0.3,0-0.6,0.3-0.6,0.6c0,0.3,0.3,0.6,0.6,0.6h1.9v0.9H2.2c-0.3,0-0.5,0.2-0.6,0.5l-0.5,2H0.6C0.3,18.8,0,19,0,19.4S0.3,20,0.6,20h18.8c0.3,0,0.6-0.3,0.6-0.6S19.7,18.8,19.4,18.8z M3.8,13.8c0-3.4,2.8-6.3,6.3-6.3c3.4,0,6.3,2.8,6.3,6.3v0.3c-1.9,0-11.9,0-12.5,0V13.8z M5.6,15.3h8.8v0.9H5.6V15.3z M2.4,18.8l0.3-1.3h14.6l0.3,1.3H2.4z"/>
	<path d="M0.6,10.6h1.3c0.3,0,0.6-0.3,0.6-0.6S2.2,9.4,1.9,9.4H0.6C0.3,9.4,0,9.7,0,10S0.3,10.6,0.6,10.6z"/>
	<path d="M18.1,10.6h1.3c0.3,0,0.6-0.3,0.6-0.6s-0.3-0.6-0.6-0.6h-1.3c-0.3,0-0.6,0.3-0.6,0.6S17.8,10.6,18.1,10.6z"/>
	<path d="M3.8,4.7c0.2,0.2,0.6,0.2,0.9,0c0.2-0.2,0.2-0.6,0-0.9L3.8,2.9c-0.2-0.2-0.6-0.2-0.9,0c-0.2,0.2-0.2,0.6,0,0.9L3.8,4.7z"/>
	<path d="M15.7,4.9c0.2,0,0.3-0.1,0.4-0.2l0.9-0.9c0.2-0.2,0.2-0.6,0-0.9c-0.2-0.2-0.6-0.2-0.9,0l-0.9,0.9C14.9,4.2,15.2,4.9,15.7,4.9z"/>
	<path d="M10,2.5c0.3,0,0.6-0.3,0.6-0.6V0.6C10.6,0.3,10.3,0,10,0S9.4,0.3,9.4,0.6v1.3C9.4,2.2,9.7,2.5,10,2.5z"/>
</g>
</svg>
