<svg width="30" height="30" viewBox="0 0 30 30" fill="none" xmlns="http://www.w3.org/2000/svg">
<path d="M24.043 9.375C21.4594 9.375 19.3555 7.27249 19.3555 4.6875C19.3555 2.10251 21.4594 0 24.043 0C26.6268 0 28.7305 2.10251 28.7305 4.6875C28.7305 7.27249 26.6268 9.375 24.043 9.375ZM24.043 1.875C22.493 1.875 21.2305 3.13614 21.2305 4.6875C21.2305 6.23886 22.493 7.5 24.043 7.5C25.593 7.5 26.8555 6.23886 26.8555 4.6875C26.8555 3.13614 25.593 1.875 24.043 1.875Z" fill="#6F7D9D"/>
<path d="M24.043 30C21.4594 30 19.3555 27.8975 19.3555 25.3125C19.3555 22.7275 21.4594 20.625 24.043 20.625C26.6268 20.625 28.7305 22.7275 28.7305 25.3125C28.7305 27.8975 26.6268 30 24.043 30ZM24.043 22.5C22.493 22.5 21.2305 23.7611 21.2305 25.3125C21.2305 26.8639 22.493 28.125 24.043 28.125C25.593 28.125 26.8555 26.8639 26.8555 25.3125C26.8555 23.7611 25.593 22.5 24.043 22.5Z" fill="#6F7D9D"/>
<path d="M5.91797 19.6875C3.33412 19.6875 1.23047 17.585 1.23047 15C1.23047 12.415 3.33412 10.3125 5.91797 10.3125C8.50182 10.3125 10.6055 12.415 10.6055 15C10.6055 17.585 8.50182 19.6875 5.91797 19.6875ZM5.91797 12.1875C4.36798 12.1875 3.10547 13.4486 3.10547 15C3.10547 16.5514 4.36798 17.8125 5.91797 17.8125C7.46796 17.8125 8.73047 16.5514 8.73047 15C8.73047 13.4486 7.46796 12.1875 5.91797 12.1875Z" fill="#6F7D9D"/>
<path d="M9.18049 14.0869C8.85411 14.0869 8.53665 13.9169 8.36545 13.6145C8.1091 13.1646 8.26543 12.5919 8.71541 12.3358L20.3142 5.72315C20.7628 5.46451 21.3366 5.62198 21.5916 6.07334C21.8479 6.52332 21.6916 7.09575 21.2416 7.3521L9.64283 13.9645C9.49658 14.0469 9.33796 14.0869 9.18049 14.0869Z" fill="#6F7D9D"/>
<path d="M20.7806 24.4011C20.6231 24.4011 20.4643 24.361 20.318 24.2775L8.71921 17.6648C8.26923 17.4087 8.11313 16.8361 8.36925 16.3861C8.62423 15.935 9.19689 15.7786 9.64687 16.0361L21.2455 22.6485C21.6954 22.9049 21.8518 23.4773 21.5956 23.9273C21.4231 24.231 21.1056 24.4011 20.7806 24.4011Z" fill="#6F7D9D"/>
</svg>
