<?xml version="1.0" encoding="utf-8"?>
<!-- Generator: Adobe Illustrator 19.2.1, SVG Export Plug-In . SVG Version: 6.00 Build 0)  -->
<svg version="1.1" id="Слой_1" xmlns="http://www.w3.org/2000/svg" xmlns:xlink="http://www.w3.org/1999/xlink" x="0px" y="0px"
	 viewBox="0 0 24 24" style="enable-background:new 0 0 24 24;" xml:space="preserve">
<style type="text/css">
	.st0{fill:#333A57;}
</style>
<g>
	<path d="M9.9,7.9C9.5,7.6,8.8,7.9,8.8,8.5v7c0,0.6,0.6,0.9,1.1,0.6l5.8-3.5c0.5-0.3,0.5-1,0-1.3L9.9,7.9z M10.3,14.2V9.8L14,12L10.3,14.2z"/>
	<path d="M19.9,3.3c-4.6-0.7-11.1-0.7-15.7,0C2.3,3.6,0.8,5,0.5,6.9c-0.6,3.5-0.6,6.6,0,10.1c0.3,1.9,1.8,3.3,3.6,3.6c2.3,0.3,5.1,0.5,7.9,0.5c2.8,0,5.5-0.2,7.9-0.5c1.9-0.3,3.3-1.7,3.6-3.6c0.6-3.5,0.6-6.6,0-10.1C23.2,5,21.7,3.6,19.9,3.3z M22,16.8c-0.2,1.3-1.2,2.2-2.4,2.4c-4.5,0.7-10.8,0.7-15.3,0C3.1,19,2.2,18.1,2,16.8c-0.6-3.4-0.6-6.3,0-9.6C2.2,5.9,3.1,5,4.3,4.8c2.3-0.3,5-0.5,7.6-0.5c2.7,0,5.4,0.2,7.7,0.5C20.9,5,21.8,5.9,22,7.2C22.6,10.6,22.6,13.4,22,16.8z"/>
</g>
</svg>
