<svg width="52" height="60" viewBox="0 0 52 60" fill="none" xmlns="http://www.w3.org/2000/svg">
<path d="M49.6153 7.14844H44.9649C38.4369 7.14844 31.9631 4.73053 27.2032 0.514984C26.4284 -0.171661 25.1715 -0.171661 24.3968 0.514984C19.6368 4.73053 13.1631 7.14844 6.63502 7.14844H1.98461C0.888425 7.14844 0 7.93533 0 8.90625V30C0 37.0363 2.4911 42.9799 7.61492 48.1705C11.9087 52.5201 17.322 55.5487 21.6716 57.9822C22.7512 58.586 23.7709 59.1563 24.6991 59.7047C25.0325 59.9016 25.4165 60 25.8 60C26.1835 60 26.5675 59.9016 26.9008 59.7047C27.7996 59.1742 28.8007 58.6153 29.8602 58.0238C38.5175 53.1908 51.6 45.8871 51.6 30V8.90625C51.6 7.93533 50.7115 7.14844 49.6153 7.14844ZM47.6307 30C47.6307 43.9476 36.1365 50.3641 27.7438 55.0493C27.0714 55.4251 26.4217 55.7872 25.8005 56.1415C25.157 55.7739 24.4862 55.3986 23.7911 55.0099C15.4257 50.3293 3.96923 43.9197 3.96923 30V10.6641H6.63502C13.5822 10.6641 20.4648 8.3139 25.8 4.16519C31.1352 8.3139 38.0178 10.6641 44.9649 10.6641H47.6307V30Z" fill="#08205C"/>
<path d="M15.012 15.9498C14.8363 15.9498 14.6712 16.0338 14.5676 16.1757L7.73476 25.5443C7.5878 25.7458 7.59481 26.021 7.75184 26.2147L23.0973 45.1486C23.0973 45.1486 23.0973 45.1486 23.0973 45.1486C23.766 45.9744 24.7518 46.4498 25.8008 46.4498C26.8497 46.4498 27.8355 45.9744 28.5042 45.1486C28.5042 45.1486 28.5042 45.1486 28.5043 45.1486L43.8497 26.2147C44.0067 26.0209 44.0137 25.7458 43.8668 25.5443L37.0339 16.1757C36.9304 16.0338 36.7652 15.9498 36.5895 15.9498H15.012ZM31.0536 23.2693L31.2672 23.3991L31.0536 23.2693C31.0341 23.3013 30.9876 23.3013 30.9681 23.2693L28.1713 18.6687C28.1511 18.6353 28.1751 18.5927 28.214 18.5927H33.8068C33.8458 18.5927 33.8698 18.6353 33.8495 18.6687L31.0536 23.2693ZM25.849 39.9883C25.8441 40.0064 25.8369 40.0129 25.8322 40.0163C25.8255 40.021 25.8146 40.0253 25.8007 40.0253C25.7868 40.0253 25.7759 40.021 25.7693 40.0163C25.7646 40.0129 25.7573 40.0064 25.7525 39.9883L22.3044 27.2271C22.2959 27.1954 22.3198 27.1641 22.3527 27.1641H29.2478C29.2807 27.1641 29.3047 27.1954 29.2961 27.2271L25.849 39.9883ZM28.6403 24.4453C28.6606 24.4786 28.6366 24.5212 28.5976 24.5212H23.0049C22.9659 24.5212 22.9419 24.4786 22.9621 24.4453L25.7581 19.8447L25.5444 19.7148L25.7581 19.8447C25.7775 19.8126 25.8241 19.8126 25.8435 19.8447L28.6403 24.4453ZM20.6333 23.2693C20.6138 23.3013 20.5673 23.3013 20.5479 23.2693L17.751 18.6687C17.7308 18.6353 17.7548 18.5927 17.7938 18.5927H23.3865C23.4255 18.5927 23.4495 18.6353 23.4293 18.6687L20.6333 23.2693ZM18.2201 24.4453C18.2403 24.4786 18.2163 24.5212 18.1773 24.5212H11.8026C11.7617 24.5212 11.7381 24.4748 11.7622 24.4418L15.2392 19.6752C15.2603 19.6464 15.3038 19.6482 15.3224 19.6787L18.2201 24.4453ZM36.2792 19.6787C36.2977 19.6482 36.3413 19.6464 36.3623 19.6752L39.8394 24.4418C39.8635 24.4748 39.8399 24.5212 39.799 24.5212H33.4242C33.3852 24.5212 33.3612 24.4786 33.3815 24.4453L36.2792 19.6787ZM11.9435 27.2456C11.917 27.2129 11.9403 27.1641 11.9823 27.1641H19.569C19.5916 27.1641 19.6114 27.1793 19.6173 27.2011L23.411 41.2433C23.4165 41.2634 23.4128 41.2727 23.4106 41.2773C23.4071 41.2845 23.399 41.2939 23.3855 41.3008C23.372 41.3077 23.3597 41.3087 23.3518 41.3074C23.3467 41.3065 23.3371 41.304 23.3239 41.2878L11.9435 27.2456ZM28.2776 41.2878C28.2645 41.304 28.2548 41.3065 28.2498 41.3074C28.2419 41.3087 28.2295 41.3077 28.216 41.3008C28.2025 41.2939 28.1945 41.2845 28.191 41.2773C28.1887 41.2727 28.185 41.2634 28.1905 41.2433L31.9843 27.2011C31.9902 27.1793 32.01 27.1641 32.0325 27.1641H39.6192C39.6613 27.1641 39.6845 27.2129 39.658 27.2456L28.2776 41.2878Z" fill="#08205C" stroke="#08205C" stroke-width="0.5"/>
</svg>
