<svg width="58" height="80" viewBox="0 0 58 80" fill="none" xmlns="http://www.w3.org/2000/svg">
<g clip-path="url(#clip0)">
<path d="M38.6899 63.673C39.2526 61.8152 39.7796 60.1197 40.2888 58.5297C37.3857 59.2841 34.3844 60.0954 31.4367 60.9796C33.9735 61.8152 36.421 62.7157 38.6899 63.673ZM40.8247 56.8747C41.5751 54.587 42.3075 52.5021 43.0578 50.4578C43.6652 48.819 44.2816 47.2128 44.9515 45.5497C43.6652 43.0024 42.3611 40.1955 41.1106 37.2344C40.0208 34.6628 38.9668 31.9694 38.0021 29.2518C36.9123 28.3188 35.8761 27.4183 34.8757 26.5503C32.7498 24.7088 30.7936 23.0133 28.9713 21.48C27.1491 23.0133 25.2018 24.7088 23.067 26.5503C22.0665 27.4183 21.0304 28.3188 19.9406 29.2518C18.9759 31.9776 17.9219 34.6628 16.8321 37.2344C15.5816 40.1874 14.2774 43.0024 12.9912 45.5497C13.6611 47.2209 14.2864 48.8272 14.8848 50.4578C15.6352 52.5021 16.3676 54.5789 17.118 56.8747C20.9857 57.8726 25.0411 58.9678 28.9624 60.1927C32.8838 58.9678 36.948 57.8726 40.8069 56.8747H40.8247ZM45.7465 43.6027C46.479 41.8099 47.2829 39.9197 48.1761 37.8348C45.3624 35.5227 42.8167 33.3729 40.4764 31.3691C41.1642 33.1863 41.8788 34.9792 42.6112 36.7152C43.6385 39.1328 44.6925 41.4529 45.7465 43.6027ZM27.7923 20.4822C26.3095 19.2491 24.916 18.1296 23.5761 17.1074C22.8615 20.1415 21.9594 23.2648 20.9321 26.3881L21.9683 25.4876C24.0674 23.6704 25.9879 22.0073 27.7923 20.4822ZM12.0354 47.4075C10.5347 50.2306 9.07874 52.6563 7.77459 54.4978C9.11446 54.8385 10.3739 55.1549 11.687 55.4875C12.8572 55.7796 14.0631 56.0878 15.3047 56.3961C14.6615 54.4653 14.0273 52.6725 13.3753 50.9121C12.9465 49.7358 12.4999 48.5838 12.0354 47.3994V47.4075ZM17.6986 63.965C17.0465 61.8071 16.4391 59.8682 15.8495 58.051C14.2774 57.6454 12.741 57.2641 11.2583 56.891C9.88266 56.5421 8.56065 56.2095 7.40836 55.9175V63.9569H17.6896L17.6986 63.965ZM11.2672 45.4767C10.4633 43.481 9.57895 41.3799 8.57852 39.0435L1.80771 46.4745L6.52405 53.5648C7.97111 51.5124 9.60575 48.7298 11.2672 45.4767ZM9.64148 35.977C12.9197 33.2674 15.8674 30.7526 18.5561 28.4405C19.8781 24.6763 21.0393 20.8472 21.9236 17.1561L9.64148 23.1431V35.977ZM28.9803 19.4844C30.6774 18.0728 32.2674 16.7991 33.7949 15.6553L28.9624 2.95114L24.1389 15.6309C25.6753 16.7829 27.2742 18.0647 28.9803 19.4844ZM36.0459 17.1723C36.9302 20.8635 38.0914 24.6844 39.4134 28.4405C42.1021 30.7526 45.0498 33.2674 48.328 35.977V23.1431L36.0548 17.1723H36.0459ZM46.6934 45.4767C48.3548 48.7136 49.9716 51.4799 51.4186 53.5324L56.1171 46.4664L49.382 39.0435C48.3816 41.3799 47.5062 43.481 46.6934 45.4767ZM50.5075 55.9337C49.3731 56.2257 48.06 56.5502 46.7023 56.891C45.2284 57.2641 43.692 57.6454 42.111 58.051C41.5215 59.8601 40.9141 61.8071 40.262 63.965H50.5075V55.9337ZM28.9803 61.726C25.8807 62.6995 22.8794 63.7622 20.1461 64.9061L28.9624 72.2722L37.7877 64.898C35.0633 63.7541 32.0709 62.7076 28.9803 61.7341V61.726ZM17.6718 58.5216C18.1809 60.1116 18.7079 61.8071 19.2707 63.6649C21.5395 62.7076 23.987 61.8152 26.5238 60.9715C23.5761 60.0954 20.5838 59.276 17.6718 58.5216ZM42.6648 56.3961C43.8975 56.0797 45.1123 55.7796 46.2825 55.4875C47.5955 55.1549 48.8639 54.8385 50.1949 54.4978C48.8818 52.6563 47.4258 50.2306 45.9341 47.4075C45.4696 48.5838 45.0319 49.7439 44.5942 50.9202C43.9422 52.6806 43.3079 54.4734 42.6648 56.4042V56.3961ZM37.0374 26.38C36.0101 23.2648 35.1079 20.1334 34.3933 17.0993C33.0535 18.1215 31.6511 19.241 30.1772 20.4741C31.9816 21.9992 33.9021 23.6623 36.0012 25.4795L37.0374 26.38ZM17.4931 31.3529C15.1528 33.3567 12.5981 35.5065 9.79333 37.8185C10.6866 39.9034 11.4816 41.7936 12.223 43.5865C13.277 41.4367 14.331 39.1165 15.3583 36.699C16.0907 34.9629 16.8143 33.1701 17.4931 31.3529ZM13.8576 69.4247L17.118 65.4172H8.31948C8.66784 65.766 9.02514 66.1067 9.4003 66.4393C10.6776 67.5589 12.1604 68.5648 13.8576 69.4247ZM18.8241 65.7741L15.3047 70.0981C18.431 71.4204 22.2363 72.2803 26.8454 72.475L18.8241 65.7741ZM3.03146 56.4123L5.54148 54.9034L1.68265 49.0949C1.85237 51.4881 2.26326 53.9867 3.04039 56.4123H3.03146ZM5.80052 56.4935L3.54061 57.8563C4.13015 59.3896 4.87154 60.8904 5.80052 62.302V56.4935ZM3.78178 35.4903L8.0247 36.626V25.804C6.24714 29.1057 4.82688 32.367 3.78178 35.4903ZM7.43516 37.9889L3.33516 36.8937C2.55803 39.4573 2.03995 41.9153 1.78984 44.1868L7.43516 37.9889ZM40.0744 9.5628C40.0923 9.57903 40.1101 9.60336 40.128 9.61959C43.8439 13.6028 46.9881 17.8294 49.5607 22.0641C49.784 22.1939 49.9269 22.4211 49.9269 22.6807L50.0877 22.9565C52.6334 27.2967 54.5718 31.6368 55.8759 35.7255C55.8849 35.7417 55.8938 35.7661 55.8938 35.7823C55.9027 35.8066 55.9027 35.8229 55.9117 35.8472C57.1086 39.6195 57.7696 43.1728 57.8857 46.3204C57.8857 46.3529 57.8857 46.3853 57.8857 46.4178C57.9125 47.1884 57.9036 47.9429 57.8589 48.6568C57.6892 51.6016 57.1711 54.7087 56.1082 57.7022C56.0992 57.7265 56.0903 57.7509 56.0814 57.7752C55.1613 60.355 53.8304 62.8455 51.9724 65.0683C51.9456 65.1008 51.9188 65.1332 51.8921 65.1657C51.2043 65.9769 50.445 66.7557 49.6143 67.4859C45.1748 71.3717 38.5827 73.9758 28.9445 73.9758C19.2975 73.9758 12.7053 71.3717 8.27481 67.4859C7.44409 66.7557 6.68483 65.9769 5.99703 65.1657C5.97024 65.1332 5.94344 65.1089 5.91664 65.0683C1.87917 60.2414 0.342782 54.1652 0.0301461 48.6568C-0.0145163 47.9348 -0.0145163 47.1884 0.00334867 46.4178C0.00334867 46.3853 0.00334867 46.3529 0.00334867 46.3204C0.244525 39.7331 2.88854 31.3529 7.81032 22.9646L8.01577 22.6158C8.03364 22.4211 8.14083 22.2426 8.31948 22.1128C10.892 17.8619 14.0541 13.619 17.779 9.61959C17.7968 9.60336 17.8058 9.58714 17.8236 9.57091C20.9589 6.20424 24.5051 3.01604 28.4443 0.136108C28.748 -0.082929 29.1768 -0.0748166 29.4626 0.14422C33.3929 3.02415 36.9302 6.21235 40.0655 9.57091L40.0744 9.5628ZM39.5117 11.2259L35.9208 15.4443L46.8988 20.7823C44.7818 17.5374 42.3164 14.3167 39.5117 11.234V11.2259ZM34.9472 14.2112L38.4576 10.0901C36.0905 7.59147 33.4912 5.19018 30.6685 2.95925L34.9472 14.2112ZM54.3931 57.8158L52.1154 56.4448V62.2939C53.0533 60.8742 53.8036 59.3653 54.3931 57.8077V57.8158ZM52.4012 54.8628L54.9023 56.3637C55.6616 53.9461 56.0724 51.4718 56.2422 49.0868L52.4012 54.8628ZM42.6202 70.09L39.1008 65.766L31.0794 72.4669C35.6886 72.2641 39.4938 71.4123 42.6202 70.09ZM40.8069 65.4091L44.0672 69.4166C45.7644 68.5567 47.2382 67.5508 48.5245 66.4312C48.8997 66.0986 49.2659 65.7579 49.6053 65.4091H40.8069ZM54.5897 36.9018L50.5254 37.9889L56.135 44.1787C55.8849 41.9072 55.3668 39.4654 54.5897 36.9018ZM49.9358 36.626L54.143 35.4984C53.1069 32.3994 51.7045 29.1544 49.9358 25.877V36.626ZM19.4672 10.082L22.9777 14.2031L27.2563 2.95114C24.4336 5.19018 21.8343 7.58336 19.4672 10.082ZM21.9951 15.4362L18.4042 11.2177C15.5905 14.3086 13.1251 17.5374 11.0081 20.7905L21.9951 15.4362Z" fill="#6F7D9D"/>
</g>
<defs>
<clipPath id="clip0">
<rect width="58" height="80" fill="white"/>
</clipPath>
</defs>
</svg>
