<svg width="88" height="80" viewBox="0 0 88 80" fill="none" xmlns="http://www.w3.org/2000/svg">
<g clip-path="url(#clip0)">
<path fill-rule="evenodd" clip-rule="evenodd" d="M48.5756 71.6224L48.5689 71.6424L48.3419 71.6224L48.2751 71.609L48.2483 71.6023L48.2417 71.6157L48.1214 71.5489C48.1014 71.5356 48.0814 71.5222 48.0613 71.5088L48.0012 71.4621L47.9545 71.4153L47.901 71.3552L9.86364 25.8105L9.83692 25.7838H9.83024L9.74341 25.6636L9.7167 25.6168L9.68998 25.5634L9.64991 25.4565L9.62319 25.343L9.60983 25.2228V25.1426L9.61651 25.0758L9.62319 25.0157L9.63655 24.9556L9.64991 24.8955L9.65659 24.8688L9.67662 24.8087L9.71002 24.7285L9.75677 24.6484L9.79017 24.6016L9.83024 24.5548L9.86364 24.5215L20.5168 14.3225C20.5368 14.3025 20.5502 14.2891 20.5702 14.2757L29.6605 5.57289C29.8007 5.43931 29.9744 5.36584 30.1681 5.36584H66.7561C66.9565 5.36584 67.1435 5.45266 67.2837 5.59292L76.3473 14.2691C76.3673 14.2891 76.3807 14.3025 76.4007 14.3158L87.0405 24.5014C87.3611 24.8087 87.4012 25.3497 87.1407 25.7103C87.1206 25.737 87.1006 25.7638 87.0739 25.7905L49.0632 71.3085C48.943 71.4754 48.7693 71.589 48.5689 71.6157L48.5756 71.6224ZM3.77899 3.91647V76.2176H83.3002L82.1113 75.5564C81.7239 75.3426 81.5837 74.8484 81.7974 74.461C82.0111 74.0736 82.5054 73.9333 82.8928 74.1471L86.7399 76.2844C87.0271 76.4113 87.2141 76.6985 87.2141 77.0191C87.2141 77.3397 87.0271 77.6269 86.7399 77.7538L82.8928 79.8978C82.5054 80.1115 82.0178 79.9712 81.7974 79.5838C81.5837 79.1965 81.7239 78.7089 82.1113 78.4885L83.3002 77.8272H2.97082C2.52332 77.8272 2.16265 77.4666 2.16265 77.0191V3.90979L1.50142 5.09867C1.28769 5.48606 0.793437 5.62632 0.40605 5.41259C0.0186629 5.19886 -0.121598 4.70461 0.0921329 4.31722L2.22944 0.470065C2.35634 0.182864 2.64354 -0.00415039 2.96414 -0.00415039C3.28474 -0.00415039 3.57194 0.182864 3.69884 0.470065L5.84283 4.31722C6.05656 4.70461 5.9163 5.19218 5.52891 5.41259C5.14152 5.62632 4.65395 5.48606 4.43354 5.09867L3.77231 3.90979L3.77899 3.91647ZM37.849 15.3711L35.1707 24.2944H46.4717L37.849 15.3711ZM35.1974 26.0443L43.8335 52.8408L47.5604 26.0443H35.1974ZM25.7331 32.857L37.0475 55.813L46.5786 67.2275L43.4394 56.7748L25.7265 32.857H25.7331ZM32.7128 50.6233L20.5969 26.0443H12.188L32.7128 50.6233ZM22.7142 26.0443L41.8899 51.9391L33.541 26.0443H22.7142ZM33.5276 24.2944L36.0724 15.8186L23.8029 24.2944H33.5276ZM60.8585 15.8186L63.4032 24.2944H73.1279L60.8585 15.8186ZM63.3898 26.0376L55.041 51.9324L74.2166 26.0376H63.3898ZM76.3339 26.0376L64.218 50.6166L84.7429 26.0376H76.3339ZM71.1977 32.8503L53.4914 56.7547L50.3456 67.2209L59.87 55.8263L71.1977 32.8503ZM53.0974 52.8341L61.7334 26.0376H49.3704L53.0974 52.8341ZM61.7601 24.2944L59.0818 15.3711L50.4591 24.2944H61.7601ZM48.4621 68.0223L51.9953 56.2605L48.4621 30.8332L44.9288 56.2605L48.4621 68.0223ZM76.6545 16.8605V24.2944H84.4223L76.6545 16.8605ZM58.1534 13.9551L48.4621 7.2627L38.7707 13.9551L48.4621 23.9804L58.1534 13.9551ZM20.2697 24.2944V16.8605L12.5019 24.2944H20.2697ZM21.8326 15.3644V23.6064L36.206 13.6746L30.148 7.40296L21.8326 15.3644ZM37.5819 12.7262L45.7103 7.10908H32.1518L37.5752 12.7262H37.5819ZM51.2072 7.10908L59.3356 12.7262L64.7591 7.10908H51.2005H51.2072ZM60.7115 13.6746L75.0916 23.6064V15.3644L66.7761 7.40296L60.7182 13.6746H60.7115Z" fill="#6F7D9D"/>
</g>
<defs>
<clipPath id="clip0">
<rect width="88" height="80" fill="white"/>
</clipPath>
</defs>
</svg>
