<svg width="50" height="43" viewBox="0 0 50 43" fill="none" xmlns="http://www.w3.org/2000/svg">
<path fill-rule="evenodd" clip-rule="evenodd" d="M2.70998 34.8619C2.70998 34.8619 14.878 35.7864 24.9462 42.0918C37.7782 35.1577 47.29 34.8619 47.29 34.8619C44.9749 17.3881 50 1.87432 50 1.87432C50 1.87432 46.3388 6.97778 43.5571 9.45555C40.7753 11.9333 37.4192 13.9858 38.0474 17.3881C38.6755 20.7904 38.514 22.8799 37.4192 23.8599C37.4192 23.8599 42.4444 23.7119 43.5391 21.604C43.5391 21.604 44.0955 27.6505 35.7322 28.3346C33.5607 27.8354 31.7301 26.615 30.3302 24.8399C28.2843 22.2512 27.6561 17.8689 29.379 17.5545C31.1019 17.2217 32.5377 19.9768 32.5377 19.9768C32.8428 18.6825 36.7911 18.8489 37.0962 14.1522C37.4013 9.45555 29.7021 6.70042 28.4458 5.40606C27.4049 4.3336 25.6999 1.50451 25.1615 0.579968V0.284116C25.1615 0.284116 25.1256 0.339588 25.0718 0.432042C25.0179 0.321097 25 0.265625 25 0.265625L24.9821 0.561478C24.4436 1.48602 22.7387 4.31511 21.6978 5.38757C20.4415 6.68193 12.7243 9.43706 13.0474 14.1337C13.3525 18.8304 17.2828 18.664 17.6059 19.9583C17.6059 19.9583 19.0596 17.2032 20.7645 17.536C22.4695 17.8504 21.8413 22.2327 19.8134 24.8214C18.4135 26.5965 16.565 27.8169 14.3934 28.3162C5.90452 27.669 6.44293 21.5855 6.44293 21.5855C7.53769 23.6935 12.5628 23.8414 12.5628 23.8414C11.4681 22.8614 11.3065 20.7719 11.9347 17.3696C12.5808 13.9673 9.24264 11.9148 6.44293 9.43706C3.66116 6.95929 0 1.85583 0 1.85583C0 1.85583 5.02513 17.3696 2.70998 34.8619Z" fill="#6F7D9D"/>
</svg>
