<svg width="239" height="99" viewBox="0 0 239 99" fill="none" xmlns="http://www.w3.org/2000/svg"><path fill-rule="evenodd" clip-rule="evenodd" d="M84.022 58.189c2.824-.578 4.188-.587 4.758-.544v-.009c-4.792-.862-8.592-.008-12.599 3.452-2.132 1.838-3.134 4.072-4.732 6.203-1.925 2.58-3.963 2.537-6.52 2.77 3.412 2.08 8.049.544 10.311-2.105 2.764-3.253 5.432-9.086 8.782-9.767z" fill="#fff"/><path fill-rule="evenodd" clip-rule="evenodd" d="M89.445 59.647a40.29 40.29 0 01-.492-1.441c-3.282-.285-6.865.95-8.16 3.762-2.237 4.875 3.255 9.327 7.884 7.912-3.135.673-6.511-2.787-5.726-5.893.26 2.649 2.617 4.607 5.233 3.675-5.44-1.993-3.23-7.032 1.261-8.015zM88.279 55.868a37.117 37.117 0 01-.726-3.762c-6.528-.354-13.946 1.605-19.654 7.619-5.855 6.17-12.063 13.702-21.105 13.054-1.994-.138-8.376-3.037-4.317-8.127 1.08-1.346 4.274-1.062 4.93.707.925 2.511-2.08 2.149-3.065.829-.06-.078 2.323 3.744 4.344.793 1.286-1.88-2.565-4.995-5.726-3.882 1.952-2.813 3.385-.423 4.69.077 1.71.656 4.127-.293 4.723 1.64.026-2.865-.674-6.066-3.653-6.929-2.09-.604-5.777.544-6.157 3.072-.19-.69.268-3.512-3.549-3.09 3.325 2.633-.535 5.764-.751 8.646-.242 3.193 2.184 6.083 5.051 7.196 6.814 2.65 11.511-1.13 16.675-5.246 7.038-5.608 14.689-12.873 23.886-13.089 1.424-.043 2.927.138 4.404.492zM90.741 62.701c-1.209 1.89-1.313 5.022-.233 6.454 1.278 1.708 4.214 2.554 6.718 2.442L90.741 62.7zM154.782 58.189c-2.824-.578-4.189-.587-4.759-.544 0 0 0-.009.009-.009 4.793-.862 8.592-.008 12.599 3.452 2.133 1.838 3.135 4.072 4.732 6.203 1.934 2.58 3.964 2.537 6.52 2.77-3.411 2.08-8.048.544-10.311-2.105-2.772-3.253-5.44-9.086-8.79-9.767z" fill="#fff"/><path fill-rule="evenodd" clip-rule="evenodd" d="M151.082 59.647c.173-.475.337-.958.492-1.441 3.273-.285 6.865.95 8.161 3.762 2.236 4.875-3.256 9.327-7.884 7.912 3.134.673 6.502-2.787 5.725-5.893-.259 2.649-2.617 4.607-5.233 3.675 5.44-1.993 3.221-7.032-1.261-8.015z" fill="#fff"/><path fill-rule="evenodd" clip-rule="evenodd" d="M150.523 55.868c.303-1.216.544-2.476.726-3.762 6.528-.354 13.946 1.605 19.654 7.619 5.855 6.17 12.072 13.702 21.105 13.054 1.994-.138 8.376-3.037 4.317-8.127-1.079-1.346-4.274-1.062-4.922.707-.933 2.511 2.081 2.149 3.066.829.06-.078-2.323 3.744-4.344.793-1.287-1.88 2.556-4.995 5.725-3.882-1.951-2.813-3.385-.423-4.697.077-1.71.656-4.128-.293-4.715 1.64-.026-2.865.673-6.066 3.653-6.929 2.089-.604 5.777.544 6.157 3.072.189-.69-.268-3.512 3.54-3.09-3.316 2.633.535 5.764.76 8.646.242 3.193-2.185 6.083-5.052 7.196-6.813 2.65-11.511-1.13-16.675-5.246-7.037-5.608-14.688-12.873-23.885-13.089-1.433-.043-2.936.138-4.413.492zM148.063 62.701c1.209 1.89 1.313 5.022.233 6.454-1.278 1.708-4.214 2.554-6.718 2.442l6.485-8.896zM10.164 95.765c-.164.12-.26.147-.311.147-.052 0-.199 0-.328-.294-.104-.241-.156-.578-.156-1.01v-5.832c0-.776.104-1.113.199-1.26.12-.198.31-.31.57-.354l.13-.025v-.423H3.885v.431l.138.017c.112.01.181.044.225.104a.48.48 0 01.069.276.874.874 0 01-.156.518c-.63.94-1.148 2.062-1.546 3.322-.319.992-.544 2.045-.682 3.123a2.81 2.81 0 01-.259.863c-.103.233-.276.518-.466.518-.078 0-.155-.035-.233-.112l-.199-.19L0 98.862.406 99l.052-.146c.267-.716.647-1.277 1.148-1.665.527-.423 1.183-.63 1.952-.63h3.998c.768 0 1.425.215 1.969.647.492.388.872.94 1.131 1.656l.052.147.397-.138-.76-3.236-.181.13zM7.539 88.81v5.703c0 .422-.095.699-.277.845-.12.087-.328.13-.613.13H4.266c-.492 0-.665-.07-.717-.112-.147-.113-.224-.397-.224-.829 0-1.156.198-2.347.587-3.529.337-1.01.742-1.872 1.217-2.545.164-.242.389-.431.657-.57.267-.138.535-.206.785-.206.45 0 .752.094.864.258.026.07.104.268.104.855zM17.563 90.2c.57-.328.924-.544 1.062-.656.518-.414.777-.897.777-1.441 0-.595-.32-1.018-.915-1.217-.328-.112-.803-.172-1.46-.172H11.82v.423l.13.017c.276.043.466.147.578.328.087.138.182.466.182 1.277v5.832c0 .76-.104 1.07-.19 1.191-.121.173-.311.276-.57.32l-.13.017v.422h3.61c.414 0 .915-.008 1.528-.043a4.943 4.943 0 001.702-.362c1.113-.449 1.683-1.329 1.683-2.623 0-.846-.336-1.605-1.001-2.243-.458-.423-1.054-.786-1.78-1.07zm-1.313-.449c-.457.25-1.027.483-1.71.707V88.75c0-.147.01-.32.026-.509.026-.224.06-.293.078-.31a.531.531 0 01.38-.182c.216-.026.5-.043.838-.043.466 0 .82.035 1.045.095.483.138.535.406.535.587.009.457-.397.923-1.192 1.363zm-.786 5.824c-.587 0-.734-.103-.777-.147-.052-.06-.138-.25-.138-.837v-3.14l1.917-.76c.561.26 1.02.596 1.373 1.019.415.491.622 1.035.622 1.622a2.3 2.3 0 01-.25 1.018c-.165.328-.372.587-.64.76a2.334 2.334 0 01-.94.362c-.364.069-.76.103-1.167.103zM26.959 86.532c-1.417 0-2.617.492-3.575 1.458-.959.967-1.443 2.2-1.443 3.676 0 .69.13 1.372.398 2.01a5.217 5.217 0 001.122 1.692c.475.465 1.01.82 1.606 1.044a5.289 5.289 0 001.892.336c1.364 0 2.556-.466 3.54-1.39 1.019-.966 1.537-2.165 1.537-3.589 0-1.518-.484-2.786-1.442-3.761-.959-.984-2.185-1.476-3.636-1.476zm.319 9.146c-1.036 0-1.857-.483-2.504-1.467-.579-.871-.872-1.906-.872-3.071 0-.975.233-1.812.69-2.477.493-.724 1.166-1.078 2.047-1.078.915 0 1.727.457 2.392 1.355.682.914 1.028 2.01 1.028 3.244 0 .957-.242 1.769-.726 2.424-.5.725-1.183 1.07-2.055 1.07zM40.534 87.015c-.354-.198-.872-.293-1.58-.293h-5.216v.422l.138.018c.337.043.553.207.657.517.069.199.103.561.103 1.088v5.832c0 .492-.034.837-.112 1.027-.104.276-.32.431-.648.483l-.13.017v.423h3.62v-.431l-.139-.009c-.337-.034-.544-.198-.656-.5-.07-.199-.104-.57-.104-1.105v-2.372a19.673 19.673 0 001.805-.622c.855-.353 1.546-.75 2.038-1.182.647-.56.976-1.173.976-1.829.008-.707-.25-1.208-.752-1.484zm-4.058 1.915c0-.733.095-.94.138-.992.069-.086.285-.241 1.002-.241.621 0 1.096.077 1.416.233.276.138.414.405.414.793 0 .57-.397 1.096-1.183 1.57-.44.268-1.036.536-1.787.794V88.93zM50.578 92.874c-.414.898-.958 1.58-1.606 2.028-.648.448-1.45.673-2.383.673-.587 0-.967-.104-1.114-.31-.06-.087-.156-.337-.156-1.131v-3.719h.173c.846 0 1.425.07 1.71.199.423.198.743.664.95 1.38l.052.164.388-.155-.587-3.555-.406.147v.112c0 .414-.181.543-.32.612-.155.07-.423.104-.802.104h-1.158v-.665c0-.578.113-.793.199-.871.095-.086.337-.181.907-.181.734 0 1.399.164 1.977.483.64.354 1.088.872 1.347 1.527l.07.181.362-.241-.708-3.27-.207.215a.309.309 0 01-.147.095c-.035.009-.12.026-.294.026h-6.243v.423l.13.026c.336.06.552.233.664.552.07.199.104.552.104 1.061v5.833c0 .483-.034.82-.112 1.018-.104.276-.32.44-.648.492l-.13.026v.423h6.477c.216 0 .32.008.363.017.034.008.078.043.112.103l.181.268 1.322-4.064-.424-.13-.043.104zM61.017 95.79c-.008.018-.026.026-.069.026-.043 0-.172 0-.32-.241-.146-.242-.224-.604-.224-1.079v-5.832c0-.76.104-1.07.19-1.191.121-.173.311-.276.57-.32l.13-.025v-.423h-3.636v.414l.138.017c.346.044.562.207.665.51.07.198.104.569.104 1.104v5.703c0 .638-.104.863-.164.932-.052.052-.242.181-.959.181h-1.528c-.691 0-.916-.138-.985-.224-.043-.043-.138-.233-.138-.898v-5.703c0-.517.035-.888.113-1.104.103-.302.319-.466.656-.51l.138-.017v-.414h-3.636v.423l.13.017c.337.052.553.207.665.492.069.181.104.526.104 1.018v5.833c0 .776-.104 1.113-.199 1.26-.12.198-.31.31-.57.353l-.13.018v.422h6.373c.769 0 1.425.216 1.97.648.491.388.871.94 1.13 1.656l.052.147.397-.138-.777-3.313-.19.258zM73.314 86.532c-1.416 0-2.616.492-3.575 1.458-.959.967-1.442 2.2-1.442 3.676 0 .699.13 1.372.397 2.01a5.127 5.127 0 001.123 1.692c.475.465 1.01.82 1.606 1.044a5.289 5.289 0 001.891.336c1.364 0 2.556-.466 3.54-1.39 1.02-.966 1.538-2.173 1.538-3.589 0-1.518-.484-2.786-1.442-3.761-.968-.984-2.185-1.476-3.636-1.476zm.32 9.146c-1.037 0-1.857-.483-2.496-1.467-.579-.871-.872-1.906-.872-3.071 0-.975.233-1.812.69-2.477.493-.724 1.166-1.078 2.047-1.078.915 0 1.719.457 2.392 1.355.682.914 1.028 2.01 1.028 3.244 0 .957-.242 1.769-.726 2.424-.518.725-1.191 1.07-2.064 1.07zM86.89 91.13c-1.001-.715-2.374-1.086-4.093-1.112v-1.855c0-.181.044-.285.121-.31.07-.027.32-.07 1.183-.07.82 0 1.486.147 1.987.44.492.293.863.768 1.105 1.424l.052.146.405-.138-.785-3.347-.199.284a.244.244 0 01-.13.095c-.069.017-.172.026-.293.026h-6.148v.423l.13.017c.327.052.535.216.647.51.069.18.103.517.103 1V94.6c0 .76-.103 1.07-.19 1.191-.12.173-.31.276-.57.32l-.13.016v.423h4.275c1.33 0 2.35-.259 3.014-.768.64-.483.959-1.199.959-2.122-.009-1.001-.492-1.855-1.442-2.528zm-.483 2.494c0 .57-.224 1.027-.674 1.39-.457.37-1.096.56-1.917.56-.794 0-.932-.069-.95-.077-.017-.018-.086-.147-.086-.846v-3.667c1.21.026 2.15.31 2.79.854.57.475.837 1.062.837 1.786zM96.596 87.015c-.354-.198-.872-.293-1.58-.293h-5.207v.422l.138.018c.337.043.544.207.656.517.07.199.104.561.104 1.088v5.832c0 .492-.035.837-.113 1.027-.112.276-.32.431-.647.483l-.13.017v.423h3.618v-.431l-.146-.009c-.337-.034-.544-.198-.648-.5-.07-.199-.104-.57-.104-1.105v-2.372a22.658 22.658 0 001.805-.622c.864-.353 1.546-.75 2.038-1.182.648-.56.976-1.173.976-1.829 0-.707-.25-1.208-.76-1.484zm-4.059 1.915c0-.733.095-.94.13-.992.069-.086.285-.241 1.002-.241.621 0 1.096.077 1.407.233.277.138.423.405.423.793 0 .561-.397 1.096-1.183 1.57-.44.268-1.036.536-1.787.794V88.93h.008zM104.947 87.136l.129.026c.242.043.354.19.354.466 0 .138-.026.302-.069.474a4.583 4.583 0 01-.198.57l-1.365 3.443-1.9-3.443c-.172-.302-.302-.526-.362-.673-.113-.25-.164-.457-.164-.604 0-.155.069-.207.164-.224l.129-.026v-.414h-3.333v.43l.138.018c.207.026.423.181.64.457.12.164.336.5.638 1.027l3.187 5.48c-.173.405-.354.733-.553.974-.242.302-.501.466-.812.51-.008 0-.043.008-.129.008a.693.693 0 01-.579-.285c-.181-.233-.268-.604-.268-1.096 0-.155.018-.336.044-.535l.077-.586-.414-.043-1.105 2.812.077.07c.579.543 1.244.828 1.969.828.138 0 .294-.018.449-.044.553-.086 1.045-.388 1.477-.906.337-.405.665-.983.976-1.716l2.357-5.549c.155-.37.259-.612.328-.724.225-.414.484-.647.769-.682l.138-.017v-.423h-2.763v.397h-.026zM114.012 87.162h.155c.337 0 .536.147.639.457.07.208.104.596.104 1.148v1.726a7.224 7.224 0 01-1.105.448c-.406.13-.812.199-1.209.199-.449 0-.786-.13-1.045-.406-.25-.267-.389-.638-.389-1.104v-.975c0-.777.104-1.087.19-1.217.121-.172.303-.267.562-.293l.138-.017v-.432h-3.618v.449l.138.017c.267.035.449.138.57.328.086.138.19.475.19 1.286v1.01c0 .758.25 1.397.734 1.889.492.492 1.122.742 1.891.742.544 0 1.096-.095 1.632-.276a8.012 8.012 0 001.304-.578v3.045c0 .518-.043.89-.112 1.087-.104.285-.303.423-.622.423h-.156v.44h3.619v-.423l-.139-.017c-.336-.043-.544-.215-.656-.517-.069-.199-.104-.561-.104-1.096v-5.833c0-.483.035-.828.113-1.027.112-.284.319-.44.647-.483l.139-.017v-.423h-3.619v.44h.009zM127.458 95.67c-.078-.173-.138-.345-.198-.51l-2.358-7.126c-.034-.095-.06-.199-.086-.294a1.046 1.046 0 01-.035-.224c0-.198.087-.31.285-.37l.112-.035v-.406h-3.367v.414l.121.026c.103.026.181.06.233.12.051.053.069.105.069.19 0 .121-.018.225-.043.32-.035.103-.087.267-.156.474l-2.219 6.152c-.104.268-.19.5-.268.69a3.475 3.475 0 01-.328.613c-.095.138-.181.233-.268.276a1.454 1.454 0 01-.362.138l-.121.026v.406h3.126v-.44h-.156a.574.574 0 01-.423-.173c-.121-.112-.173-.267-.173-.457 0-.138.018-.285.052-.423.035-.147.087-.336.156-.552l.76-2.192a3.794 3.794 0 012.513 1.01c.673.613 1.01 1.26 1.01 1.924 0 .242-.043.44-.138.587-.087.138-.216.224-.423.276l-.121.034v.406h3.437v-.406l-.113-.034a.773.773 0 01-.518-.44zm-3.109-3.607a3.526 3.526 0 00-.854-.492 4.058 4.058 0 00-1.365-.284l1.028-2.839 1.191 3.615zM131.232 87.144l.138.018c.112.008.182.043.225.103.052.06.069.156.069.276a.918.918 0 01-.156.527c-.613.923-1.122 2.01-1.519 3.235a19.93 19.93 0 00-.7 3.055 14.39 14.39 0 00-.164 2.044v.156h2.763v-.423l-.138-.017c-.371-.043-.648-.224-.846-.561-.164-.285-.242-.621-.242-1.01 0-1.156.199-2.338.587-3.528.337-1.01.743-1.873 1.218-2.546.19-.276.414-.474.656-.595.251-.12.501-.181.786-.181.432 0 .708.086.829.267.06.095.138.32.138.854v5.704c0 .517-.043.888-.112 1.104-.112.302-.328.466-.656.51l-.139.016v.415h3.636v-.423l-.138-.018c-.337-.051-.553-.215-.657-.491-.069-.182-.103-.527-.103-1.019v-5.832c0-.777.103-1.113.198-1.26.121-.198.311-.31.57-.354l.13-.026v-.422h-6.373v.422zM145.427 91.036c-.967-.647-2.15-.993-3.523-1.018v-1.269c0-.509.034-.862.112-1.044.121-.293.363-.466.751-.543l.13-.026v-.414h-3.713v.422l.138.018c.276.043.466.146.578.328.087.138.182.466.182 1.277v5.832c0 .76-.104 1.07-.19 1.19-.121.174-.311.277-.57.32l-.13.017v.423h3.877c1.253 0 2.22-.25 2.893-.733.683-.5 1.028-1.225 1.028-2.149-.026-1.06-.535-1.95-1.563-2.631zm-3.532-.052c.907.026 1.675.302 2.288.811.622.51.924 1.113.924 1.83 0 .612-.19 1.078-.578 1.423-.389.345-.941.526-1.632.526-.587 0-.803-.12-.881-.215-.035-.044-.121-.199-.121-.708v-3.667zM153.958 87.162h.155c.337 0 .535.147.639.458.069.207.104.595.104 1.147v.596h-3.791v-.7c0-.491.034-.845.112-1.043.104-.276.319-.423.639-.466l.138-.017v-.423h-3.618v.423l.129.017c.277.043.467.147.579.328.086.138.181.466.181 1.277v5.832c0 .76-.103 1.07-.19 1.191-.12.173-.31.276-.57.32l-.129.017v.422h3.618v-.431l-.138-.009c-.337-.034-.544-.198-.648-.5-.069-.198-.103-.57-.103-1.105v-4.124h3.791V94.6c0 .518-.035.889-.113 1.087-.103.285-.302.423-.621.423h-.156v.44h3.618v-.423l-.138-.017c-.328-.043-.544-.216-.656-.518-.069-.198-.104-.56-.104-1.096v-5.832c0-.483.035-.829.113-1.027.103-.285.319-.44.647-.483l.138-.017v-.423h-3.618v.448h-.008zM165.4 91.036c-.968-.647-2.151-.993-3.524-1.018v-1.269c0-.509.035-.862.113-1.044.121-.293.362-.466.751-.543l.129-.026v-.414h-3.713v.422l.138.018c.277.043.467.146.579.328.086.138.181.466.181 1.277v5.832c0 .76-.103 1.07-.19 1.19-.121.174-.311.277-.57.32l-.129.017v.423h3.877c1.252 0 2.219-.25 2.893-.733.682-.5 1.028-1.225 1.028-2.149-.018-1.06-.536-1.95-1.563-2.631zm-3.524-.052c.907.026 1.676.302 2.289.811.621.51.924 1.113.924 1.83 0 .612-.19 1.078-.579 1.423-.397.345-.941.526-1.632.526-.587 0-.803-.12-.881-.215-.034-.044-.112-.199-.112-.708v-3.667h-.009zM167.231 87.136l.13.018c.276.043.466.146.578.328.087.138.182.466.182 1.277v5.832c0 .483-.035.829-.113 1.027-.112.285-.319.44-.647.483l-.138.017v.423h3.618v-.423l-.13-.017c-.276-.043-.466-.147-.578-.336-.078-.13-.182-.466-.182-1.277v-5.816c0-.483.044-.828.113-1.026.103-.276.319-.44.656-.492l.13-.026v-.423h-3.619v.431zM180.547 95.773c-.061-.06-.19-.233-.475-.682l-2.816-4.443 1.287-1.907c.371-.544.622-.889.751-1.035.303-.32.622-.492.976-.527l.138-.017v-.431h-2.987v.448h.155c.285 0 .285.112.285.19 0 .103-.035.242-.104.397-.069.172-.207.405-.406.699l-.777 1.156-.794-1.242a11.652 11.652 0 01-.268-.467.843.843 0 01-.103-.396c0-.078.025-.147.094-.199.078-.069.199-.12.372-.146l.129-.026v-.414h-3.825v.43l.138.018c.294.035.605.259.941.656.182.207.432.57.76 1.078l1.494 2.365-2.357 3.546c-.32.466-.51.742-.596.845-.233.268-.484.423-.734.466l-.13.026v.423h3.126v-.423l-.129-.017c-.415-.06-.467-.233-.467-.38 0-.164.07-.405.216-.699.104-.215.294-.526.544-.923l1.166-1.82 1.641 2.588c.207.328.302.604.302.802 0 .173-.06.38-.527.44l-.138.018v.422l3.921.06v-.482l-.139-.017c-.267-.087-.483-.199-.664-.38zM196.196 95.67c-.035-.06-.121-.25-.345-.837l-.259-.665a16.307 16.307 0 00-1.278-2.657 11.6 11.6 0 00-1.684-2.183l.906-.785c.864-.734 1.106-.915 1.166-.958.432-.285.872-.423 1.304-.423h.155v-.449h-3.635v.423l.138.018c.138.017.19.051.216.06 0 .009.026.035.026.13 0 .06-.043.25-.458.707-.267.293-.716.716-1.338 1.26l-.924.776v-1.432c0-.777.103-1.087.19-1.217.121-.172.302-.267.561-.293l.138-.017v-.432h-3.618v.423l.13.017c.276.044.466.147.578.337.086.138.181.466.181 1.268v5.833c0 .483-.034.82-.112 1.018-.112.276-.319.44-.647.492l-.13.026v.422h3.618v-.431l-.138-.009c-.337-.034-.544-.198-.648-.5-.069-.19-.103-.57-.103-1.104v-3.08l1.14-.958c.336.397.647.785.906 1.156.285.405.57.845.821 1.32.259.466.475.923.647 1.363.234.595.354 1.07.354 1.406 0 .25-.103.372-.354.415l-.129.017v.423h3.342v-.423l-.138-.017c-.234-.026-.424-.173-.579-.44zM202.862 86.532c-1.416 0-2.617.492-3.584 1.458-.958.967-1.442 2.2-1.442 3.676 0 .69.138 1.372.397 2.01a5.039 5.039 0 001.123 1.692c.475.465 1.01.82 1.606 1.044a5.3 5.3 0 001.9.336c1.364 0 2.556-.466 3.54-1.39 1.019-.966 1.537-2.165 1.537-3.589 0-1.518-.483-2.786-1.442-3.761-.958-.984-2.185-1.476-3.635-1.476zm.311 9.146c-1.037 0-1.857-.483-2.496-1.467-.579-.88-.872-1.906-.872-3.071 0-.975.233-1.812.691-2.477.492-.724 1.165-1.078 2.046-1.078.924 0 1.71.44 2.392 1.355.682.914 1.028 2.001 1.028 3.244 0 .957-.251 1.769-.726 2.424-.509.725-1.183 1.07-2.063 1.07zM211.67 87.144l.139.018c.112.008.181.043.215.103a.494.494 0 01.069.276.917.917 0 01-.155.527c-.613.931-1.123 2.019-1.52 3.235-.311.95-.544 1.976-.699 3.055a14.39 14.39 0 00-.164 2.044v.156h2.763v-.423l-.138-.017c-.371-.043-.648-.224-.846-.561a2.072 2.072 0 01-.242-1.01c0-1.156.198-2.346.587-3.528.328-1.019.743-1.873 1.218-2.546.19-.276.414-.474.656-.595a1.75 1.75 0 01.786-.181c.431 0 .708.086.829.267.06.095.138.32.138.854v5.704c0 .517-.043.888-.112 1.104-.104.302-.32.466-.657.51l-.138.016v.415h3.636v-.423l-.13-.018c-.337-.051-.553-.215-.665-.491-.069-.182-.103-.527-.103-1.019v-5.832c0-.777.103-1.113.198-1.26.121-.198.311-.31.57-.354l.13-.026v-.422h-6.373v.422h.008zM227.585 92.874c-.415.898-.959 1.58-1.607 2.028-.639.448-1.442.673-2.383.673-.587 0-.967-.104-1.114-.31-.06-.079-.147-.337-.147-1.131v-3.719h.173c.846 0 1.425.07 1.71.199.423.198.742.664.95 1.38l.043.164.388-.155-.587-3.555-.406.147v.112c0 .414-.181.543-.319.612-.104.043-.328.104-.803.104h-1.149v-.665c0-.578.113-.793.199-.871.095-.086.337-.181.915-.181.734 0 1.39.164 1.978.483a2.942 2.942 0 011.347 1.527l.069.181.363-.241-.709-3.27-.207.215a.307.307 0 01-.147.095c-.034.009-.12.026-.293.026h-6.244v.423l.13.026c.337.06.553.233.665.552.069.19.104.552.104 1.061v5.833c0 .483-.035.82-.113 1.018-.112.276-.319.44-.656.492l-.13.026v.423h6.477a2.3 2.3 0 01.363.017c.034.008.077.043.112.103l.181.268 1.321-4.064-.423-.13-.051.104zM238.215 95.54l-.198.26c-.009.017-.026.025-.07.025-.043 0-.172 0-.319-.242-.147-.241-.225-.603-.225-1.078v-5.833c0-.759.104-1.07.19-1.19.121-.173.311-.276.57-.32l.139-.026v-.422h-3.636v.414l.138.017c.346.043.561.207.674.51.069.198.103.569.103 1.104v5.703c0 .638-.112.863-.172.932-.061.069-.259.18-.959.18h-1.528c-.691 0-.916-.137-.985-.224-.043-.043-.138-.232-.138-.897V88.75c0-.518.043-.889.112-1.104.113-.302.329-.466.657-.51l.138-.017v-.414h-3.636v.423l.13.017c.337.052.553.207.665.492.069.181.103.526.103 1.018v5.833c0 .776-.103 1.113-.198 1.26-.121.198-.311.31-.57.353l-.13.017v.423h6.373c.769 0 1.425.216 1.969.647.492.389.872.94 1.14 1.657l.052.147.397-.138-.786-3.314zM136.102 19.62c-5.552-1.691-11.511-.216-16.718 3.538-5.207-3.754-11.165-5.229-16.718-3.538-11.433 3.477-16.813 19.008-12.038 34.694 4.698 15.41 17.47 25.22 28.747 22.252 11.287 2.968 24.058-6.842 28.756-22.252 4.784-15.677-.604-31.208-12.029-34.694zm-1.563 4.426c9.128 2.779 13.255 15.73 9.231 28.93-2.979 9.785-9.611 16.955-16.562 18.888 6.217-6.54 8.419-18.3 4.801-30.147-1.934-6.333-5.233-11.726-9.223-15.669 3.783-2.338 7.902-3.166 11.753-2.002zm-23.816 18.879c1.805-5.91 4.931-10.863 8.661-14.28 3.722 3.426 6.856 8.378 8.661 14.28 3.938 12.916.061 25.6-8.661 28.732-8.722-3.132-12.599-15.807-8.661-28.732zm-6.485-18.879c3.851-1.173 7.961-.336 11.744 1.994-3.998 3.943-7.297 9.335-9.223 15.668-3.609 11.847-1.416 23.607 4.801 30.147-6.942-1.924-13.574-9.094-16.562-18.887-4.024-13.184.112-26.143 9.24-28.922zm6.873 51.554c-1.856-.552-15.345-5.151-20.085-23.823-5.06-19.94 9.74-28.455 9.74-28.455s-12.141 8.084-8.842 26.652c3.152 17.774 17.08 24.91 19.187 25.626.139.043.216.06.216.06-.043-.008-.121-.034-.216-.06zm36.398-23.831c-4.74 18.671-18.229 23.27-20.085 23.822a1.276 1.276 0 01-.225.06s.078-.017.225-.06c2.115-.716 16.035-7.851 19.187-25.617 3.299-18.568-8.842-26.652-8.842-26.652.008 0 14.809 8.516 9.74 28.447z" fill="#fff"/><path fill-rule="evenodd" clip-rule="evenodd" d="M108.418 16.143s5.855.432 10.699 3.374c6.174-3.236 10.751-3.374 10.751-3.374C128.754 7.99 131.172.751 131.172.751s-1.761 2.381-3.1 3.537c-1.338 1.156-2.953 2.114-2.651 3.702.302 1.587.225 2.562-.302 3.02 0 0 2.418-.07 2.944-1.053 0 0 .268 2.821-3.756 3.14-1.045-.232-1.926-.802-2.599-1.63-.985-1.208-1.287-3.253-.458-3.4.829-.155 1.52 1.13 1.52 1.13.147-.603 2.038-.526 2.193-2.717.147-2.192-3.557-3.477-4.162-4.081-.501-.5-1.321-1.82-1.58-2.252V.009l-.043.069c-.018-.052-.035-.078-.035-.078l-.009.138c-.259.431-1.079 1.752-1.58 2.252-.604.604-4.317 1.89-4.162 4.081.147 2.192 2.038 2.114 2.193 2.718 0 0 .7-1.286 1.52-1.13.829.146.518 2.191-.457 3.4a4.627 4.627 0 01-2.608 1.63c-4.085-.302-3.826-3.14-3.826-3.14.527.983 2.945 1.052 2.945 1.052-.527-.457-.605-1.432-.302-3.02.302-1.587-1.304-2.554-2.651-3.701-1.339-1.157-3.101-3.538-3.101-3.538s2.436 7.24 1.313 15.401z" fill="#fff"/><path d="M46.102 73.003H.18v.846h45.922v-.846zM238.518 73.003h-44.834v.846h44.834v-.846z" fill="#fff"/></svg>