<svg width="29" height="23" viewBox="0 0 29 23" fill="none" xmlns="http://www.w3.org/2000/svg">
<path fill-rule="evenodd" clip-rule="evenodd" d="M2.00376 18.71C2.00376 18.71 8.79081 19.21 14.4066 22.62C21.5641 18.87 26.8696 18.71 26.8696 18.71C25.5783 9.26 28.3812 0.87 28.3812 0.87C28.3812 0.87 26.339 3.63 24.7874 4.97C23.2358 6.31 21.3639 7.42 21.7142 9.26C22.0646 11.1 21.9745 12.23 21.3639 12.76C21.3639 12.76 24.1668 12.68 24.7774 11.54C24.7774 11.54 25.0877 14.81 20.4229 15.18C19.2116 14.91 18.1906 14.25 17.4098 13.29C16.2686 11.89 15.9182 9.52 16.8792 9.35C17.8402 9.17 18.641 10.66 18.641 10.66C18.8112 9.96 21.0135 10.05 21.1837 7.51C21.3539 4.97 17.0594 3.48 16.3587 2.78C15.7781 2.2 14.8271 0.67 14.5268 0.17V0.01C14.5268 0.01 14.5067 0.04 14.4767 0.09C14.4467 0.03 14.4367 0 14.4367 0L14.4267 0.16C14.1264 0.66 13.1754 2.19 12.5948 2.77C11.894 3.47 7.58956 4.96 7.76975 7.5C7.93993 10.04 10.1322 9.95 10.3124 10.65C10.3124 10.65 11.1232 9.16 12.0742 9.34C13.0252 9.51 12.6748 11.88 11.5437 13.28C10.7629 14.24 9.73179 14.9 8.52053 15.17C3.78561 14.82 4.08592 11.53 4.08592 11.53C4.69656 12.67 7.49947 12.75 7.49947 12.75C6.88883 12.22 6.79874 11.09 7.1491 9.25C7.50948 7.41 5.64754 6.3 4.08592 4.96C2.53431 3.62 0.492188 0.86 0.492188 0.86C0.492188 0.86 3.2951 9.25 2.00376 18.71Z" fill="#08205C"/>
</svg>
