<?xml version="1.0" encoding="utf-8"?>
<!-- Generator: Adobe Illustrator 19.2.1, SVG Export Plug-In . SVG Version: 6.00 Build 0)  -->
<svg version="1.1" id="Слой_1" xmlns="http://www.w3.org/2000/svg" xmlns:xlink="http://www.w3.org/1999/xlink" x="0px" y="0px"
	 viewBox="0 0 20 20" style="enable-background:new 0 0 20 20;" xml:space="preserve">
<style type="text/css">
	.st0{fill:#6E7C9A;}
</style>
<path d="M17.3,4.3l-13,13c-0.3,0.3-0.9,0.2-1.4-0.2c-0.4-0.4-0.5-1-0.2-1.4l13-13c0.3-0.3,0.9-0.2,1.4,0.2C17.5,3.4,17.6,4,17.3,4.3z"/>
<path d="M15.7,17.3l-13-13C2.4,4,2.5,3.4,2.9,2.9c0.4-0.4,1-0.5,1.4-0.2l13,13c0.3,0.3,0.2,0.9-0.2,1.4C16.6,17.5,16,17.6,15.7,17.3z"/>
</svg>
