<svg width="13" height="13" viewBox="0 0 13 13" fill="none" xmlns="http://www.w3.org/2000/svg">
<path d="M12.8178 1.15417L11.9197 0.266839C11.6768 0.0238499 11.2753 0.0238499 11.0217 0.266839L6.54225 4.74619L1.97834 0.182321C1.73525 -0.0607737 1.33378 -0.0607737 1.08033 0.182321L0.182323 1.08032C-0.0607742 1.32331 -0.0607742 1.72477 0.182323 1.97833L4.73577 6.53173L0.266841 11.0218C0.0238501 11.2647 0.0238501 11.6662 0.266841 11.9198L1.16485 12.8178C1.40784 13.0607 1.80931 13.0607 2.06286 12.8178L6.54225 8.33831L11.0217 12.8178C11.2647 13.0607 11.6662 13.0607 11.9197 12.8178L12.8178 11.9198C13.0607 11.6768 13.0607 11.2753 12.8178 11.0218L8.3277 6.5423L12.8072 2.06295C13.0607 1.80919 13.0607 1.40773 12.8178 1.15417Z"/>
</svg>
