<?xml version="1.0" encoding="utf-8"?>
<!-- Generator: Adobe Illustrator 19.2.1, SVG Export Plug-In . SVG Version: 6.00 Build 0)  -->
<svg version="1.1" id="Слой_1" xmlns="http://www.w3.org/2000/svg" xmlns:xlink="http://www.w3.org/1999/xlink" x="0px" y="0px"
	 viewBox="0 0 24 24" style="enable-background:new 0 0 24 24;" xml:space="preserve">
<style type="text/css">
	.st0{fill:#333A57;}
</style>
<path d="M19.8,3h-4.1V2.3c0-1.2-1-2.2-2.2-2.2h-3c-1.2,0-2.2,1-2.2,2.2V3H4.2c-1,0-1.9,0.8-1.9,1.9v2.6c0,0.4,0.3,0.7,0.7,0.7h0.4l0.6,13.6C4.1,23,5.1,24,6.3,24h11.3c1.2,0,2.2-0.9,2.2-2.1l0.6-13.6H21c0.4,0,0.7-0.3,0.7-0.7V4.9C21.7,3.9,20.9,3,19.8,3z M9.8,2.3c0-0.4,0.3-0.7,0.7-0.7h3c0.4,0,0.7,0.3,0.7,0.7V3H9.8V2.3z M3.8,4.9c0-0.2,0.2-0.4,0.4-0.4h15.7c0.2,0,0.4,0.2,0.4,0.4v1.9c-0.2,0-15.5,0-16.4,0V4.9z M18.4,21.7c0,0.4-0.3,0.7-0.7,0.7H6.3c-0.4,0-0.7-0.3-0.7-0.7L4.9,8.3h14.1L18.4,21.7z"/>
</svg>
