<?xml version="1.0" encoding="utf-8"?>
<!-- Generator: Adobe Illustrator 19.2.1, SVG Export Plug-In . SVG Version: 6.00 Build 0)  -->
<svg version="1.1" id="Слой_1" xmlns="http://www.w3.org/2000/svg" xmlns:xlink="http://www.w3.org/1999/xlink" x="0px" y="0px"
	 viewBox="0 0 16 16" style="enable-background:new 0 0 16 16;" xml:space="preserve">
<g>
	<path d="M13.8,2.5c0.1,0,0.3,0,0.4,0.1c0.2,0.2,0.2,0.5,0,0.7L9.5,8.1l4.6,4.6c0.2,0.2,0.2,0.5,0,0.7c-0.2,0.2-0.5,0.2-0.7,0L8.1,8.1l5.3-5.3C13.4,2.7,13.6,2.5,13.8,2.5z"/>
	<path d="M7.5,2.7c0.1,0,0.3,0,0.4,0.1c0.2,0.2,0.2,0.5,0,0.7L3.3,8.1l4.6,4.6c0.2,0.2,0.2,0.5,0,0.7c-0.2,0.2-0.5,0.2-0.7,0L1.9,8.1l5.3-5.3C7.3,2.7,7.5,2.7,7.5,2.7z"/>
</g>
</svg>
