<?xml version="1.0" encoding="utf-8"?>
<!-- Generator: Adobe Illustrator 19.2.1, SVG Export Plug-In . SVG Version: 6.00 Build 0)  -->
<svg version="1.1" id="Слой_1" xmlns="http://www.w3.org/2000/svg" xmlns:xlink="http://www.w3.org/1999/xlink" x="0px" y="0px"
	 viewBox="0 0 24 24" style="enable-background:new 0 0 24 24;" xml:space="preserve">
<style type="text/css">
	.st0{fill:#333A57;}
</style>
<path d="M12,22.5c-0.3,0-0.7-0.1-0.9-0.3c-1-0.8-1.9-1.6-2.7-2.3l0,0c-2.4-2-4.5-3.8-5.9-5.5c-1.6-1.9-2.4-3.7-2.4-5.7c0-1.9,0.7-3.7,1.9-5c1.2-1.3,2.9-2,4.8-2c1.4,0,2.6,0.4,3.8,1.3C11,3.2,11.6,3.8,12,4.4c0.4-0.6,1-1.1,1.5-1.6c1.1-0.8,2.4-1.3,3.8-1.3c1.8,0,3.5,0.7,4.8,2c1.2,1.3,1.9,3.1,1.9,5c0,2-0.8,3.8-2.4,5.7c-1.4,1.7-3.5,3.5-5.9,5.5c-0.8,0.7-1.8,1.5-2.7,2.3C12.7,22.3,12.3,22.5,12,22.5z M6.7,2.9C5.3,2.9,3.9,3.5,3,4.5C2,5.6,1.4,7,1.4,8.6c0,1.7,0.6,3.2,2,4.8c1.4,1.6,3.4,3.3,5.8,5.3l0,0c0.8,0.7,1.8,1.5,2.7,2.3c1-0.8,1.9-1.6,2.7-2.3c2.4-2,4.4-3.7,5.8-5.3c1.4-1.7,2-3.2,2-4.8c0-1.6-0.5-3-1.5-4.1c-1-1-2.3-1.6-3.8-1.6c-1.1,0-2,0.3-2.9,1c-0.8,0.6-1.3,1.3-1.6,1.8C12.6,6,12.3,6.2,12,6.2S11.4,6,11.2,5.7c-0.3-0.5-0.8-1.3-1.6-1.8C8.8,3.3,7.8,2.9,6.7,2.9z"/>
</svg>
