<?xml version="1.0" encoding="utf-8"?>
<!-- Generator: Adobe Illustrator 19.2.1, SVG Export Plug-In . SVG Version: 6.00 Build 0)  -->
<svg version="1.1" id="Слой_1" xmlns="http://www.w3.org/2000/svg" xmlns:xlink="http://www.w3.org/1999/xlink" x="0px" y="0px"
	 viewBox="0 0 24 24" style="enable-background:new 0 0 24 24;" xml:space="preserve">
<style type="text/css">
	.st0{fill:#7394CD;}
</style>
<path d="M22.1,3.4c-1.2-1.3-2.9-2.1-4.8-2.1c-1.4,0-2.6,0.4-3.8,1.3c-0.6,0.4-1.1,1-1.5,1.6c-0.4-0.6-1-1.2-1.5-1.6C9.4,1.8,8.1,1.4,6.7,1.4c-1.8,0-3.5,0.7-4.8,2.1C0.7,4.8,0.1,6.6,0.1,8.6c0,2,0.8,3.9,2.4,5.8c1.4,1.7,3.5,3.5,5.9,5.6c0.8,0.7,1.8,1.5,2.7,2.3c0.3,0.2,0.6,0.3,0.9,0.3c0.3,0,0.7-0.1,0.9-0.3c1-0.8,1.9-1.6,2.7-2.3c2.4-2.1,4.5-3.8,5.9-5.6c1.6-2,2.4-3.8,2.4-5.8C24,6.6,23.3,4.8,22.1,3.4z"/>
</svg>
