<svg xmlns="http://www.w3.org/2000/svg" viewBox="0 0 24 24">
<path d="M23.9,11c-0.1-0.8-0.8-1.4-1.6-1.4h-8.9c-0.8,0-1.5,0.7-1.5,1.5v2.1c0,0.8,0.7,1.5,1.5,1.5h4.4c0.2,0,0.2,0.1,0.2,0.1c0,0,0,0,0,0c-0.5,1.1-1.3,2.1-2.4,2.8c0,0,0,0,0,0c-1.1,0.7-2.4,1.1-3.7,1.1c-2.7,0-5.2-1.7-6.2-4.3c0,0,0,0,0,0c-0.3-0.8-0.4-1.6-0.4-2.4c0-0.8,0.2-1.6,0.5-2.4c0,0,0,0,0,0C6.8,7,9.2,5.4,12,5.4c1.3,0,2.6,0.4,3.7,1.1c0,0,0,0,0,0l0,0c0,0,0,0,0,0c0.3,0.2,0.6,0.3,0.9,0.3c0.4,0,0.8-0.2,1.1-0.5l1.7-1.8c0.3-0.3,0.4-0.7,0.4-1.1c0-0.4-0.3-0.7-0.6-0.9c0,0,0,0,0,0C17.2,0.9,14.7,0,12,0C7.6,0,3.5,2.5,1.4,6.4c0,0,0,0,0,0C0.5,8.1,0.1,10.1,0.1,12c0,2,0.5,3.9,1.4,5.6c0,0,0,0,0,0C3.5,21.5,7.6,24,12,24c2.8,0,5.6-1,7.8-2.9c0,0,0,0,0,0c2.7-2.3,4.2-5.6,4.2-9.1C24,11.3,23.9,11,23.9,11z M12,1c2.4,0,4.7,0.8,6.7,2.3c0,0,0.1,0,0.1,0.1c0.1,0.1,0.2,0.1,0.2,0.2c0,0.1,0,0.2-0.1,0.3l-1.7,1.8c-0.1,0.1-0.3,0.2-0.4,0.2c-0.1,0-0.3,0-0.4-0.1l0,0C15,4.9,13.5,4.4,12,4.4c-1.6,0-3.1,0.5-4.3,1.4C6.6,6.5,5.7,7.5,5.2,8.7L2.5,6.5C4.5,3.1,8.1,1,12,1z M1,12c0-1.6,0.4-3.2,1-4.6l2.8,2.2c-0.3,0.8-0.4,1.6-0.4,2.4c0,0.8,0.1,1.6,0.4,2.4L2,16.6C1.4,15.2,1,13.6,1,12z M12,23c-3.9,0-7.5-2.1-9.5-5.5l2.7-2.2c0.6,1.2,1.4,2.2,2.5,2.9c1.3,0.9,2.8,1.4,4.4,1.4c1.4,0,2.7-0.4,3.9-1.1l2.7,2.2C16.8,22.2,14.4,23,12,23z M19.4,20.1l-2.7-2.1c0.9-0.8,1.7-1.7,2.2-2.8c0,0,0,0,0,0c0.1-0.3,0.1-0.7-0.1-1c-0.2-0.3-0.6-0.5-1-0.5h-4.4c-0.3,0-0.5-0.2-0.5-0.5V11c0-0.3,0.2-0.5,0.5-0.5h8.9c0.3,0,0.6,0.3,0.6,0.5c0,0,0,0.3,0,0.9C23,15.1,21.7,18,19.4,20.1z"/>
</svg>
