<?xml version="1.0" encoding="utf-8"?>
<!-- Generator: Adobe Illustrator 19.2.1, SVG Export Plug-In . SVG Version: 6.00 Build 0)  -->
<svg version="1.1" id="Слой_1" xmlns="http://www.w3.org/2000/svg" xmlns:xlink="http://www.w3.org/1999/xlink" x="0px" y="0px"
	 viewBox="0 0 20 20" style="enable-background:new 0 0 20 20;" xml:space="preserve">
<style type="text/css">
	.st0{fill:#6E7C9A;}
</style>
<path d="M10,18.9c-0.3,0-0.6-0.1-0.8-0.3c-0.8-0.7-1.6-1.4-2.3-2l0,0c-2-1.7-3.8-3.2-5-4.7c-1.4-1.6-2-3.2-2-4.9C0,5.5,0.6,4,1.6,2.8c1-1.1,2.5-1.7,4-1.7c1.2,0,2.2,0.4,3.1,1.1C9.2,2.6,9.6,3,10,3.5c0.4-0.5,0.8-1,1.3-1.3c0.9-0.7,2-1.1,3.1-1.1c1.5,0,3,0.6,4,1.7C19.4,4,20,5.5,20,7.1c0,1.7-0.6,3.2-2,4.9c-1.2,1.5-3,2.9-5,4.7c-0.7,0.6-1.5,1.3-2.3,2C10.6,18.8,10.3,18.9,10,18.9z M5.6,2.3c-1.2,0-2.3,0.5-3.1,1.4C1.6,4.5,1.2,5.8,1.2,7.1c0,1.4,0.5,2.7,1.7,4.1c1.1,1.4,2.9,2.8,4.8,4.5l0,0c0.7,0.6,1.5,1.3,2.3,2c0.8-0.7,1.6-1.4,2.3-2c2-1.7,3.7-3.1,4.8-4.5c1.2-1.4,1.7-2.7,1.7-4.1c0-1.3-0.5-2.6-1.3-3.5c-0.8-0.9-1.9-1.4-3.1-1.4c-0.9,0-1.7,0.3-2.4,0.8c-0.6,0.5-1.1,1.1-1.4,1.6C10.5,4.9,10.3,5,10,5C9.7,5,9.5,4.9,9.4,4.7C9.1,4.2,8.7,3.6,8,3.1C7.3,2.6,6.5,2.3,5.6,2.3z"/>
</svg>
