<?xml version="1.0" encoding="utf-8"?>
<!-- Generator: Adobe Illustrator 19.2.1, SVG Export Plug-In . SVG Version: 6.00 Build 0)  -->
<svg version="1.1" id="Слой_1" xmlns="http://www.w3.org/2000/svg" xmlns:xlink="http://www.w3.org/1999/xlink" x="0px" y="0px"
	 viewBox="0 0 24 24" style="enable-background:new 0 0 24 24;" xml:space="preserve">
<style type="text/css">
	.st0{fill:#333A57;}
</style>
<g>
	<path d="M17.5,0.1h-11C3,0.1,0.1,3,0.1,6.5v11C0.1,21,3,24,6.5,24h11C21,24,24,21,24,17.5v-11C24,3,21,0.1,17.5,0.1L17.5,0.1z M22.5,17.5c0,2.8-2.3,5.1-5.1,5.1h-11c-2.8,0-5.1-2.3-5.1-5.1v-11c0-2.8,2.3-5.1,5.1-5.1h11c2.8,0,5.1,2.3,5.1,5.1V17.5z"/>
	<path d="M12,5.5c-3.6,0-6.5,2.9-6.5,6.5s2.9,6.5,6.5,6.5s6.5-2.9,6.5-6.5S15.6,5.5,12,5.5z M12,17.1c-2.8,0-5.1-2.3-5.1-5.1c0-2.8,2.3-5.1,5.1-5.1c2.8,0,5.1,2.3,5.1,5.1C17.1,14.8,14.8,17.1,12,17.1z"/>
	<path d="M18.7,3.1c-1.1,0-1.9,0.9-1.9,1.9c0,1.1,0.9,1.9,1.9,1.9c1.1,0,1.9-0.9,1.9-1.9S19.8,3.1,18.7,3.1z M18.7,5.6c-0.3,0-0.5-0.2-0.5-0.5c0-0.3,0.2-0.5,0.5-0.5c0.3,0,0.5,0.2,0.5,0.5C19.2,5.4,19,5.6,18.7,5.6z"/>
</g>
</svg>
