<svg xmlns="http://www.w3.org/2000/svg" viewBox="0 0 20 20">
<path d="M15.9,2.5c-3.3-3.3-8.6-3.3-11.9,0c-3.3,3.3-3.3,8.6,0,11.9l5.5,5.5c0.2,0.2,0.6,0.2,0.9,0l5.5-5.5C19.2,11,19.2,5.7,15.9,2.5z M15,13.4l-5,5l-5-5C2.2,10.7,2.2,6.1,5,3.3c2.8-2.8,7.3-2.8,10.1,0C17.8,6.1,17.8,10.7,15,13.4z"/>
<path d="M10,4.6c-2.1,0-3.8,1.7-3.8,3.8c0,2.1,1.7,3.8,3.8,3.8c2.1,0,3.8-1.7,3.8-3.8C13.7,6.3,12.1,4.6,10,4.6z M11.8,10.2c0,0-0.6,0.7-1.8,0.7c-1.4,0-2.5-1.1-2.5-2.5C7.5,7,8.6,5.9,10,5.9C12.2,5.9,13.3,8.6,11.8,10.2z"/>
</svg>
