<svg width="40" height="45" xmlns="http://www.w3.org/2000/svg" viewBox="0 0 25 30">
<style type="text/css">
	.st0{fill:#FFFFFF;}
	.st1{fill:#6B9CFD;}
</style>
<path class="st0" d="M21.2,3.9c-4.8-4.8-12.5-4.8-17.3,0C-1,8.7-1,16.5,3.8,21.4l8,8.1c0.4,0.4,0.9,0.4,1.3,0l8-8.1C26,16.5,26,8.7,21.2,3.9L21.2,3.9z"/>
<path class="st0" d="M19.9,20.2l-7.4,7.4l-7.4-7.4c-4.1-4.1-4.1-10.8,0-14.8c4.1-4.1,10.7-4.1,14.7,0C23.9,9.5,23.9,16.2,19.9,20.2z"/>
<path class="st1" d="M21.2,3.9c-4.8-4.8-12.5-4.8-17.3,0C-1,8.7-1,16.5,3.8,21.4l8,8.1c0.4,0.4,0.9,0.4,1.3,0l8-8.1C26,16.5,26,8.7,21.2,3.9L21.2,3.9z M19.9,20.1l-7.4,7.4l-7.4-7.4C1.1,16,1.1,9.3,5.1,5.2c4.1-4.1,10.7-4.1,14.7,0C23.9,9.3,23.9,16,19.9,20.1z"/>
<path class="st1" d="M6,17.3c0,0,3.5,0.3,6.5,2.1c3.7-2,6.5-2.1,6.5-2.1c-0.7-5.1,0.8-9.7,0.8-9.7s-1.1,1.5-1.9,2.2c-0.8,0.7-1.8,1.3-1.6,2.3c0.2,1,0.1,1.6-0.2,1.9c0,0,1.5,0,1.8-0.7c0,0,0.2,1.8-2.3,2c-0.6-0.1-1.2-0.5-1.6-1c-0.6-0.8-0.8-2.1-0.3-2.1c0.5-0.1,0.9,0.7,0.9,0.7c0.1-0.4,1.2-0.3,1.3-1.7c0.1-1.4-2.2-2.2-2.5-2.6c-0.3-0.3-0.8-1.1-1-1.4V7.2c0,0,0,0,0,0c0,0,0,0,0,0l0,0.1c-0.2,0.3-0.7,1.1-1,1.4C11.2,9,8.9,9.9,9,11.2c0.1,1.4,1.2,1.3,1.3,1.7c0,0,0.4-0.8,0.9-0.7c0.5,0.1,0.3,1.4-0.3,2.1c-0.4,0.5-0.9,0.9-1.6,1c-2.5-0.2-2.3-2-2.3-2c0.3,0.6,1.8,0.7,1.8,0.7c-0.3-0.3-0.4-0.9-0.2-1.9c0.2-1-0.8-1.6-1.6-2.3C6.3,9.1,5.2,7.6,5.2,7.6S6.7,12.2,6,17.3z"/>
</svg>
