<svg xmlns="http://www.w3.org/2000/svg" viewBox="0 0 20 20">
<g>
	<path d="M15.8,12.4c-0.4-0.4-0.9-0.6-1.4-0.6c-0.5,0-1,0.2-1.4,0.6l-1.3,1.3c-0.1-0.1-0.2-0.1-0.3-0.2c-0.2-0.1-0.3-0.1-0.4-0.2c-1.2-0.8-2.4-1.8-3.4-3.1C6.9,9.5,6.5,8.9,6.3,8.4c0.3-0.3,0.7-0.6,1-1c0.1-0.1,0.2-0.2,0.4-0.4c0.9-0.9,0.9-2,0-2.9L6.5,3C6.3,2.9,6.2,2.8,6.1,2.6C5.8,2.4,5.6,2.1,5.3,1.8C4.9,1.4,4.4,1.2,3.9,1.2c-0.5,0-1,0.2-1.4,0.6c0,0,0,0,0,0L1,3.3C0.5,3.8,0.2,4.5,0.1,5.2C0,6.5,0.4,7.6,0.7,8.3c0.7,1.8,1.7,3.5,3.2,5.3c1.8,2.2,4,3.9,6.6,5.1c1,0.5,2.2,1,3.7,1.1c0.1,0,0.2,0,0.3,0c1,0,1.8-0.3,2.4-1c0,0,0,0,0,0c0.2-0.3,0.5-0.5,0.7-0.8c0.2-0.2,0.4-0.4,0.5-0.5c0.4-0.4,0.6-0.9,0.6-1.4c0-0.5-0.2-1-0.6-1.4L15.8,12.4z M17.3,16.8C17.3,16.8,17.3,16.8,17.3,16.8c-0.2,0.2-0.3,0.3-0.5,0.5c-0.3,0.3-0.5,0.5-0.8,0.8c-0.4,0.5-0.9,0.7-1.6,0.7c-0.1,0-0.1,0-0.2,0c-1.2-0.1-2.4-0.6-3.3-1C8.5,16.7,6.5,15,4.7,13c-1.4-1.7-2.4-3.3-3-5c-0.4-1-0.5-1.9-0.5-2.6c0-0.5,0.2-0.9,0.6-1.2l1.4-1.4c0.2-0.2,0.4-0.3,0.6-0.3c0.3,0,0.5,0.2,0.6,0.3c0,0,0,0,0,0C4.8,2.9,5,3.2,5.3,3.4c0.1,0.1,0.3,0.3,0.4,0.4L6.8,5c0.4,0.4,0.4,0.9,0,1.3C6.7,6.4,6.6,6.5,6.4,6.6C6.1,7,5.8,7.3,5.4,7.6c0,0,0,0,0,0C5,8,5.1,8.4,5.2,8.6c0,0,0,0,0,0c0.3,0.7,0.7,1.4,1.4,2.2l0,0c1.2,1.4,2.4,2.5,3.7,3.4c0.2,0.1,0.3,0.2,0.5,0.3c0.2,0.1,0.3,0.1,0.4,0.2c0,0,0,0,0.1,0c0.1,0.1,0.3,0.1,0.4,0.1c0.3,0,0.6-0.2,0.6-0.3l1.4-1.4c0.1-0.1,0.4-0.3,0.6-0.3c0.3,0,0.5,0.2,0.6,0.3c0,0,0,0,0,0l2.3,2.3C17.7,15.9,17.7,16.3,17.3,16.8z"/>
	<path d="M10.8,4.8c1.1,0.2,2.1,0.7,2.9,1.5c0.8,0.8,1.3,1.8,1.5,2.9c0,0.3,0.3,0.5,0.6,0.5c0,0,0.1,0,0.1,0c0.3-0.1,0.5-0.3,0.5-0.7c-0.2-1.3-0.9-2.5-1.8-3.5c-1-1-2.2-1.6-3.5-1.8c-0.3-0.1-0.6,0.2-0.7,0.5C10.3,4.5,10.5,4.8,10.8,4.8z"/>
	<path d="M19.9,8.8c-0.4-2.2-1.4-4.2-3-5.8c-1.6-1.6-3.6-2.6-5.8-3c-0.3-0.1-0.6,0.2-0.6,0.5c-0.1,0.3,0.2,0.6,0.5,0.7c2,0.3,3.7,1.3,5.1,2.7c1.4,1.4,2.3,3.2,2.7,5.1c0,0.3,0.3,0.5,0.6,0.5c0,0,0.1,0,0.1,0C19.7,9.4,19.9,9.1,19.9,8.8z"/>
</g>
</svg>
