<svg xmlns="http://www.w3.org/2000/svg" viewBox="0 0 24 24">
<g>
	<path d="M19,14.9c-0.5-0.5-1.1-0.8-1.7-0.8c-0.6,0-1.2,0.3-1.7,0.8l-1.6,1.6c-0.1-0.1-0.3-0.1-0.4-0.2c-0.2-0.1-0.4-0.2-0.5-0.3c-1.5-1-2.9-2.2-4.2-3.8c-0.6-0.8-1.1-1.5-1.4-2.2c0.4-0.4,0.8-0.8,1.2-1.2C8.8,8.7,9,8.6,9.1,8.4c1.1-1.1,1.1-2.4,0-3.5L7.7,3.6C7.6,3.4,7.4,3.2,7.2,3.1c-0.3-0.3-0.6-0.6-1-0.9C5.8,1.6,5.2,1.4,4.6,1.4S3.4,1.6,2.9,2.1c0,0,0,0,0,0L1.1,3.9C0.5,4.5,0.1,5.3,0,6.2C-0.1,7.7,0.4,9.1,0.7,10c0.8,2.2,2,4.3,3.9,6.5c2.2,2.6,4.9,4.7,7.9,6.2c1.2,0.6,2.7,1.2,4.5,1.3c0.1,0,0.2,0,0.3,0c1.2,0,2.2-0.4,2.9-1.3c0,0,0,0,0,0c0.3-0.3,0.6-0.6,0.9-0.9c0.2-0.2,0.4-0.4,0.7-0.7c0.5-0.5,0.8-1.1,0.8-1.8c0-0.6-0.3-1.2-0.8-1.7L19,14.9z M20.8,20.2C20.8,20.2,20.8,20.2,20.8,20.2c-0.2,0.2-0.4,0.4-0.6,0.6c-0.3,0.3-0.7,0.6-1,1c-0.5,0.5-1.1,0.8-1.9,0.8c-0.1,0-0.2,0-0.2,0c-1.5-0.1-2.9-0.7-4-1.2c-2.9-1.4-5.4-3.4-7.5-5.9c-1.7-2.1-2.9-4-3.6-6.1C1.5,8.3,1.3,7.3,1.4,6.3c0.1-0.6,0.3-1.1,0.7-1.5l1.7-1.7c0.2-0.2,0.5-0.4,0.8-0.4c0.3,0,0.6,0.2,0.7,0.4c0,0,0,0,0,0C5.7,3.4,6,3.7,6.3,4c0.2,0.2,0.3,0.3,0.5,0.5l1.4,1.4c0.5,0.5,0.5,1,0,1.6C8,7.6,7.8,7.8,7.7,7.9C7.3,8.3,6.9,8.8,6.4,9.1c0,0,0,0,0,0C6,9.6,6,10,6.1,10.3c0,0,0,0,0,0C6.5,11.2,7,12.1,7.8,13l0,0c1.4,1.7,2.9,3.1,4.5,4.1c0.2,0.1,0.4,0.2,0.6,0.3c0.2,0.1,0.4,0.2,0.5,0.3c0,0,0,0,0.1,0c0.2,0.1,0.3,0.1,0.5,0.1c0.4,0,0.7-0.3,0.8-0.3l1.7-1.7c0.2-0.2,0.4-0.4,0.8-0.4c0.3,0,0.6,0.2,0.7,0.4c0,0,0,0,0,0l2.8,2.8C21.3,19.1,21.3,19.7,20.8,20.2z"/>
	<path d="M13,5.7c1.3,0.2,2.5,0.9,3.5,1.8c1,1,1.6,2.2,1.8,3.5c0.1,0.3,0.3,0.6,0.7,0.6c0,0,0.1,0,0.1,0c0.4-0.1,0.6-0.4,0.6-0.8c-0.3-1.6-1-3.1-2.2-4.2c-1.2-1.2-2.6-1.9-4.2-2.2c-0.4-0.1-0.7,0.2-0.8,0.6C12.4,5.3,12.6,5.6,13,5.7z"/>
	<path d="M24,10.6c-0.5-2.6-1.7-5.1-3.6-7c-1.9-1.9-4.3-3.2-7-3.6c-0.4-0.1-0.7,0.2-0.8,0.6c-0.1,0.4,0.2,0.7,0.6,0.8c2.4,0.4,4.5,1.5,6.2,3.2c1.7,1.7,2.8,3.9,3.2,6.2c0.1,0.3,0.3,0.6,0.7,0.6c0,0,0.1,0,0.1,0C23.8,11.3,24,11,24,10.6z"/>
</g>
</svg>
