<svg xmlns="http://www.w3.org/2000/svg" viewBox="0 0 24 24">
<g>
	<path d="M19.2,7.5c-2,0-3.7-1.7-3.7-3.7s1.7-3.7,3.7-3.7c2,0,3.7,1.7,3.7,3.7S21.2,7.5,19.2,7.5z M19.2,1.6c-1.2,0-2.2,1-2.2,2.2s1,2.2,2.2,2.2c1.2,0,2.2-1,2.2-2.2S20.4,1.6,19.2,1.6z"/>
	<path d="M19.2,23.9c-2,0-3.7-1.7-3.7-3.7s1.7-3.7,3.7-3.7c2,0,3.7,1.7,3.7,3.7S21.2,23.9,19.2,23.9z M19.2,18C18,18,17,19,17,20.2c0,1.2,1,2.2,2.2,2.2c1.2,0,2.2-1,2.2-2.2C21.4,19,20.4,18,19.2,18z"/>
	<path d="M4.8,15.7c-2,0-3.7-1.7-3.7-3.7s1.7-3.7,3.7-3.7S8.5,9.9,8.5,12S6.9,15.7,4.8,15.7z M4.8,9.8c-1.2,0-2.2,1-2.2,2.2s1,2.2,2.2,2.2S7,13.2,7,12S6,9.8,4.8,9.8z"/>
	<path d="M7.4,11.3c-0.3,0-0.5-0.1-0.6-0.4c-0.2-0.4-0.1-0.8,0.3-1l9.2-5.2c0.4-0.2,0.8-0.1,1,0.3c0.2,0.4,0.1,0.8-0.3,1l-9.2,5.2C7.6,11.2,7.5,11.3,7.4,11.3z"/>
	<path d="M16.6,19.5c-0.1,0-0.3,0-0.4-0.1L7,14.1c-0.4-0.2-0.5-0.7-0.3-1c0.2-0.4,0.7-0.5,1-0.3l9.2,5.2c0.4,0.2,0.5,0.7,0.3,1C17.1,19.3,16.9,19.5,16.6,19.5z"/>
</g>
</svg>
