<svg xmlns="http://www.w3.org/2000/svg" viewBox="0 0 24 24">
	<path d="M23.8,11.5c-0.2-0.3-5.3-7.2-11.8-7.2S0.4,11.2,0.2,11.5c-0.2,0.3-0.2,0.7,0,0.9c0.2,0.3,5.3,7.2,11.8,7.2s11.6-6.9,11.8-7.2C24.1,12.2,24.1,11.8,23.8,11.5z M12,18.1c-4.8,0-9-4.6-10.2-6.1C3,10.5,7.2,5.9,12,5.9c4.8,0,9,4.6,10.2,6.1C21,13.5,16.8,18.1,12,18.1z"/>
	<path d="M12,7.3c-2.6,0-4.7,2.1-4.7,4.7c0,2.6,2.1,4.7,4.7,4.7c2.6,0,4.7-2.1,4.7-4.7C16.7,9.4,14.6,7.3,12,7.3z M12,15.2c-1.7,0-3.2-1.4-3.2-3.2s1.4-3.2,3.2-3.2s3.2,1.4,3.2,3.2S13.7,15.2,12,15.2z"/>
</svg>
