<svg xmlns="http://www.w3.org/2000/svg" viewBox="0 0 20 20">
<path d="M19.6,2.1c-0.2-0.3-0.6-0.5-1-0.5c-0.2,0-0.5,0-0.7,0.1L1.1,8.2c-0.9,0.3-1,0.8-1,1.1c0,0.3,0.2,0.8,1.1,1.1c0,0,0,0,0,0l3.5,1l1.9,5.4c0.3,0.7,0.8,1.2,1.5,1.2c0.4,0,0.8-0.2,1.2-0.5l2.2-2l3.1,2.5c0,0,0,0,0,0l0,0c0,0,0,0,0,0c0.3,0.3,0.7,0.4,1.1,0.4h0c0.7,0,1.3-0.5,1.5-1.4l2.7-13.6C20,2.9,19.9,2.4,19.6,2.1z M5.8,11.2l6.7-3.4l-4.2,4.4c-0.1,0.1-0.1,0.2-0.1,0.3l-0.8,3.3L5.8,11.2z M8.5,16.5C8.4,16.6,8.4,16.6,8.5,16.5l0.7-3l1.4,1.1L8.5,16.5z M18.7,3.2L16,16.8c0,0.1-0.1,0.4-0.3,0.4c-0.1,0-0.2-0.1-0.4-0.2l-3.5-2.8c0,0,0,0,0,0l-2.1-1.7l6-6.4c0.2-0.2,0.2-0.5,0-0.7c-0.2-0.2-0.5-0.3-0.7-0.2L5,10.3l-3.5-1l16.8-6.4c0.1-0.1,0.2-0.1,0.3-0.1c0,0,0.1,0,0.1,0C18.7,2.9,18.8,3,18.7,3.2z"/>
</svg>
