<?xml version="1.0" encoding="utf-8"?>
<!-- Generator: Adobe Illustrator 19.2.1, SVG Export Plug-In . SVG Version: 6.00 Build 0)  -->
<svg version="1.1" id="Слой_1" xmlns="http://www.w3.org/2000/svg" xmlns:xlink="http://www.w3.org/1999/xlink" x="0px" y="0px"
	 viewBox="0 0 24 24" style="enable-background:new 0 0 24 24;" xml:space="preserve">
<style type="text/css">
	.st0{fill:#333A57;}
</style>
<path d="M23.6,2.4c-0.3-0.4-0.7-0.6-1.2-0.6c-0.3,0-0.6,0.1-0.9,0.2L1.3,9.8c-1.1,0.4-1.2,1-1.2,1.4c0,0.3,0.2,0.9,1.3,1.3c0,0,0,0,0,0l4.2,1.2l2.3,6.5c0.3,0.9,1,1.4,1.8,1.4c0.5,0,1-0.2,1.5-0.6l2.6-2.4l3.8,3c0,0,0,0,0,0l0,0c0,0,0,0,0,0c0.4,0.3,0.9,0.5,1.3,0.5h0c0.9,0,1.6-0.6,1.8-1.6l3.3-16.4C24,3.4,23.9,2.9,23.6,2.4z M7,13.4l8.1-4.1l-5,5.4c-0.1,0.1-0.1,0.2-0.2,0.3l-1,3.9L7,13.4z M10.1,19.9c0,0-0.1,0.1-0.1,0.1l0.9-3.7l1.6,1.3L10.1,19.9z M22.5,3.8l-3.3,16.4c0,0.2-0.1,0.5-0.4,0.5c-0.1,0-0.3-0.1-0.5-0.2l-4.3-3.4c0,0,0,0,0,0l-2.5-2l7.3-7.7c0.2-0.2,0.3-0.6,0.1-0.9C18.7,6.1,18.3,6,18,6.2L6,12.3l-4.3-1.2L22,3.4c0.2-0.1,0.3-0.1,0.4-0.1c0,0,0.1,0,0.1,0C22.5,3.4,22.6,3.5,22.5,3.8z"/>
</svg>
