<?xml version="1.0" encoding="utf-8"?>
<!-- Generator: Adobe Illustrator 19.2.1, SVG Export Plug-In . SVG Version: 6.00 Build 0)  -->
<svg version="1.1" id="Слой_1" xmlns="http://www.w3.org/2000/svg" xmlns:xlink="http://www.w3.org/1999/xlink" x="0px" y="0px"
	 viewBox="0 0 24 24" style="enable-background:new 0 0 24 24;" xml:space="preserve">
<style type="text/css">
	.st0{fill:#333A57;}
</style>
<path d="M12.1,19.5c3.5,0,2.2-2.2,2.5-2.8c0-0.5,0-0.9,0-1.2c0.2,0.1,0.7,0.3,1.8,1.4c1.6,1.7,2.1,2.7,3.4,2.7h2.5c0.8,0,1.2-0.3,1.4-0.6c0.2-0.3,0.4-0.7,0.2-1.4c-0.5-1.7-3.7-4.7-3.9-5c0-0.1,0.1-0.1,0.1-0.2h0c0.6-0.8,3-4.4,3.4-5.9c0,0,0,0,0,0c0.2-0.7,0-1.1-0.2-1.3C23,4.7,22.5,4.5,22,4.5h-2.5c-0.8,0-1.4,0.4-1.8,1.2c-0.5,1.3-2,4.1-3.1,5.1c0-1.4,0-2.4,0-3.2c0-1.5,0.2-3-1.4-3H9.3c-1,0-1.9,1.1-0.9,2.4C9.3,8,8.8,8.7,9,11.8C8.2,11,6.8,8.8,5.9,6C5.6,5.2,5.2,4.5,4.1,4.5H1.6c-1,0-1.6,0.5-1.6,1.4C0.1,8,4.6,19.5,12.1,19.5z M4.1,6c0.2,0,0.2,0,0.4,0.5c1,2.9,3.2,7.1,4.8,7.1c1.2,0,1.2-1.2,1.2-1.7l0-3.7C10.4,7,9.9,6.4,9.6,6l3.5,0c0,0,0,4.1,0,5.1c0,1.4,1.1,2.2,2.8,0.4c1.8-2.1,3.1-5.1,3.1-5.3C19.2,6.1,19.3,6,19.5,6H22h0c0,0,0,0,0,0c-0.2,1-2.4,4.4-3.2,5.4c0,0,0,0,0,0c-0.3,0.5-0.6,1.1,0,1.9h0c0.1,0.1,0.2,0.2,0.4,0.5c0.7,0.7,3,3.1,3.2,4.1c-0.1,0-0.3,0-2.6,0c-0.5,0-0.9-0.7-2.3-2.2c-1.3-1.3-2.2-1.8-3-1.8c-1.5,0-1.4,1.2-1.4,2.7c0,1.6,0,1.1,0,1.2c-0.1,0-0.3,0.1-1,0.1C5.8,18,1.7,7.9,1.6,6C1.6,6,2.4,6,4.1,6z"/>
</svg>
