<svg xmlns="http://www.w3.org/2000/svg" viewBox="0 0 20 20">
<path d="M16.9,3c-1.9-1.9-4.3-2.9-6.9-2.9c-5.4,0-9.8,4.4-9.8,9.8c0,1.7,0.5,3.4,1.3,4.9l-1.4,5.1l5.2-1.4c1.4,0.8,3,1.2,4.7,1.2h0c5.4,0,9.9-4.4,9.9-9.8C19.9,7.3,18.8,4.8,16.9,3z M10,18.1c-1.5,0-2.9-0.4-4.2-1.1l-0.3-0.2l-3.1,0.8l0.8-3l-0.2-0.3C2.3,13,1.8,11.5,1.8,9.9c0-4.5,3.7-8.2,8.2-8.2c2.2,0,4.2,0.8,5.8,2.4s2.5,3.6,2.5,5.8C18.2,14.4,14.5,18.1,10,18.1z M12.8,15.1c-0.6,0-1.3-0.2-2.6-0.7c-2.1-0.9-3.6-2.8-4.4-3.8C5.4,10,4.7,8.9,4.7,7.7c0-1.3,0.7-2,0.9-2.3c0.4-0.5,0.9-0.5,1.1-0.5c0.2,0,0.3,0,0.5,0c0.3,0,0.7,0.1,1,0.7l0.2,0.6C8.7,6.7,8.9,7.3,9,7.4C9.1,7.7,9.1,8,9,8.3C8.8,8.8,8.5,9,8.3,9.2c0,0,0,0,0,0c0.8,1.4,1.6,1.9,3.1,2.6c0.2-0.3,0.6-0.7,0.7-0.8c0.4-0.6,1-0.4,1.1-0.3c0.3,0.1,1.6,0.7,1.7,0.8l0.1,0.1c0.2,0.1,0.5,0.2,0.6,0.5c0.2,0.3,0.1,1-0.1,1.6c-0.3,0.8-1.5,1.4-2.1,1.5C13.2,15.1,13,15.1,12.8,15.1z M7.2,5.8c-0.2,0-0.3,0-0.5,0c0,0-0.2,0-0.3,0.1C6.2,6.3,5.7,6.8,5.7,7.7c0,0.6,0.3,1.5,0.9,2.2L6.7,10c0.7,0.9,2,2.7,3.9,3.5c1.6,0.7,2.1,0.7,2.7,0.6c0.4-0.1,1.1-0.5,1.3-0.8c0.1-0.3,0.1-0.6,0.1-0.7c0,0-0.1,0-0.1,0l-0.1-0.1c-0.3-0.2-1.4-0.7-1.6-0.8c0,0,0,0,0,0c-0.2,0.3-0.7,0.8-0.8,0.9c-0.2,0.2-0.6,0.5-1.1,0.2C9.5,12,8.4,11.4,7.4,9.6c-0.3-0.6,0-0.9,0.2-1.1c0.1-0.1,0.3-0.3,0.5-0.7C8,7.8,7.8,7.1,7.6,6.6L7.3,6C7.3,5.9,7.2,5.8,7.2,5.8z"/>
</svg>
