<?xml version="1.0" encoding="utf-8"?>
<!-- Generator: Adobe Illustrator 19.2.1, SVG Export Plug-In . SVG Version: 6.00 Build 0)  -->
<svg version="1.1" id="Слой_1" xmlns="http://www.w3.org/2000/svg" xmlns:xlink="http://www.w3.org/1999/xlink" x="0px" y="0px"
	 viewBox="0 0 24 24" style="enable-background:new 0 0 24 24;" xml:space="preserve">
<style type="text/css">
	.st0{fill:#333A57;}
</style>
<g>
	<path d="M20.4,3.6C18.2,1.3,15.2,0,12,0C5.4,0,0.1,5.4,0.1,12c0,1.9,0.5,3.9,1.4,5.6l-1.4,5.5c-0.1,0.2,0,0.5,0.2,0.7c0.2,0.2,0.4,0.2,0.7,0.2l5.5-1.4c1.7,0.9,3.6,1.4,5.6,1.4c3.2,0,6.2-1.2,8.4-3.5c2.3-2.3,3.5-5.3,3.5-8.4S22.7,5.8,20.4,3.6z M12,22.5c-1.8,0-3.6-0.5-5.1-1.3c-0.2-0.1-0.3-0.1-0.5-0.1l-4.6,1.2l1.2-4.6c0-0.2,0-0.4-0.1-0.5c-0.9-1.6-1.3-3.3-1.3-5.1C1.5,6.2,6.2,1.5,12,1.5S22.5,6.2,22.5,12S17.8,22.5,12,22.5z"/>
	<path d="M17,12.9c-0.3-0.3-0.7-0.5-1-0.5c-0.4,0-0.7,0.2-1,0.5l-1,1c-0.1,0-0.2-0.1-0.2-0.1c-0.1-0.1-0.2-0.1-0.3-0.2c-0.9-0.6-1.7-1.3-2.5-2.3c-0.4-0.5-0.6-0.9-0.8-1.3c0.2-0.2,0.5-0.5,0.7-0.7c0.1-0.1,0.2-0.2,0.3-0.3c0.6-0.6,0.6-1.5,0-2.1l-0.8-0.8C10.2,6,10.1,5.9,10,5.8C9.8,5.7,9.6,5.5,9.4,5.3C9.1,5,8.8,4.8,8.4,4.8S7.6,5,7.3,5.3c0,0,0,0,0,0l-1,1C5.9,6.7,5.7,7.2,5.6,7.7C5.6,8.6,5.8,9.4,6,10c0.5,1.3,1.2,2.6,2.3,3.9c1.3,1.6,2.9,2.8,4.8,3.7c0.7,0.3,1.6,0.7,2.7,0.8c0.1,0,0.1,0,0.2,0c0.7,0,1.3-0.3,1.8-0.8c0,0,0,0,0,0c0.2-0.2,0.3-0.4,0.5-0.5c0.1-0.1,0.3-0.3,0.4-0.4c0.3-0.3,0.5-0.7,0.5-1c0-0.4-0.2-0.7-0.5-1L17,12.9z M18.1,16.1C18.1,16.1,18.1,16.1,18.1,16.1c-0.1,0.1-0.2,0.2-0.4,0.4c-0.2,0.2-0.4,0.4-0.6,0.6c-0.3,0.3-0.7,0.5-1.1,0.5c0,0-0.1,0-0.1,0c-0.9-0.1-1.7-0.4-2.4-0.7c-1.7-0.8-3.2-2-4.5-3.5c-1-1.2-1.7-2.4-2.2-3.6C6.5,8.9,6.4,8.4,6.5,7.8c0-0.4,0.2-0.6,0.4-0.9l1-1c0.1-0.1,0.3-0.2,0.5-0.2c0.2,0,0.3,0.1,0.4,0.2c0,0,0,0,0,0C9,6,9.2,6.2,9.4,6.4c0.1,0.1,0.2,0.2,0.3,0.3l0.8,0.8c0.3,0.3,0.3,0.6,0,0.9c-0.1,0.1-0.2,0.2-0.3,0.3C10,9,9.7,9.2,9.5,9.5c0,0,0,0,0,0C9.2,9.8,9.3,10,9.3,10.2c0,0,0,0,0,0c0.2,0.5,0.5,1,1,1.6l0,0c0.8,1,1.7,1.8,2.7,2.5c0.1,0.1,0.3,0.1,0.4,0.2c0.1,0.1,0.2,0.1,0.3,0.2c0,0,0,0,0,0c0.1,0.1,0.2,0.1,0.3,0.1c0.3,0,0.4-0.2,0.5-0.2l1-1c0.1-0.1,0.3-0.2,0.5-0.2c0.2,0,0.3,0.1,0.4,0.2c0,0,0,0,0,0l1.7,1.7C18.4,15.5,18.4,15.8,18.1,16.1z"/>
</g>
</svg>
