<?xml version="1.0" encoding="utf-8"?>
<!-- Generator: Adobe Illustrator 19.2.1, SVG Export Plug-In . SVG Version: 6.00 Build 0)  -->
<svg version="1.1" id="Слой_1" xmlns="http://www.w3.org/2000/svg" xmlns:xlink="http://www.w3.org/1999/xlink" x="0px" y="0px"
	 viewBox="0 0 20 20" style="enable-background:new 0 0 20 20;" xml:space="preserve">
<style type="text/css">
	.st0{fill:#FFFFFF;}
</style>
<g>
	<path d="M16.5,10.1c-0.2-0.7-0.8-1.2-1.5-1.3c-1.7-0.2-3.4-0.2-5.1-0.2c-1.7,0-3.4,0-5.1,0.2c-0.7,0.1-1.3,0.6-1.5,1.3c-0.2,1-0.2,2.1-0.2,3.2c0,1.1,0,2.2,0.2,3.2c0.2,0.7,0.8,1.2,1.5,1.3C6.6,18,8.3,18,10,18c1.7,0,3.4,0,5.1-0.2c0.7-0.1,1.3-0.6,1.5-1.3c0.2-1,0.2-2.1,0.2-3.2C16.8,12.2,16.8,11.1,16.5,10.1z M7.1,10.9h-1v5.2H5.2v-5.2h-1V10h2.8V10.9z M9.6,16.1H8.7v-0.5c-0.3,0.4-0.6,0.6-0.9,0.6c-0.3,0-0.4-0.1-0.5-0.3c0-0.1-0.1-0.4-0.1-0.7v-3.6H8v3.3c0,0.2,0,0.3,0,0.3c0,0.1,0.1,0.2,0.2,0.2c0.2,0,0.3-0.1,0.5-0.4v-3.4h0.8L9.6,16.1z M12.7,14.7c0,0.4,0,0.7-0.1,0.9c-0.1,0.3-0.3,0.5-0.7,0.5c-0.3,0-0.6-0.2-0.8-0.5v0.4h-0.8v-6h0.8v2c0.3-0.3,0.5-0.5,0.8-0.5c0.3,0,0.5,0.2,0.7,0.5c0.1,0.2,0.1,0.5,0.1,0.9V14.7z M15.7,14h-1.6v0.8c0,0.4,0.1,0.6,0.4,0.6c0.2,0,0.3-0.1,0.4-0.3c0,0,0-0.2,0-0.6h0.8v0.1c0,0.3,0,0.4,0,0.5c0,0.2-0.1,0.3-0.2,0.5c-0.2,0.3-0.6,0.5-1,0.5c-0.4,0-0.8-0.2-1-0.5c-0.2-0.2-0.3-0.6-0.3-1.1v-1.6c0-0.5,0.1-0.8,0.3-1.1c0.2-0.3,0.6-0.5,1-0.5c0.4,0,0.7,0.2,1,0.5c0.2,0.2,0.3,0.6,0.3,1.1L15.7,14L15.7,14z"/>
	<path d="M14.5,12.3c-0.3,0-0.4,0.2-0.4,0.6v0.4h0.8v-0.4C14.9,12.5,14.8,12.3,14.5,12.3z"/>
	<path d="M11.5,12.3c-0.1,0-0.3,0.1-0.4,0.2v2.7c0.1,0.1,0.3,0.2,0.4,0.2c0.2,0,0.4-0.2,0.4-0.6v-1.9C11.8,12.5,11.7,12.3,11.5,12.3z"/>
	<path d="M12,8.2c0.3,0,0.6-0.2,0.9-0.6v0.5h0.8V3.6h-0.8V7c-0.2,0.3-0.4,0.4-0.5,0.4c-0.1,0-0.2-0.1-0.2-0.2c0,0,0-0.1,0-0.3V3.6h-0.8v3.6c0,0.3,0,0.5,0.1,0.7C11.5,8.1,11.7,8.2,12,8.2z"/>
	<path d="M6.2,5.6v2.5h0.9V5.6L8.2,2H7.3L6.7,4.4L6,2h-1c0.2,0.6,0.4,1.1,0.6,1.7C5.9,4.6,6.1,5.2,6.2,5.6z"/>
	<path d="M9.4,8.2c0.4,0,0.7-0.2,1-0.5c0.2-0.2,0.3-0.6,0.3-1.1V5c0-0.5-0.1-0.8-0.3-1.1c-0.2-0.3-0.5-0.5-1-0.5C9,3.5,8.7,3.7,8.5,4C8.3,4.2,8.2,4.6,8.2,5v1.6c0,0.5,0.1,0.8,0.3,1.1C8.7,8,9,8.2,9.4,8.2z M9.1,4.9c0-0.4,0.1-0.6,0.4-0.6s0.4,0.2,0.4,0.6v1.9c0,0.4-0.1,0.6-0.4,0.6S9.1,7.2,9.1,6.8V4.9z"/>
</g>
</svg>
