<?xml version="1.0" standalone="no"?>
<!DOCTYPE svg PUBLIC "-//W3C//DTD SVG 20010904//EN"
 "http://www.w3.org/TR/2001/REC-SVG-20010904/DTD/svg10.dtd">
<svg version="1.0" xmlns="http://www.w3.org/2000/svg"
 width="800.000000pt" height="800.000000pt" viewBox="0 0 800.000000 800.000000"
 preserveAspectRatio="xMidYMid meet">
<metadata>
Created by potrace 1.14, written by Peter Selinger 2001-2017
</metadata>
<g transform="translate(0.000000,800.000000) scale(0.100000,-0.100000)"
fill="#000000" stroke="none">
<path d="M4000 7367 c0 -36 -325 -540 -449 -696 -94 -117 -133 -146 -401 -301
-444 -257 -645 -403 -821 -597 -114 -125 -187 -252 -220 -381 -37 -144 -18
-368 44 -520 80 -199 200 -316 472 -463 55 -30 122 -75 149 -101 27 -26 50
-47 51 -45 96 157 225 295 318 340 77 37 144 45 202 22 81 -30 122 -111 132
-255 16 -241 -89 -579 -259 -835 -67 -102 -277 -313 -387 -390 -117 -81 -275
-159 -409 -201 -127 -41 -145 -41 -357 -4 -470 82 -791 293 -944 622 -49 103
-80 225 -88 337 l-6 86 30 -40 c39 -52 65 -75 135 -119 151 -95 439 -173 715
-192 l98 -7 -28 33 c-133 158 -158 446 -80 920 50 305 14 464 -155 690 -82
110 -228 250 -482 465 -343 290 -475 422 -763 769 -133 160 -395 495 -456 584
-13 18 -25 31 -27 29 -3 -2 13 -67 35 -143 203 -710 365 -1638 435 -2489 35
-423 41 -580 41 -1110 -1 -563 -10 -767 -56 -1200 -11 -104 -22 -217 -26 -250
l-6 -61 179 -22 c1146 -141 2330 -524 3212 -1039 l164 -95 266 135 c1092 554
2231 916 3176 1009 l128 12 -6 61 c-3 33 -15 146 -25 250 -46 435 -55 638 -56
1200 0 531 6 690 41 1110 69 826 220 1705 416 2415 64 234 62 226 56 220 -3
-3 -56 -72 -118 -155 -422 -560 -711 -877 -1090 -1198 -290 -246 -486 -441
-568 -566 -133 -203 -156 -337 -107 -645 71 -458 46 -745 -81 -895 -14 -18
-25 -34 -22 -36 7 -8 202 15 339 40 272 49 449 124 562 238 66 67 67 67 67 38
0 -61 -22 -188 -47 -266 -130 -410 -488 -668 -1044 -749 -148 -22 -174 -21
-292 18 -127 42 -263 109 -382 189 -127 86 -323 285 -408 413 -292 442 -345
1027 -98 1083 56 12 123 0 193 -35 69 -35 200 -167 262 -266 l49 -78 23 34
c24 36 65 63 214 146 132 74 196 119 262 185 149 148 230 356 231 595 1 129
-17 203 -78 325 -57 116 -119 197 -242 316 -165 161 -335 279 -728 509 -275
161 -321 194 -400 293 -134 166 -455 664 -455 705 0 13 -6 22 -15 22 -8 0 -15
-6 -15 -13z"/>
</g>
</svg>
