<svg xmlns="http://www.w3.org/2000/svg" viewBox="0 0 86 80">
<path d="M43,26.6h0.2h0H43z M43.6,26.5c3.8-0.1,7.2-1.8,9.8-4.4C56,19.6,57.8,16,58.4,12h-1.3c-0.5,3.6-2.2,6.8-4.6,9.1C50,23.5,46.6,25,43,25c-3.6,0-7-1.5-9.5-3.9c-2.4-2.3-4.1-5.5-4.6-9.1h-1.3c0.5,4,2.3,7.6,4.9,10.1c0.6,0.6,1.3,1.2,2,1.7c0,0,0,0,0.1,0c2.3,1.6,4.9,2.5,7.8,2.6c0.1,0,0.2,0,0.4,0h0H43H43.6L43.6,26.5z M53.3,24.2c5.3,2,9.8,5.5,13.1,10.1c3.4,4.7,5.5,10.6,5.5,16.9c0,8-3.2,15.2-8.4,20.4C58.2,76.8,51,80,43,80c-8,0-15.2-3.2-20.4-8.4c-5.2-5.2-8.4-12.4-8.4-20.4c0-6.3,2-12.1,5.5-16.9c3.3-4.5,7.8-8,13.1-10.1c-0.4-0.3-0.8-0.7-1.2-1.1c-2.9-2.9-4.9-6.8-5.4-11.3c-0.6-0.2-1.1-0.5-1.4-1c-0.7-0.8-1.1-2-1.1-2.6c0-0.4,0.3-0.7,0.7-0.7h0h1.2l8.8-7.4C34.5,0.1,34.7,0,34.8,0h4.1h8.8h0h4.1c0.2,0,0.4,0.1,0.5,0.2l8.8,7.4h1.2c0.4,0,0.7,0.3,0.7,0.7c0,0.1,0,0.1,0,0.2c-0.2,0.9-0.7,1.8-1.4,2.4c-0.5,0.5-1.1,0.9-1.7,1.1c-0.5,4.4-2.5,8.4-5.4,11.3C54.1,23.6,53.7,23.9,53.3,24.2L53.3,24.2z M24.2,51l5.7-3.7l0.8,1.2L27,50.9h32.9l-3.6-2.4l0.8-1.2l6.6,4.3l-6.6,4.3l-0.8-1.2l3.6-2.4H27l3.6,2.4l-0.8,1.2l-6.6-4.3L24.2,51L24.2,51z M51.9,25.3c-1.1,0.8-2.4,1.4-3.7,1.8c4.7,1,8.9,3.4,12.2,6.7c4.5,4.5,7.2,10.6,7.2,17.4s-2.8,13-7.2,17.4C56,73,49.8,75.8,43,75.8s-13-2.8-17.4-7.2c-4.5-4.5-7.2-10.6-7.2-17.4s2.8-13,7.2-17.4c3.3-3.3,7.5-5.6,12.2-6.7c-1.3-0.5-2.5-1.1-3.7-1.8c-5.4,1.8-10,5.3-13.3,9.9c-3.3,4.5-5.2,10.1-5.2,16c0,7.6,3.1,14.4,8,19.4c5,5,11.8,8,19.4,8c7.6,0,14.4-3.1,19.4-8c5-5,8-11.8,8-19.4c0-6-1.9-11.5-5.2-16C61.9,30.6,57.3,27.1,51.9,25.3z M58.8,7.5l-7.3-6.1H49l3.8,6.1H58.8z M51.1,7.5l-3.8-6.1h-8l-3.8,6.1H51.1L51.1,7.5z M33.9,7.5l3.8-6.1h-2.6l-7.3,6.1H33.9z M55.6,12h-4.5l-4.9,8.5l9.4-8.4L55.6,12L55.6,12z M49.4,12H37.2l6.1,10.6L49.4,12L49.4,12z M35.5,12h-4.6l9.6,8.5L35.5,12z M54.9,14.6L45,23.4c2.5-0.4,4.7-1.6,6.4-3.3C53,18.6,54.2,16.7,54.9,14.6L54.9,14.6z M41.6,23.5l-10.8-9.6c0.7,2.4,2,4.5,3.7,6.2C36.4,22,38.9,23.2,41.6,23.5L41.6,23.5z M25.8,10c0.3,0.3,0.7,0.6,1.1,0.6h2.6h29.6c0.4,0,0.9-0.3,1.4-0.7C60.8,9.6,61,9.3,61.2,9H25.3C25.4,9.3,25.6,9.7,25.8,10L25.8,10z M59.4,34.8C55.2,30.6,49.4,28,43,28s-12.2,2.6-16.4,6.8c-4.2,4.2-6.8,10-6.8,16.4s2.6,12.2,6.8,16.4c4.2,4.2,10,6.8,16.4,6.8s12.2-2.6,16.4-6.8s6.8-10,6.8-16.4S63.6,39,59.4,34.8z"/>
</svg>
