<svg xmlns="http://www.w3.org/2000/svg" viewBox="0 0 86 80">
<path d="M43.1,80L43.1,80L43.1,80L43,80l0,0l-0.1,0h0c0,0,0,0,0,0l-0.1,0l0,0l0,0l0,0L7.3,37.5l0,0l0,0l0,0l0,0l0,0l0-0.1l0-0.1l0-0.1l0-0.1v-0.1v-0.1l0-0.1l0-0.1l0-0.1l0,0l0-0.1l0-0.1l0,0l0,0l0.1-0.1l0,0l9.9-9.4c0,0,0,0,0,0l8.4-8.1c0.1-0.1,0.3-0.2,0.4-0.2h34c0.2,0,0.3,0.1,0.4,0.2l8.4,8.1c0,0,0,0,0,0l9.9,9.5c0.3,0.3,0.3,0.7,0.1,1c0,0,0,0-0.1,0.1L43.7,79.7C43.5,79.9,43.4,80,43.1,80L43.1,80L43.1,80L43.1,80z M43.7,11c0,0.4-0.3,0.8-0.8,0.8c-0.4,0-0.8-0.3-0.8-0.8V0.8C42.2,0.3,42.6,0,43,0c0.4,0,0.8,0.3,0.8,0.8V11z M77.7,24.4c-0.3,0.3-0.8,0.2-1.1-0.1c-0.3-0.3-0.2-0.8,0.1-1.1l7.9-6.5c0.3-0.3,0.8-0.2,1.1,0.1c0.3,0.3,0.2,0.8-0.1,1.1L77.7,24.4z M62.5,12.5c-0.1,0.4-0.6,0.6-1,0.4c-0.4-0.1-0.6-0.6-0.4-1l3.7-9.5c0.1-0.4,0.6-0.6,1-0.4c0.4,0.1,0.6,0.6,0.4,1L62.5,12.5z M9.3,23.2c0.3,0.3,0.4,0.7,0.1,1.1c-0.3,0.3-0.7,0.4-1.1,0.1l-7.9-6.5c-0.3-0.3-0.4-0.7-0.1-1.1c0.3-0.3,0.7-0.4,1.1-0.1L9.3,23.2z M24.9,12c0.1,0.4,0,0.8-0.4,1c-0.4,0.1-0.8,0-1-0.4L19.9,3c-0.1-0.4,0-0.8,0.4-1c0.4-0.1,0.8,0,1,0.4L24.9,12z M33.2,27.6l-2.6,8.6h10.9L33.2,27.6z M30.7,37.6l8.2,25.4l3.5-25.4H30.7z M38.6,66.2L21.5,43.2l11,22.3l9.2,11L38.6,66.2z M29,61.3L17.3,37.7H9.2L29,61.3z M19,37.7l18.3,24.7l-8-24.7H19L19,37.7z M29.3,36.2l2.5-8.2l-11.9,8.2H29.3z M54.5,28l2.5,8.2h9.4L54.5,28z M56.9,37.7l-8,24.7l18.3-24.7H56.9L56.9,37.7z M69,37.7L57.3,61.3l19.7-23.6H69z M64.8,43.2L47.7,66.3l-3.1,10.2l9.2-11L64.8,43.2L64.8,43.2z M47.4,63.1l8.2-25.4H43.9L47.4,63.1z M55.6,36.2l-2.6-8.6l-8.3,8.6H55.6z M43.2,77.1l3.4-11.2l-3.4-24.3l-3.4,24.3L43.2,77.1z M69.3,29v7.2h7.6L69.3,29z M52.3,26.5l-9.2-6.3L34,26.5l9.2,9.5L52.3,26.5z M17.1,36.2V29l-7.6,7.2H17.1z M18.3,27.8v7.9l13.6-9.4l-5.8-6L18.3,27.8z M33,25.5l7.9-5.4H27.8L33,25.5z M45.4,20.1l7.9,5.4l5.3-5.4H45.4z M54.4,26.3L68,35.7v-7.9l-7.8-7.5L54.4,26.3z"/>
</svg>
