<svg xmlns="http://www.w3.org/2000/svg" viewBox="0 0 86 80">
<path d="M21.4,63.3c-3.9,3.9-7.8,7.8-11.8,11.8c-1,1-2.1,2.1-3.1,3.1C6,78.7,5.5,79.3,5,79.7c-0.6,0.5-1,0.2-1.5-0.2c-0.4-0.4-1.4-1.1-1.4-1.7c0-0.6,0.8-1.2,1.2-1.6c4.6-4.6,9.1-9.1,13.7-13.7c0.4-0.4,0.7-0.7,1.1-1.1c0.1-0.1,0.5-0.4,0.6-0.6c0.1-0.4-0.9-1.3-1.2-1.7c-0.9-1.2-1.8-2.5-2.5-3.8c-3.1-5.3-4.6-11.4-4.6-17.6c0-6.4,1.8-12.7,5.1-18.1c0.2-0.3,0.4-0.6,0.6-1c0.1-0.2,0.6-0.7,0.6-0.9c0-0.3-0.4-1-0.5-1.2c-0.2-0.5-0.3-0.9-0.5-1.4c-0.6-1.6-1.1-3.3-1.6-5c-0.2-0.6-1.6-4.5,0.3-3.7c0.6,0.3,0.7,1.3,0.8,1.9c0.3,1,0.5,1.9,0.8,2.8c0.5,1.7,1.1,3.4,1.7,5c1.5-1.9,3.2-3.7,5.1-5.3c0.4-0.4,0.9-0.7,1.4-1.1c0.2-0.2,0.5-0.4,0.7-0.5c0.4-0.3,0.3-0.2,0.3-0.7c0-0.6-0.4-1.3-0.6-1.8c-0.2-0.7-0.4-1.3-0.5-2c-0.3-1.2-0.7-2.4-0.8-3.6c-0.1-1.1,1.1-1.6,1.6-0.5c0.4,1.1,0.5,2.4,0.8,3.5C26.2,5.5,26.6,6.8,27,8C36.7,2,49.2,1,59.7,5.7C70.9,10.6,79,21.3,80.5,33.4c1,8.1-0.8,16.3-5.1,23.2c2.5,0.8,5,1.4,7.5,2c0.5,0.1,1,0.3,1,0.9c0,0.6-0.5,0.8-1,0.8c-1.2,0-2.6-0.6-3.7-0.8c-1.2-0.3-2.5-0.7-3.7-1.1c-0.3-0.1-0.6-0.3-0.9-0.3c-0.3,0-0.4,0.2-0.6,0.5c-0.4,0.5-0.8,1.1-1.2,1.6c-1.7,2-3.5,3.9-5.6,5.4c2.7,1,5.4,1.9,8.1,2.7c0.6,0.2,1.2,0.3,1.9,0.5c0.5,0.1,1.3,0.1,1.6,0.6c0.3,0.4,0.1,1-0.4,1.2c-0.6,0.2-1.5-0.2-2-0.3c-2.7-0.7-5.3-1.5-7.9-2.4c-0.6-0.2-1.3-0.5-1.9-0.7c-0.2-0.1-0.5-0.2-0.7-0.3c-0.5-0.1-0.4-0.1-0.9,0.2c-1,0.7-2,1.3-3.1,1.8c-8.5,4.5-18.8,5.3-27.9,2.1c-2.4-0.8-4.7-1.9-6.8-3.2c-1.1-0.6-2.1-1.4-3.1-2.1C23.3,65,22.3,63.8,21.4,63.3z M19.9,61.9c-4.7,4.7-9.5,9.5-14.2,14.2c-0.4,0.4-0.9,0.9-1.3,1.3c-0.3,0.3-0.6,0.4-0.1,0.7c4.7-4.7,9.4-9.4,14.1-14.1c0.5-0.5,0.9-0.9,1.4-1.4C20.1,62.3,20.4,62.2,19.9,61.9z M42.1,4.5c-9.3,0.9-18,5.9-23.5,13.4c-5.3,7.2-7.5,16.3-6.1,25.1c1.3,8.5,6,16.3,12.9,21.5c7,5.3,16,7.7,24.8,6.5c8.6-1.2,16.5-5.7,21.8-12.5c8.8-11.2,9.5-27.2,1.7-39.1C67.5,10.1,56.3,4.9,45.1,4.3C44.5,4.3,42.5,4.4,42.1,4.5z M45.6,5.7c13.3,0,25.6,8.6,30.2,21.1c4.6,12.7,0.7,27.3-9.8,35.9c-10.4,8.6-25.6,9.7-37.1,2.7c-11.4-7-17.5-20.7-14.9-33.8c2.6-13,13.4-23.4,26.5-25.4C42.2,5.8,43.9,5.7,45.6,5.7z M67.2,16.3c-6-6-14.4-9.3-22.9-8.9C35.9,7.7,28,11.5,22.5,17.8c-5.6,6.4-8.2,15-7.3,23.5c0.9,8.3,5.3,16,12,21c6.8,5.1,15.5,7.1,23.9,5.6c8.3-1.5,15.8-6.6,20.3-13.8c1.2-1.8,2.1-3.8,2.9-5.9c0.3-0.9,0.6-1.9,0.9-2.9c0-0.2,0.2-0.6,0.2-0.8c-0.1-0.3-0.3-0.3-0.6-0.4c-0.6-0.2-1.2-0.5-1.8-0.7c-4.1-1.7-8.1-3.9-11.8-6.5c-7.4-5.2-13.8-11.9-18.5-19.6c-1.2-1.9-2.2-3.8-3.2-5.8c-0.3-0.6-1.1-2.1,0.1-2.2c1-0.1,1.4,1.7,1.7,2.3c2,4.1,4.5,7.9,7.3,11.5c5.6,7.1,12.8,12.9,20.9,17c2,1,4.1,1.9,6.2,2.7C77.2,33.1,74.1,23.2,67.2,16.3C61.6,10.7,72.7,21.8,67.2,16.3z M55.7,51.3c-1.3-0.1-3-0.9-3.3-2.3c-0.3-1.6,1-3.2,2.3-4c1.5-0.9,3.4-0.9,4.8,0.2c1.5,1.2,1.3,2.8,0.3,4.3c-1.8,2.5-4.8,3.9-7.9,4c-0.4,0-1.9,0.2-2.1-0.4c-0.3-0.9,1.2-0.8,1.7-0.8C52.9,52.3,54.5,52.1,55.7,51.3z M58.2,46c-2.2-1.4-6.1,2.3-3.4,3.8c1.2,0.7,2.5,0.3,3.4-0.7C59,48.1,59.5,46.8,58.2,46C57.5,45.6,59.1,46.6,58.2,46z M47.7,49.5c1,0.8-0.5,2.1-1.2,1.2C46,49.9,47,48.9,47.7,49.5z M46,44.2c-1.3-0.4-2.8-1.3-2.9-2.8c0-1.6,1.5-3,2.9-3.6c1.5-0.6,3.2-0.4,4.4,0.7c1.3,1.2,1.4,2.7,0.3,4.1c-2,2.5-5.6,3.6-8.7,3.2c-0.4-0.1-2-0.1-2.1-0.7c-0.2-0.9,1.3-0.6,1.7-0.5C43.1,44.7,44.8,44.9,46,44.2z M49.4,39.4c-2-1.8-6.4,1.4-3.9,3.3c1.1,0.8,2.4,0.5,3.4-0.3C49.8,41.7,50.5,40.3,49.4,39.4z M39.9,38.4c-1.3-0.5-2.8-1.8-2.5-3.4c0.3-1.5,1.8-2.6,3.2-3c1.6-0.4,3.2-0.1,4.3,1.2c1.1,1.2,1.1,2.7,0,3.9c-2.3,2.5-6.2,3.1-9.4,2.3c-0.4-0.1-1.7-0.3-1.8-0.9c-0.1-1,1.3-0.5,1.7-0.4C37,38.5,38.4,38.6,39.9,38.4z M43.8,33.9c-1.8-1.9-6.4,0.6-4.3,2.8c1,1,2.3,1,3.4,0.2C43.9,36.2,44.7,35.1,43.8,33.9z M34.6,31.6c-1.3-0.6-2.8-1.9-2.4-3.4c0.4-1.5,2-2.6,3.5-2.9c1.5-0.3,3.1,0.1,4.1,1.3c1.1,1.2,1,2.8-0.2,3.9c-2.4,2.4-6.3,2.9-9.4,2c-0.4-0.1-2-0.4-1.7-1.2c0.2-0.7,1.3-0.2,1.7-0.1C31.7,31.7,33,31.9,34.6,31.6z M38.6,27.3c-1.7-2-6.5,0.4-4.4,2.6c0.9,1,2.3,1,3.4,0.3C38.7,29.6,39.5,28.5,38.6,27.3z M51,64.5c0.5,0.3,0.5,1.1,0,1.4c-0.6,0.4-1.3-0.2-1.8-0.5c-1.3-0.8-2.6-1.6-3.9-2.5c-2.6-1.7-5.1-3.6-7.5-5.5c-4.8-3.9-9.2-8.3-13.1-13.1c-2-2.4-3.8-4.9-5.6-7.4c-0.3-0.5-1-1.2-0.9-1.8c0.1-0.6,0.8-0.8,1.3-0.5c0.5,0.4,0.9,1.3,1.3,1.8c0.4,0.6,0.9,1.3,1.3,1.9c3.6,5,7.7,9.7,12.2,13.9C39.4,56.8,45,61.2,51,64.5z"/>
</svg>
