<svg xmlns="http://www.w3.org/2000/svg" viewBox="0 0 86 80">
<g>
	<path d="M35.6,12.4c5,0,9.9,0,14.9,0c0.1,0,0.2,0,0.2,0l14.3,5.4c0.2,0.1,0.4,0.2,0.4,0.4l5.2,14.5c0,0.1,0,0.2,0,0.3l-0.1,14.3c0,0.1,0,0.2,0,0.2l-5,13.9c-0.1,0.2-0.2,0.4-0.4,0.4l-14.8,5.6c-0.1,0-0.2,0.1-0.3,0L43,67.6l-6.9,0.1c-0.1,0-0.2,0-0.3,0L21,62c-0.2-0.1-0.4-0.2-0.4-0.4l-5-13.9c0-0.1,0-0.2,0-0.3L15.3,33c0-0.1,0-0.2,0-0.2l0,0l5.2-14.5c0.1-0.2,0.3-0.4,0.5-0.4l14.3-5.4C35.4,12.4,35.5,12.4,35.6,12.4L35.6,12.4z M43,13.8l-7.3,0.1l-13.9,5.2l-5,14l0.1,14.2l4.9,13.5l14.4,5.4c4.6,0,9,0,13.6,0l14.4-5.4l4.9-13.5l0.1-14.2l-5-14l-13.9-5.2L43,13.8L43,13.8z"/>
	<path d="M43.5,12.5l7.7,5.3h13.6c0.4,0,0.7,0.3,0.7,0.7v11.9l5,9.2c0.1,0.2,0.1,0.5,0,0.7l-5,9.7v11.3c0,0.4-0.3,0.7-0.7,0.7H50.9l-7.4,5.3c-0.3,0.2-0.6,0.2-0.8,0L34.9,62H21.2c-0.4,0-0.7-0.3-0.7-0.7V49.7l-4.9-9.4c-0.1-0.2-0.1-0.5,0-0.7l4.9-9.5V18.5c0-0.4,0.3-0.7,0.7-0.7h13.7l7.7-5.3C42.9,12.3,43.2,12.4,43.5,12.5z M50.6,19.1L43.1,14l-7.5,5.1c-0.1,0.1-0.3,0.2-0.4,0.2H21.9v11c0,0.1,0,0.2-0.1,0.3L17,39.9l4.8,9.2c0.1,0.1,0.1,0.2,0.1,0.4v11.1h13.2c0.1,0,0.3,0,0.4,0.1l7.6,5.2l7.1-5.1c0.1-0.1,0.3-0.2,0.5-0.2h13.4V49.8c0-0.1,0-0.2,0.1-0.3l4.9-9.6l-4.9-9c-0.1-0.1-0.1-0.2-0.1-0.4V19.3H51C50.9,19.3,50.7,19.2,50.6,19.1L50.6,19.1z"/>
	<path d="M31.7,14.7c-0.2-0.3-0.1-0.8,0.2-1c0.3-0.2,0.8-0.1,1,0.2l2.8,4.2c0.2,0.3,0.1,0.8-0.2,1c-0.3,0.2-0.8,0.1-1-0.2L31.7,14.7z"/>
	<path d="M54.2,14.2c0.3-0.3,0.7-0.3,1,0c0.3,0.3,0.3,0.7,0,1L51.5,19c-0.3,0.3-0.7,0.3-1,0c-0.3-0.3-0.3-0.7,0-1L54.2,14.2z"/>
	<path d="M32.2,65.7c-0.3,0.3-0.7,0.3-1,0.1c-0.3-0.3-0.3-0.7-0.1-1l3.5-3.9c0.3-0.3,0.7-0.3,1-0.1c0.3,0.3,0.3,0.7,0.1,1L32.2,65.7z"/>
	<path d="M54.6,64.9c0.3,0.3,0.2,0.8-0.1,1c-0.3,0.3-0.8,0.2-1-0.1l-3.4-4c-0.3-0.3-0.2-0.8,0.1-1c0.3-0.3,0.8-0.2,1,0.1L54.6,64.9z"/>
	<path d="M68.6,50.9c0.4,0.2,0.5,0.6,0.3,1c-0.2,0.4-0.6,0.5-1,0.3l-3.5-1.7c-0.4-0.2-0.5-0.6-0.3-1c0.2-0.4,0.6-0.5,1-0.3L68.6,50.9z"/>
	<path d="M68.1,28.1c0.4-0.2,0.8,0,1,0.3c0.2,0.4,0,0.8-0.3,1l-3.7,1.8c-0.4,0.2-0.8,0-1-0.3c-0.2-0.4,0-0.8,0.3-1L68.1,28.1z"/>
	<path d="M17.4,51c-0.4,0.1-0.8-0.2-0.8-0.6s0.2-0.8,0.6-0.8l4-0.8c0.4-0.1,0.8,0.2,0.8,0.6c0.1,0.4-0.2,0.8-0.6,0.8L17.4,51z"/>
	<path d="M17.3,29.5c-0.4-0.1-0.6-0.6-0.4-0.9c0.1-0.4,0.6-0.6,0.9-0.4l3.7,1.4c0.4,0.1,0.6,0.6,0.4,0.9c-0.1,0.4-0.6,0.6-0.9,0.4L17.3,29.5z"/>
	<path d="M50.3,60.3c2-5.2,4.2-10.1,6.5-15c2.3-4.9,4.6-9.6,7-14.2c-4.7-1.3-9.3-2.9-13.9-4.7c-4.9-2-9.7-4.3-14.4-6.8c-2,5.2-4.2,10.2-6.4,15.1c-2.2,4.9-4.5,9.7-6.9,14.4c4.9,1.3,9.6,2.9,14.3,4.8C41.2,55.7,45.8,57.9,50.3,60.3L50.3,60.3z M58.1,45.9c-2.4,5.1-4.6,10.3-6.8,15.7l0,0.1c-0.2,0.3-0.6,0.5-1,0.3c-4.7-2.6-9.4-4.8-14.3-6.8c-4.9-2-9.8-3.6-14.9-4.9c-0.1,0-0.1,0-0.2-0.1c-0.4-0.2-0.5-0.6-0.3-1c2.5-4.9,4.9-9.9,7.2-15.1c2.3-5.2,4.5-10.4,6.7-15.8l0-0.1c0.2-0.3,0.6-0.5,1-0.3c4.8,2.6,9.8,5,14.9,7.1c4.8,1.9,9.6,3.6,14.5,4.9c0.1,0,0.1,0,0.2,0.1c0.4,0.2,0.5,0.6,0.3,1C62.9,35.9,60.4,40.8,58.1,45.9L58.1,45.9z"/>
	<path d="M34.5,61.5c-2.1-5.4-4.3-10.7-6.7-15.8c-2.3-5.1-4.7-10.2-7.2-15.1c-0.2-0.4,0-0.8,0.3-1c0.1,0,0.1-0.1,0.2-0.1c5.1-1.3,10.2-3,15.2-5c4.9-1.9,9.7-4.2,14.4-6.7c0.3-0.2,0.8-0.1,1,0.3l0,0.1c2.1,5.4,4.3,10.8,6.6,16c2.3,5.2,4.7,10.3,7.2,15.2c0.2,0.4,0,0.8-0.3,1c-0.1,0-0.1,0.1-0.2,0.1c-5.1,1.3-10.1,2.9-15,4.8c-4.9,1.9-9.8,4.1-14.4,6.6C35.1,62.1,34.7,62,34.5,61.5L34.5,61.5L34.5,61.5z M29.1,45.1c2.2,4.9,4.4,10,6.4,15.2c4.5-2.4,9.1-4.5,13.9-6.3c4.7-1.8,9.5-3.3,14.4-4.6c-2.4-4.7-4.6-9.5-6.8-14.5c-2.2-5-4.3-10.1-6.3-15.3c-4.5,2.4-9.1,4.5-13.8,6.4c-4.8,1.9-9.6,3.5-14.6,4.8C24.6,35.4,26.9,40.2,29.1,45.1L29.1,45.1z"/>
	<path d="M32.1,0.1c-0.8,0-1,1.1-0.2,1.4c0.1,0,0.1,0,0.2,0l7.2-0.1c0.8,0,1-1.1,0.2-1.4c-0.1,0-0.1,0-0.2,0L32.1,0.1z M28.9,2.8c0.8-0.3,0.5-1.5-0.4-1.4c0,0-0.1,0-0.1,0L21.7,4c-0.8,0.3-0.5,1.5,0.4,1.4c0,0,0.1,0,0.1,0L28.9,2.8z M18.2,6.8c0.8-0.3,0.5-1.5-0.4-1.4c0,0-0.1,0-0.1,0L11,8c-0.8,0.3-0.5,1.5,0.4,1.4c0,0,0.1,0,0.1,0L18.2,6.8z M10.4,13c0.3-0.7-0.6-1.3-1.2-0.7c-0.1,0.1-0.1,0.2-0.2,0.3l-2.4,6.7c-0.3,0.7,0.6,1.3,1.2,0.7C8,19.9,8,19.8,8,19.7L10.4,13z M6.6,23.8C6.9,23.1,6,22.5,5.4,23c-0.1,0.1-0.1,0.2-0.2,0.3L3,29.6c0,0.1,0,0.1,0,0.2l0,0.5c0,0.8,1.1,1,1.4,0.2c0-0.1,0-0.1,0-0.2l0-0.4L6.6,23.8L6.6,23.8z M4.4,34.6c0-0.8-1.1-1-1.4-0.2c0,0.1,0,0.1,0,0.2l0.1,7.2c0,0.8,1.1,1,1.4,0.2c0-0.1,0-0.1,0-0.2L4.4,34.6z M4.5,46.1c0-0.8-1.1-1-1.4-0.2c0,0.1,0,0.1,0,0.2l0,4.8c0,0.1,0,0.1,0,0.2L4,53.3c0.3,0.9,1.6,0.4,1.4-0.5l-0.8-2.2L4.5,46.1L4.5,46.1z M6.8,56.9c-0.3-0.9-1.6-0.4-1.4,0.5l2.4,6.8c0.3,0.9,1.6,0.4,1.4-0.5L6.8,56.9z M10.7,67.7c-0.3-0.9-1.6-0.4-1.4,0.5l1.1,3.2c0,0.2,0.1,0.3,0.3,0.4c0,0,0.1,0,0.1,0.1l3.5,1.3c0.8,0.3,1.4-0.8,0.6-1.3c0,0-0.1,0-0.1-0.1l-3.2-1.2L10.7,67.7L10.7,67.7z M19,73.3c-0.8-0.3-1.4,0.8-0.6,1.3c0,0,0.1,0,0.1,0.1l6.7,2.5c0.8,0.3,1.4-0.8,0.6-1.3c0,0-0.1,0-0.1-0.1L19,73.3z M29.7,77.3c-0.8-0.3-1.4,0.8-0.6,1.3c0,0,0.1,0,0.1,0.1c1.1,0.4,2.3,0.9,3.4,1.3c0.1,0,0.1,0,0.2,0l3.5,0c0.8,0,1-1.1,0.2-1.4c-0.1,0-0.1,0-0.2,0l-3.4,0L29.7,77.3z M40.7,78.5c-0.8,0-1,1.1-0.2,1.4c0.1,0,0.1,0,0.2,0c2.4,0,4.8,0,7.2,0c0.9,0,1-1.2,0.2-1.4c-0.1,0-0.1,0-0.1,0C45.5,78.5,43.1,78.5,40.7,78.5z M52.2,78.6c-0.9,0-1,1.2-0.2,1.4c0.1,0,0.1,0,0.1,0c0.3,0,0.7,0,1,0c0.1,0,0.1,0,0.2,0l5.8-2.2c0.8-0.3,0.5-1.4-0.3-1.4c-0.1,0-0.1,0-0.2,0L53,78.6L52.2,78.6L52.2,78.6z M62.7,74.9c-0.8,0.3-0.5,1.4,0.3,1.4c0.1,0,0.1,0,0.2,0l6.7-2.5c0.8-0.3,0.5-1.4-0.3-1.4c-0.1,0-0.1,0-0.2,0L62.7,74.9z M73.4,70.9c-0.8,0.3-0.5,1.4,0.3,1.4c0.1,0,0.1,0,0.2,0l1.1-0.4c0.1,0,0.2-0.1,0.3-0.2c0.1-0.1,0.1-0.1,0.2-0.2l2-5.6c0.3-0.7-0.6-1.3-1.2-0.7c-0.1,0.1-0.1,0.1-0.2,0.2l-1.9,5.3L73.4,70.9L73.4,70.9z M77.6,61.2c-0.3,0.7,0.6,1.3,1.2,0.7c0.1-0.1,0.1-0.1,0.2-0.2l2.4-6.7c0.3-0.7-0.6-1.3-1.2-0.7c-0.1,0.1-0.1,0.1-0.2,0.2L77.6,61.2z M81.4,50.7c0,0.8,1,1,1.4,0.3c0-0.1,0.1-0.2,0.1-0.3l0.1-7.2c0-0.8-1-1-1.4-0.3c0,0.1-0.1,0.2-0.1,0.3L81.4,50.7z M81.5,39.2c0,0.8,1,1,1.4,0.3c0-0.1,0.1-0.2,0.1-0.3l0.1-7.2c0-0.8-1-1-1.4-0.3c0,0.1-0.1,0.2-0.1,0.3L81.5,39.2z M81,28.1c0.3,0.8,1.6,0.5,1.4-0.4l0-0.1l-2.4-6.7c-0.3-0.8-1.6-0.5-1.4,0.4l0,0.1L81,28.1z M77.1,17.3c0.3,0.8,1.6,0.5,1.4-0.4l0-0.1l-2.4-6.7c-0.3-0.8-1.6-0.5-1.4,0.4l0,0.1L77.1,17.3z M72.2,8.5c0.1,0.1,0.3,0.1,0.5,0c0.7-0.2,0.7-1.1,0.1-1.4L66,4.6c-0.1-0.1-0.3-0.1-0.5,0c-0.7,0.2-0.7,1.1,0,1.4L72.2,8.5z M61.4,4.4c0.1,0.1,0.3,0.1,0.5,0c0.7-0.2,0.7-1.1,0-1.4l-6.7-2.5c-0.1-0.1-0.3-0.1-0.5,0c-0.7,0.2-0.7,1.1,0,1.4L61.4,4.4z M50.7,1.5c0.8,0,1-1,0.3-1.4c-0.1,0-0.2-0.1-0.3-0.1L43.6,0c-0.8,0-1,1-0.3,1.4c0.1,0,0.2,0.1,0.3,0.1L50.7,1.5z"/>
</g>
</svg>
