<svg width="53" height="60" viewBox="0 0 53 60" fill="none" xmlns="http://www.w3.org/2000/svg">
<path d="M48.8408 20.8356L42.9594 18.695C45.0859 16.9379 45.9938 14.1508 45.3428 11.5024C44.0635 6.29891 37.7191 4.3236 33.7108 7.867L29.6501 11.4567L28.8467 6.07309C28.0524 0.772828 21.9162 -1.77717 17.5993 1.38103C15.4409 2.96013 14.2927 5.68227 14.8018 8.44625L9.25677 6.42805C6.52865 5.43489 3.50065 6.84676 2.50748 9.57524L0.106315 16.1725C-0.225208 17.0834 0.244479 18.0908 1.15549 18.4222C1.52498 18.5566 28.1955 28.2639 28.5872 28.4064C27.4772 28.4064 3.16889 28.4064 2.09944 28.4064C1.13006 28.4064 0.344205 29.1923 0.344205 30.1616V54.7344C0.344205 57.6379 2.70635 60 5.60978 60H19.6514H26.6722H40.7138C43.6173 60 45.9794 57.6379 45.9794 54.7344V34.7368L47.3373 35.2311C48.2439 35.5613 49.2539 35.0966 49.5869 34.182L51.9882 27.5847C52.981 24.8562 51.5692 21.8287 48.8408 20.8356ZM17.8961 56.4897H5.60967C4.64182 56.4897 3.85443 55.7023 3.85443 54.7344V31.9169H17.8961V56.4897ZM24.9169 56.4897H21.4065V31.9169H24.9169V56.4897ZM36.0357 10.4971C38.0718 8.69703 41.2863 9.70684 41.9339 12.3406C42.6245 15.1488 39.9102 17.5837 37.1935 16.5965C34.8828 15.7555 33.8 15.3614 31.4861 14.5191L36.0357 10.4971ZM19.6719 4.21439C21.8657 2.60962 24.9731 3.91181 25.3752 6.59364L26.2752 12.6223C25.6274 12.3866 21.2054 10.777 20.5683 10.5452C17.8514 9.55578 17.3382 5.92134 19.6719 4.21439ZM20.4988 21.7269L4.00537 15.7237L5.80631 10.7758C6.13736 9.86633 7.14669 9.39594 8.05607 9.72676C9.90177 10.3985 22.3308 14.9223 22.9 15.1294L20.4988 21.7269ZM27.0962 24.1283L23.7975 22.9276L26.1988 16.3303L29.4975 17.531L27.0962 24.1283ZM42.4688 54.7344C42.4688 55.7023 41.6814 56.4897 40.7136 56.4897H28.4273V31.9169H38.2319L42.4689 33.4591V54.7344H42.4688ZM48.6891 26.3839L46.8883 31.3319L30.3949 25.3287L32.7962 18.7314L47.6402 24.1341C48.5497 24.4652 49.0202 25.4745 48.6891 26.3839Z" fill="#08205C"/>
</svg>
