<svg width="88" height="80" viewBox="0 0 88 80" fill="none" xmlns="http://www.w3.org/2000/svg">
<g clip-path="url(#clip0)">
<path d="M33.6404 1.04388C40.3153 0.982444 46.7274 0.982444 53.4111 1.04388C53.4987 1.04388 53.5863 1.06143 53.6651 1.08776L59.2538 3.19403L59.2976 3.21159L72.6299 8.24909C72.8752 8.3193 73.0591 8.51238 73.1292 8.75811L79.9618 27.9428C79.9969 28.0481 80.0144 28.1534 80.0056 28.2587L79.918 37.2718C79.9355 37.3684 79.9355 37.4649 79.918 37.5527L79.8217 47.3468C79.8217 47.4346 79.8041 47.5136 79.7779 47.5926L73.1292 66.0049C73.0591 66.2507 72.8664 66.4437 72.6212 66.5227L58.483 71.8674L58.4654 71.8762L58.4479 71.8849L52.9818 73.9473C52.8767 73.9824 52.7716 74 52.6752 73.9912L43.5126 73.9035L34.3061 73.9912C34.2097 73.9912 34.1221 73.9737 34.0433 73.9473L28.2006 71.7357L28.183 71.727L14.3952 66.5139C14.15 66.4437 13.9572 66.2419 13.8959 65.9961L7.24728 47.5838C7.21225 47.4873 7.20349 47.3995 7.20349 47.303L7.01953 28.1885C7.01953 28.1007 7.03705 28.013 7.06333 27.934L13.9047 8.73178C13.9222 8.67913 13.9397 8.62647 13.9748 8.58259L13.9835 8.57381V8.56504L13.9923 8.55626L14.001 8.54748V8.53871L14.0098 8.52993L14.0186 8.52115L14.0273 8.51238L14.0361 8.5036V8.49483L14.0448 8.48605L14.0536 8.47727L14.0624 8.4685L14.0711 8.45972L14.0799 8.45095L14.0886 8.44217L14.0974 8.43339L14.1062 8.42462L14.1149 8.41584L14.1237 8.40706L14.1324 8.39829L14.1412 8.38951H14.15L14.1587 8.38074L14.1675 8.37196L14.1762 8.36318L14.185 8.35441H14.1938L14.2025 8.34563H14.2113L14.22 8.33686L14.2288 8.32808H14.2375L14.2463 8.3193H14.2551L14.2638 8.31053C14.3076 8.2842 14.3514 8.26665 14.404 8.24909L33.3688 1.08776C33.4652 1.05265 33.5703 1.0351 33.6666 1.04388H33.6404ZM34.3762 33.2172C34.5776 32.8662 35.0332 32.7433 35.3835 32.9452C35.6288 33.0856 35.7602 33.3489 35.7514 33.6209C35.839 33.8052 35.8128 34.0071 35.5237 34.323C35.4361 34.4196 35.3485 34.4722 35.1032 34.6302L34.9368 34.7355C34.5952 34.9549 34.1397 34.8408 33.9207 34.4986C33.7017 34.1563 33.8155 33.6999 34.1572 33.4805L34.2711 33.4103C34.2973 33.3489 34.3324 33.2874 34.3674 33.2172H34.3762ZM34.1484 48.5228C33.7367 48.5228 33.4126 48.1893 33.4126 47.7856C33.4126 47.3732 33.7455 47.0484 34.1484 47.0484H34.709C35.1207 47.0484 35.4449 47.3819 35.4449 47.7856C35.4449 48.1981 35.112 48.5228 34.709 48.5228H34.1484ZM59.3852 39.5712C59.3852 39.1587 59.7181 38.834 60.121 38.834C60.5327 38.834 60.8568 39.1675 60.8568 39.5712V39.7818C60.8568 40.1943 60.524 40.519 60.121 40.519C59.7093 40.519 59.3852 40.1855 59.3852 39.7818V39.5712ZM42.9344 24.1251C42.7417 23.7653 42.8819 23.3177 43.241 23.1247C43.6002 22.9316 44.0469 23.072 44.2396 23.4318C44.7214 24.3358 44.7039 24.4674 44.6601 24.7746C44.6513 24.8097 44.6513 24.8623 44.6776 25.0115C44.7477 25.4152 44.4849 25.7926 44.082 25.8716C43.9418 25.8979 43.7929 25.8804 43.6702 25.8277L43.3023 25.6785C42.9257 25.5206 42.7505 25.0905 42.9081 24.7132C42.952 24.5991 43.022 24.5113 43.1096 24.4411L42.9432 24.1339L42.9344 24.1251ZM39.3429 38.7901C39.5444 38.439 39.9999 38.3162 40.3503 38.518C40.5956 38.6584 40.727 38.9217 40.7182 39.1938C40.8058 39.3781 40.7795 39.5799 40.4905 39.8959C40.4029 39.9924 40.3153 40.0451 40.07 40.203L39.9036 40.3084C39.5619 40.5278 39.1064 40.4137 38.8874 40.0714C38.6684 39.7291 38.7823 39.2728 39.1239 39.0534L39.2378 38.9832C39.2641 38.9217 39.2991 38.8603 39.3342 38.7901H39.3429ZM47.8224 50.0674C47.8662 49.6637 48.2253 49.3653 48.6283 49.4092C49.0312 49.4531 49.329 49.8129 49.2852 50.2166L49.2765 50.2781C49.2414 50.6554 49.2064 50.9977 49.1276 51.2873C48.891 52.2264 48.418 52.7354 47.1917 52.4282C46.7975 52.3317 46.5522 51.928 46.6573 51.5331C46.7537 51.1381 47.1566 50.8924 47.5508 50.9977C47.6472 51.024 47.6822 50.9889 47.6997 50.9363C47.7523 50.7257 47.7786 50.4448 47.8136 50.1376L47.8224 50.0762V50.0674ZM53.3935 44.1786C53.2534 43.7925 53.4461 43.3712 53.8315 43.2308C54.217 43.0904 54.6374 43.2835 54.7776 43.6696C54.8564 43.8803 54.944 44.047 55.0316 44.1962C55.2243 44.5472 55.382 44.8369 55.382 45.2757C55.382 45.6881 55.0491 46.0129 54.6462 46.0129C54.4184 46.0129 54.217 45.9075 54.0856 45.7496L53.5687 45.2318C53.3235 44.986 53.2972 44.6175 53.4636 44.3278L53.4023 44.1699L53.3935 44.1786ZM53.087 25.0817L53.779 25.1958C53.9804 25.2309 54.1644 25.345 54.2783 25.5293C54.4973 25.8716 54.3922 26.328 54.0505 26.5474L53.4111 26.9511C53.2884 27.0476 53.1308 27.109 52.9556 27.109C52.5439 27.109 52.2197 26.7755 52.2197 26.3718V25.8102C52.2197 25.7663 52.2285 25.7312 52.2285 25.6873C52.2986 25.2836 52.6752 25.0115 53.0782 25.0817H53.087ZM55.2243 33.8754C55.3382 33.4805 55.7587 33.2611 56.1441 33.384C56.5383 33.4981 56.7573 33.9193 56.6346 34.3055C56.5646 34.5424 56.5295 34.6828 56.5295 34.7706C56.5295 34.8584 56.5733 34.9988 56.6346 35.227C56.7485 35.6219 56.5208 36.0256 56.1266 36.1397C55.7324 36.2538 55.3294 36.0256 55.2156 35.6307C55.1192 35.2972 55.0667 35.0778 55.0579 34.7882C55.0491 34.5073 55.1017 34.2528 55.2156 33.8667L55.2243 33.8754ZM46.8237 44.6613C46.412 44.6613 46.0879 44.3278 46.0879 43.9241C46.0879 43.5117 46.4208 43.1869 46.8237 43.1869H47.3844C47.7961 43.1869 48.1202 43.5204 48.1202 43.9241C48.1202 44.3366 47.7873 44.6613 47.3844 44.6613H46.8237ZM47.2793 35.4464C47.3581 35.0427 47.7435 34.7882 48.1465 34.8584C48.5494 34.9374 48.8034 35.3235 48.7334 35.7272L48.6896 35.9642C48.6107 36.3679 48.2253 36.6224 47.8224 36.5522C47.4194 36.4732 47.1654 36.087 47.2355 35.6833L47.2793 35.4464ZM35.2434 24.0637C35.5325 23.7741 35.9967 23.7741 36.2858 24.0637C36.5749 24.3533 36.5749 24.8185 36.2858 25.1081L33.6053 27.7936C33.3162 28.0832 32.852 28.0832 32.5629 27.7936C32.2738 27.504 32.2738 27.0388 32.5629 26.7492L35.2434 24.0637ZM32.0023 65.0747C30.6708 61.6783 29.3043 58.3258 27.9115 55.0172C23.7769 53.5428 19.581 52.2351 15.3238 51.103V65.0834H32.0023V65.0747ZM27.1319 53.1742C25.9581 50.4097 24.758 47.6803 23.5404 44.9685C22.6557 42.9939 21.7534 41.0368 20.8424 39.0885C19.143 42.6516 17.4173 46.1796 15.6479 49.655C19.5197 50.6905 23.3477 51.8666 27.1231 53.1742H27.1319ZM20.0365 37.3596C18.2583 33.5946 16.4362 29.8735 14.5792 26.1963L8.80652 37.4035L14.5792 48.5141C16.4362 44.8369 18.2583 41.1245 20.0365 37.3596ZM15.3238 23.6161C19.5372 22.4928 23.7419 21.2027 27.9027 19.7546C29.2955 16.4372 30.662 13.0848 31.9935 9.69716H15.3238V23.6161ZM29.7773 19.0876C31.4154 18.4996 33.0359 17.8853 34.6565 17.2446C37.0391 16.3056 39.3955 15.3051 41.7343 14.2608C38.94 12.9005 36.1807 11.4787 33.4564 10.0043C32.2563 13.0672 31.03 16.095 29.7773 19.0876ZM43.4863 13.4621C46.596 12.0228 49.6619 10.4958 52.6752 8.88098L43.5826 2.63236L34.49 8.88975C37.4508 10.487 40.4554 12.0228 43.4951 13.4709L43.4863 13.4621ZM55.163 9.68838C56.5383 13.1988 57.9311 16.6742 59.3589 20.132C63.4234 21.6064 67.5318 22.9053 71.6751 24.0198V9.69716H55.163V9.68838ZM60.121 21.975C61.2423 24.6605 62.3723 27.3197 63.5286 29.9525C64.387 31.9271 65.263 33.8842 66.1477 35.8237C67.8559 32.3221 69.5903 28.873 71.3335 25.4503C67.558 24.4411 63.8176 23.2739 60.121 21.9662V21.975ZM66.9449 37.5614C68.7231 41.4142 70.5451 45.2055 72.4109 48.9178L78.3413 37.4035L72.4285 26.5474C70.5714 30.1982 68.7406 33.8667 66.9449 37.5527V37.5614ZM71.6664 51.498C67.3128 52.6476 62.9942 53.9377 58.7195 55.3858C57.3529 58.554 56.0215 61.7748 54.725 65.0571H71.6576V51.498H71.6664ZM56.8449 56.0352C55.4083 56.5355 53.9804 57.062 52.5614 57.6062C50.0824 58.554 47.6209 59.5545 45.1857 60.6164C47.91 61.924 50.5992 63.3019 53.2709 64.7499C54.4272 61.8012 55.6185 58.905 56.8449 56.0352ZM43.4075 61.4062C40.3591 62.7841 37.3545 64.2673 34.3937 65.8557L43.5651 72.1658L52.2635 65.8821C49.3378 64.3024 46.3858 62.8104 43.4075 61.4062ZM24.8806 44.3454C26.2822 47.4697 27.6662 50.6291 29.0152 53.8236C30.9599 54.5257 32.8958 55.2629 34.8229 56.044C37.7136 57.2112 40.5868 58.4574 43.425 59.7826C46.2631 58.5101 49.1451 57.3253 52.0445 56.2195C53.9016 55.5174 55.7674 54.8417 57.642 54.201C59.0523 50.9538 60.4977 47.7418 61.9781 44.5736C63.0818 42.204 64.1943 39.8696 65.3243 37.5527C64.2644 35.2445 63.222 32.9101 62.1883 30.5493C60.8481 27.4952 59.5429 24.406 58.2552 21.2992C56.3894 20.6147 54.5411 19.895 52.7015 19.1491C49.6006 17.8853 46.5259 16.525 43.4863 15.0945C40.7533 16.3407 37.9939 17.5167 35.2083 18.6225C33.1586 19.4299 31.0913 20.2022 29.0152 20.9394C27.675 24.1164 26.2997 27.2495 24.9069 30.3562C23.847 32.7082 22.7695 35.0514 21.6833 37.3596C22.7695 39.6765 23.847 42.0022 24.9069 44.3629L24.8806 44.3454ZM29.7948 55.6754C31.0387 58.6505 32.2476 61.652 33.4389 64.6885C36.1369 63.2317 38.8787 61.8626 41.6467 60.5813C39.2115 59.4667 36.7501 58.4048 34.2711 57.4043C32.7819 56.8075 31.2927 56.2283 29.7948 55.6754ZM59.5166 53.5603C63.4147 52.2703 67.3566 51.103 71.3335 50.0587C69.5553 46.5394 67.8121 42.9412 66.1127 39.2728C65.1666 41.2386 64.2293 43.2133 63.3008 45.1879C62.0131 47.9436 60.7517 50.7344 59.5166 53.5603ZM57.4756 19.4299C56.1967 16.3056 54.9353 13.155 53.7001 9.98677C50.9145 11.4963 48.0939 12.918 45.2295 14.2695C47.8749 15.4982 50.5466 16.6654 53.2446 17.7712C54.6549 18.3417 56.0653 18.8946 57.4843 19.4299H57.4756ZM27.1231 21.5713C23.3301 22.8614 19.5021 24.0198 15.6566 25.0379C17.4173 28.5132 19.1518 32.0412 20.8511 35.6131C21.7622 33.6648 22.6644 31.7077 23.5491 29.7331C24.758 27.0388 25.9581 24.3182 27.1231 21.5713ZM10.6285 22.2471L13.8434 23.4845V13.2164L10.6285 22.2471ZM13.5543 24.9589L10.138 23.6425L8.47365 28.3114L8.53496 34.7004L13.5543 24.9589ZM9.79637 50.3571L13.4842 49.6023L8.58752 40.1855L8.6576 47.2064L9.79637 50.3658V50.3571ZM13.8521 51.0328L10.3044 51.7612L13.8521 61.5905V51.0328ZM76.8434 23.581L73.4271 25.2924L78.4727 34.5424L78.534 28.3201L76.8434 23.581ZM73.1555 23.7829L76.344 22.1856L73.1555 13.2339V23.7917V23.7829ZM76.1776 53.2093L73.1555 51.7261V61.5817L76.1776 53.2093ZM73.4183 50.2079L76.6857 51.8139L78.35 47.1976L78.4113 40.519L73.4183 50.2166V50.2079ZM56.9675 70.8494L53.5337 66.7948L45.685 72.4642C47.9713 72.4729 50.2576 72.4817 52.5877 72.5081L56.9675 70.8494ZM55.2506 66.5403L58.4304 70.2965L68.3639 66.5403H55.2419H55.2506ZM28.2093 70.156L31.3803 66.5403H18.6262L28.2006 70.156H28.2093ZM33.1323 66.7772L29.681 70.7177L34.42 72.5081C36.7763 72.4817 39.0889 72.4729 41.4015 72.4642L33.141 66.7772H33.1323ZM59.2012 4.74741L55.8375 8.20521H68.3639L59.2012 4.74741ZM53.998 7.98581L57.7033 4.17696L53.2709 2.50072L45.9215 2.43051L53.998 7.98581ZM30.4781 3.73815L33.2724 7.9156L41.2526 2.43051L33.7455 2.50072L30.4781 3.73815ZM31.6957 8.20521L29.059 4.26472L18.6349 8.20521H31.6957Z" fill="#6F7D9D"/>
</g>
<defs>
<clipPath id="clip0">
<rect width="73" height="73" fill="white" transform="translate(7 1)"/>
</clipPath>
</defs>
</svg>
