<svg width="64" height="60" viewBox="0 0 64 60" fill="none" xmlns="http://www.w3.org/2000/svg">
<path d="M58.008 52.5472C61.0901 52.5472 63.5976 50.0396 63.5976 46.9575V40.3513C63.5976 39.5044 63.3953 38.6591 63.049 37.9361L57.0682 25.4533C56.5967 24.4694 54.8598 22.7359 52.2873 22.7359H44.9655V17.1463C44.9655 16.1691 44.2128 15.369 43.2558 15.2907C44.6608 13.3534 45.2387 10.9346 44.8413 8.54989C43.5585 0.853463 34.3514 -2.62391 28.2627 2.24714L25.2498 4.63851C24.3935 4.29481 23.4603 4.10377 22.4828 4.10377C21.5052 4.10377 20.572 4.29481 19.7158 4.63851L16.7085 2.25162C10.6063 -2.63025 1.40573 0.860915 0.124214 8.54977C-0.271532 10.924 0.324447 13.3462 1.76024 15.288C0.779444 15.3418 0 16.1518 0 17.1461V50.6839C0 51.7129 0.834222 52.5472 1.86321 52.5472H7.57706C7.57706 53.9042 7.94337 55.1764 8.57972 56.2736H1.86321C0.834222 56.2736 0 57.1078 0 58.1368C0 59.1658 0.834222 60 1.86321 60H61.7344C62.7634 60 63.5976 59.1658 63.5976 58.1368C63.5976 57.1078 62.7634 56.2736 61.7344 56.2736H55.1421C55.7785 55.1764 56.1448 53.9042 56.1448 52.5472H58.008ZM30.585 5.16133C34.4671 2.05561 40.3526 4.28475 41.1656 9.16239C41.7007 12.3731 39.2248 15.2828 35.9597 15.2828H29.9356V11.5564C29.9356 9.81762 29.3354 8.21737 28.3336 6.94815L30.585 5.16133ZM41.2391 19.0093C41.2391 20.3783 41.2391 30.311 41.2391 32.0518H24.346V19.0093C26.329 19.0093 39.2569 19.0093 41.2391 19.0093ZM41.2391 35.7782C41.2391 37.3142 41.2391 47.3105 41.2391 48.8207C40.5091 48.8207 25.0449 48.8207 24.346 48.8207V35.7782H41.2391ZM18.7563 11.5565C18.7563 9.50175 20.428 7.83007 22.4828 7.83007C24.5375 7.83007 26.2092 9.50175 26.2092 11.5565V15.2829C23.5291 15.2829 21.5569 15.2829 18.7563 15.2829V11.5565ZM3.79996 9.16239C4.61306 4.28364 10.497 2.05449 14.3862 5.1658L16.6319 6.94815C15.6301 8.2175 15.0299 9.81775 15.0299 11.5565V15.2829C12.3904 15.2829 11.7628 15.2829 9.12999 15.2829C5.88763 15.2829 3.25975 12.404 3.79996 9.16239ZM15.0299 56.2736C12.9752 56.2736 11.3035 54.6019 11.3035 52.5472C11.3035 50.4924 12.9752 48.8207 15.0299 48.8207C17.0847 48.8207 18.7563 50.4924 18.7563 52.5472C18.7563 54.6019 17.0847 56.2736 15.0299 56.2736ZM20.6195 47.6254C19.2528 46.0751 17.2543 45.0943 15.0299 45.0943C12.2774 45.0943 9.87043 46.5953 8.57972 48.8207H3.72642V35.7782H20.6195V47.6254ZM20.6195 32.0518H3.72642V19.0093C7.15374 19.0093 17.1933 19.0093 20.6195 19.0093V32.0518ZM21.4801 56.2736C22.1164 55.1764 22.4828 53.9041 22.4828 52.5472C23.2684 52.5472 40.4546 52.5472 41.2391 52.5472C41.2391 53.9042 41.6054 55.1764 42.2417 56.2736H21.4801ZM56.9903 33.915L58.7756 37.6415H52.4184V33.915H56.9903ZM48.6919 56.2736C46.6372 56.2736 44.9655 54.6019 44.9655 52.5472C44.9655 50.4924 46.6372 48.8207 48.6919 48.8207C50.7467 48.8207 52.4184 50.4924 52.4184 52.5472C52.4184 54.6019 50.7467 56.2736 48.6919 56.2736ZM48.6919 45.0943C47.3349 45.0943 46.0627 45.4606 44.9655 46.097C44.9655 45.6719 44.9655 28.4392 44.9655 26.4622H52.2872C52.875 26.4622 53.423 26.7371 53.7742 27.2026L55.2049 30.1886H50.5551C49.5262 30.1886 48.6919 31.0228 48.6919 32.0518V39.5047C48.6919 40.5337 49.5262 41.3679 50.5551 41.3679H59.8712V46.9575C59.8712 47.9849 59.0354 48.8207 58.008 48.8207H55.1421C53.8514 46.5953 51.4444 45.0943 48.6919 45.0943Z" fill="#08205C"/>
</svg>
